<svg width="16" height="16" viewBox="0 0 16 16" fill="none" xmlns="http://www.w3.org/2000/svg">
<path d="M3.09806 3.20061H13.6981C14.6981 3.20061 15.2021 3.67261 15.2021 4.63261V11.3686C15.2021 12.3206 14.6981 12.8006 13.6981 12.8006H3.09806C2.09806 12.8006 1.59406 12.3206 1.59406 11.3686V4.63261C1.59406 3.67261 2.09806 3.20061 3.09806 3.20061ZM8.39406 10.0806L13.7861 5.65661C13.9781 5.49661 14.1301 5.12861 13.8901 4.80061C13.6581 4.47261 13.2341 4.46461 12.9541 4.66461L8.39406 7.75261L3.84206 4.66461C3.56206 4.46461 3.13806 4.47261 2.90606 4.80061C2.66606 5.12861 2.81806 5.49661 3.01006 5.65661L8.39406 10.0806Z" fill="#0E0F1D"/>
</svg>
