<svg width="16" height="16" viewBox="0 0 16 16" fill="none" xmlns="http://www.w3.org/2000/svg">
<g clip-path="url(#clip0_91_2970)">
<path d="M7.42442 14.3519C6.15567 12.7637 3.3338 8.91418 3.3338 6.75194C3.3338 4.12856 5.4231 2.00194 8.00046 2.00194C10.5769 2.00194 12.6671 4.12856 12.6671 6.75194C12.6671 8.91418 9.82338 12.7637 8.57651 14.3519C8.27755 14.7305 7.72338 14.7305 7.42442 14.3519ZM8.00046 8.33528C8.85845 8.33528 9.55602 7.62525 9.55602 6.75194C9.55602 5.87864 8.85845 5.16861 8.00046 5.16861C7.14248 5.16861 6.44491 5.87864 6.44491 6.75194C6.44491 7.62525 7.14248 8.33528 8.00046 8.33528Z" fill="#0E0F1D"/>
</g>
<defs>
<clipPath id="clip0_91_2970">
<rect width="8.75972" height="11.8882" fill="white" transform="translate(3.3338 2.00194) scale(1.06548)"/>
</clipPath>
</defs>
</svg>
