<svg width="82" height="16" viewBox="0 0 82 16" fill="none" xmlns="http://www.w3.org/2000/svg">
<path d="M8.00151 11.5125L10.7682 13.1859C11.2748 13.4925 11.8948 13.0392 11.7615 12.4659L11.0282 9.31919L13.4748 7.19919C13.9215 6.81253 13.6815 6.07919 13.0948 6.03253L9.87485 5.75919L8.61485 2.78586C8.38818 2.24586 7.61485 2.24586 7.38818 2.78586L6.12818 5.75253L2.90818 6.02586C2.32151 6.07253 2.08151 6.80586 2.52818 7.19253L4.97485 9.31253L4.24151 12.4592C4.10818 13.0325 4.72818 13.4859 5.23485 13.1792L8.00151 11.5125Z" fill="#FAC115"/>
<path d="M24.4987 11.5125L27.4383 13.1859C27.9766 13.4925 28.6353 13.0392 28.4937 12.4659L27.7145 9.31919L30.3141 7.19919C30.7887 6.81253 30.5337 6.07919 29.9103 6.03253L26.4891 5.75919L25.1503 2.78586C24.9095 2.24586 24.0878 2.24586 23.847 2.78586L22.5083 5.75253L19.087 6.02586C18.4637 6.07253 18.2087 6.80586 18.6833 7.19253L21.2828 9.31253L20.5037 12.4592C20.362 13.0325 21.0208 13.4859 21.5591 13.1792L24.4987 11.5125Z" fill="#FAC115"/>
<path d="M41.0015 11.5125L43.7682 13.1859C44.2748 13.4925 44.8948 13.0392 44.7615 12.4659L44.0282 9.31919L46.4748 7.19919C46.9215 6.81253 46.6815 6.07919 46.0948 6.03253L42.8748 5.75919L41.6148 2.78586C41.3882 2.24586 40.6148 2.24586 40.3882 2.78586L39.1282 5.75253L35.9082 6.02586C35.3215 6.07253 35.0815 6.80586 35.5282 7.19253L37.9748 9.31253L37.2415 12.4592C37.1082 13.0325 37.7282 13.4859 38.2348 13.1792L41.0015 11.5125Z" fill="#FAC115"/>
<path d="M57.4987 11.5125L60.4383 13.1859C60.9766 13.4925 61.6353 13.0392 61.4937 12.4659L60.7145 9.31919L63.3141 7.19919C63.7887 6.81253 63.5337 6.07919 62.9103 6.03253L59.4891 5.75919L58.1503 2.78586C57.9095 2.24586 57.0878 2.24586 56.847 2.78586L55.5083 5.75253L52.087 6.02586C51.4637 6.07253 51.2087 6.80586 51.6833 7.19253L54.2828 9.31253L53.5037 12.4592C53.362 13.0325 54.0208 13.4859 54.5591 13.1792L57.4987 11.5125Z" fill="#FAC115"/>
<path d="M74.0015 11.5125L76.7682 13.1859C77.2748 13.4925 77.8948 13.0392 77.7615 12.4659L77.0282 9.31919L79.4748 7.19919C79.9215 6.81253 79.6815 6.07919 79.0948 6.03253L75.8748 5.75919L74.6148 2.78586C74.3882 2.24586 73.6148 2.24586 73.3882 2.78586L72.1282 5.75253L68.9082 6.02586C68.3215 6.07253 68.0815 6.80586 68.5282 7.19253L70.9748 9.31253L70.2415 12.4592C70.1082 13.0325 70.7282 13.4859 71.2348 13.1792L74.0015 11.5125Z" fill="#FAC115"/>
</svg>
