<svg width="16" height="16" viewBox="0 0 16 16" fill="none" xmlns="http://www.w3.org/2000/svg">
<g clip-path="url(#clip0_91_2961)">
<path d="M2.16423 3.59514L3.82829 1.93264C3.94568 1.81474 4.0852 1.72119 4.23885 1.65738C4.39249 1.59356 4.55723 1.56073 4.72361 1.56077C5.06267 1.56077 5.38142 1.69358 5.62048 1.93264L7.41111 3.72327C7.52901 3.84065 7.62255 3.98017 7.68637 4.13382C7.75019 4.28747 7.78302 4.45221 7.78298 4.61858C7.78298 4.95764 7.65017 5.27639 7.41111 5.51546L6.10173 6.82483C6.40823 7.50039 6.83435 8.11497 7.35954 8.63889C7.88342 9.16536 8.49794 9.59304 9.17361 9.90139L10.483 8.59202C10.6004 8.47412 10.7399 8.38057 10.8935 8.31675C11.0472 8.25294 11.2119 8.2201 11.3783 8.22014C11.7174 8.22014 12.0361 8.35296 12.2752 8.59202L14.0674 10.3811C14.1854 10.4987 14.279 10.6385 14.3429 10.7924C14.4067 10.9463 14.4394 11.1113 14.4392 11.278C14.4392 11.617 14.3064 11.9358 14.0674 12.1748L12.4064 13.8358C12.0252 14.2186 11.4986 14.4358 10.958 14.4358C10.8439 14.4358 10.7345 14.4264 10.6267 14.4076C8.52048 14.0608 6.43142 12.9405 4.74548 11.2561C3.0611 9.57327 1.94236 7.48577 1.59079 5.37327C1.48454 4.72795 1.69861 4.06389 2.16423 3.59514Z" fill="#0E0F1D"/>
</g>
<defs>
<clipPath id="clip0_91_2961">
<rect width="15.0167" height="15.0167" fill="white" transform="matrix(-1.06548 0 0 1.06548 16 0)"/>
</clipPath>
</defs>
</svg>
