<svg width="19" height="15" viewBox="0 0 19 15" fill="none" xmlns="http://www.w3.org/2000/svg">
<g clip-path="url(#clip0_91_2983)">
<path d="M18.8951 1.82602C18.1876 2.13081 17.4371 2.33088 16.6686 2.41956C17.469 1.95305 18.0837 1.21432 18.3731 0.33412C17.6121 0.773203 16.7796 1.08257 15.9115 1.24884C15.2043 0.516275 14.1969 0.0584488 13.0818 0.0584488C10.9409 0.0584488 9.20516 1.74621 9.20516 3.82785C9.20516 4.12333 9.23949 4.41099 9.30554 4.68695C6.08378 4.5297 3.22737 3.02904 1.31535 0.748453C0.981734 1.30518 0.790568 1.95277 0.790568 2.64349C0.790568 3.9513 1.475 5.10501 2.51512 5.78102C1.89951 5.76227 1.29745 5.60059 0.759199 5.30949C0.758978 5.32527 0.758978 5.34106 0.758978 5.35693C0.758978 7.18328 2.09522 8.70683 3.86855 9.05312C3.2977 9.20408 2.69892 9.22618 2.11795 9.11771C2.61122 10.6153 4.04289 11.705 5.73917 11.7356C4.41245 12.7465 2.7409 13.3492 0.924753 13.3492C0.611803 13.3492 0.303281 13.3313 0 13.2965C1.71554 14.366 3.75319 14.9901 5.94236 14.9901C13.0728 14.9901 16.9719 9.24618 16.9719 4.26501C16.9719 4.10151 16.9682 3.93895 16.9607 3.77732C17.7196 3.24384 18.3747 2.58307 18.8951 1.82602Z" fill="#0E0F1D"/>
</g>
<defs>
<clipPath id="clip0_91_2983">
<rect width="18.1527" height="14.4107" fill="white" transform="scale(1.0409)"/>
</clipPath>
</defs>
</svg>
