<svg width="17" height="16" viewBox="0 0 17 16" fill="none" xmlns="http://www.w3.org/2000/svg">
<g clip-path="url(#clip0_91_2979)">
<path d="M3.79639 16.0002V5.20488H0.211507L0.211507 16.0002H3.79639ZM2.00441 3.73008C3.25453 3.73008 4.03266 2.90113 4.03266 1.86522C4.00937 0.805943 3.25458 0 2.02814 0C0.80189 0 0 0.805959 0 1.86522C0 2.90118 0.777944 3.73008 1.98101 3.73008H2.0043H2.00441ZM5.78062 16.0002H9.36551V9.97154C9.36551 9.6489 9.3888 9.32659 9.48347 9.09595C9.74263 8.45132 10.3325 7.78367 11.3228 7.78367C12.62 7.78367 13.139 8.77363 13.139 10.2248V16.0001H16.7236V9.81016C16.7236 6.49428 14.955 4.95143 12.5964 4.95143C10.6625 4.95143 9.81338 6.0334 9.34166 6.77031H9.36559V5.20465H5.7807C5.82774 6.21762 5.7807 15.9999 5.7807 15.9999L5.78062 16.0002Z" fill="#0E0F1D"/>
</g>
<defs>
<clipPath id="clip0_91_2979">
<rect width="16.1357" height="15.4401" fill="white" transform="scale(1.03627)"/>
</clipPath>
</defs>
</svg>
