<svg width="17" height="19" viewBox="0 0 17 19" fill="none" xmlns="http://www.w3.org/2000/svg">
<g clip-path="url(#clip0_91_2975)">
<path d="M8.27972 5.22954C5.9307 5.22954 4.03598 7.13322 4.03598 9.49335C4.03598 11.8535 5.9307 13.7572 8.27972 13.7572C10.6287 13.7572 12.5235 11.8535 12.5235 9.49335C12.5235 7.13322 10.6287 5.22954 8.27972 5.22954ZM8.27972 12.2654C6.76172 12.2654 5.52073 11.0222 5.52073 9.49335C5.52073 7.96446 6.75803 6.72131 8.27972 6.72131C9.8014 6.72131 11.0387 7.96446 11.0387 9.49335C11.0387 11.0222 9.79771 12.2654 8.27972 12.2654ZM13.6869 5.05513C13.6869 5.60805 13.2437 6.04964 12.697 6.04964C12.1467 6.04964 11.7072 5.60434 11.7072 5.05513C11.7072 4.50591 12.1504 4.06061 12.697 4.06061C13.2437 4.06061 13.6869 4.50591 13.6869 5.05513ZM16.4976 6.06449C16.4348 4.73228 16.1319 3.55222 15.1606 2.57996C14.1929 1.60771 13.0184 1.30342 11.6924 1.23662C10.3259 1.15869 6.22987 1.15869 4.86331 1.23662C3.54106 1.29971 2.36656 1.604 1.39519 2.57625C0.42382 3.5485 0.124653 4.72857 0.0581713 6.06078C-0.0193904 7.4338 -0.0193904 11.5492 0.0581713 12.9222C0.120959 14.2544 0.42382 15.4345 1.39519 16.4067C2.36656 17.379 3.53737 17.6833 4.86331 17.7501C6.22987 17.828 10.3259 17.828 11.6924 17.7501C13.0184 17.687 14.1929 17.3827 15.1606 16.4067C16.1282 15.4345 16.4311 14.2544 16.4976 12.9222C16.5751 11.5492 16.5751 7.43752 16.4976 6.06449ZM14.7321 14.3954C14.444 15.1228 13.8863 15.6831 13.1587 15.9763C12.0692 16.4104 9.48377 16.3103 8.27972 16.3103C7.07566 16.3103 4.48658 16.4067 3.40071 15.9763C2.6768 15.6868 2.1191 15.1265 1.82732 14.3954C1.39519 13.3007 1.49491 10.7031 1.49491 9.49335C1.49491 8.2836 1.39888 5.68227 1.82732 4.59126C2.1154 3.86393 2.67311 3.30359 3.40071 3.01043C4.49027 2.57625 7.07566 2.67645 8.27972 2.67645C9.48377 2.67645 12.0729 2.57996 13.1587 3.01043C13.8826 3.29987 14.4403 3.86022 14.7321 4.59126C15.1642 5.68598 15.0645 8.2836 15.0645 9.49335C15.0645 10.7031 15.1642 13.3044 14.7321 14.3954Z" fill="#0E0F1D"/>
</g>
<defs>
<clipPath id="clip0_91_2975">
<rect width="16.1357" height="18.5281" fill="white" transform="scale(1.02546)"/>
</clipPath>
</defs>
</svg>
