<svg width="46" height="46" viewBox="0 0 46 46" fill="none" xmlns="http://www.w3.org/2000/svg">
<g clip-path="url(#clip0_91_1869)">
<g clip-path="url(#clip1_91_1869)">
<g clip-path="url(#clip2_91_1869)">
<path d="M28.2104 26.6365C29.2997 25.15 29.7876 23.3071 29.5764 21.4764C29.3653 19.6456 28.4707 17.9621 27.0716 16.7627C25.6725 15.5632 23.8721 14.9362 22.0306 15.0072C20.1891 15.0781 18.4423 15.8418 17.1397 17.1454C15.8371 18.4489 15.0747 20.1963 15.005 22.0378C14.9354 23.8794 15.5637 25.6793 16.7641 27.0775C17.9646 28.4758 19.6487 29.3692 21.4796 29.579C23.3105 29.7888 25.1531 29.2996 26.6388 28.2092H26.6376C26.6714 28.2542 26.7074 28.297 26.7479 28.3386L31.0791 32.6698C31.29 32.8809 31.5762 32.9995 31.8746 32.9996C32.173 32.9997 32.4593 32.8813 32.6704 32.6703C32.8814 32.4594 33.0001 32.1732 33.0002 31.8748C33.0003 31.5764 32.8819 31.2901 32.6709 31.079L28.3397 26.7479C28.2995 26.7072 28.2563 26.6695 28.2104 26.6354V26.6365ZM28.5006 22.3121C28.5006 23.1246 28.3406 23.9292 28.0296 24.6799C27.7187 25.4306 27.2629 26.1127 26.6884 26.6872C26.1138 27.2618 25.4317 27.7175 24.681 28.0285C23.9303 28.3394 23.1257 28.4995 22.3132 28.4995C21.5007 28.4995 20.6961 28.3394 19.9454 28.0285C19.1947 27.7175 18.5126 27.2618 17.938 26.6872C17.3635 26.1127 16.9077 25.4306 16.5968 24.6799C16.2858 23.9292 16.1258 23.1246 16.1258 22.3121C16.1258 20.6711 16.7777 19.0973 17.938 17.9369C19.0984 16.7765 20.6722 16.1247 22.3132 16.1247C23.9542 16.1247 25.528 16.7765 26.6884 17.9369C27.8487 19.0973 28.5006 20.6711 28.5006 22.3121Z" fill="black"/>
</g>
</g>
</g>
<defs>
<clipPath id="clip0_91_1869">
<rect width="46.0006" height="46.0003" fill="white"/>
</clipPath>
<clipPath id="clip1_91_1869">
<rect width="46.0006" height="46.0003" fill="white"/>
</clipPath>
<clipPath id="clip2_91_1869">
<rect width="18.0006" height="18.0003" fill="white" transform="translate(14.9998 14.9998)"/>
</clipPath>
</defs>
</svg>
