<svg width="1445" height="808" viewBox="0 0 1445 808" fill="none" xmlns="http://www.w3.org/2000/svg">
<g opacity="0.1">
<mask id="mask0_91_1994" style="mask-type:luminance" maskUnits="userSpaceOnUse" x="5" y="0" width="800" height="768">
<path d="M5.05859 0.197266H804.715V767.822H5.05859V0.197266Z" fill="white"/>
</mask>
<g mask="url(#mask0_91_1994)">
<path d="M76.0945 24.7806L62.0773 47.8014H34.0429L20.0257 24.7858L34.0483 1.76497H62.0773L76.0945 24.7806ZM106.66 26.0723L120.677 49.0931L106.654 72.1087H78.6201L64.6084 49.0931L78.6201 26.0723H106.66ZM123.214 1.7806H151.248L165.265 24.8014L151.248 47.8171H123.208L109.197 24.8014L123.214 1.7806ZM195.825 26.0879L209.843 49.1087L195.82 72.1296H167.797L153.779 49.1087L167.797 26.0879H195.825ZM212.385 1.79622H240.414L254.431 24.8171L240.414 47.8327H212.379L198.362 24.8171L212.385 1.79622ZM284.996 26.1035L299.014 49.1244L284.996 72.1452H256.962L242.945 49.1244L256.962 26.1035H284.996ZM301.55 1.81185H329.585L343.602 24.8327L329.585 47.8483H301.545L287.533 24.8327L301.55 1.81185ZM374.167 26.1243L388.179 49.14L374.162 72.1556H346.133L332.11 49.14L346.133 26.1243H374.167ZM390.721 1.83268H418.756L432.767 24.8483L418.756 47.8639H390.721L376.698 24.8483L390.721 1.83268ZM463.333 26.14L477.35 49.1504L463.327 72.1712H435.298L421.281 49.1556L435.298 26.14H463.333ZM479.887 1.84831H507.915L521.938 24.8639L507.915 47.8796H479.881L465.869 24.8691L479.887 1.84831ZM552.504 26.1556L566.515 49.166L552.498 72.1869H524.464L510.447 49.1712L524.464 26.1556H552.504ZM569.057 1.86393H597.086L611.109 24.8796L597.086 47.8952H569.052L555.035 24.8796L569.057 1.86393ZM641.669 26.1712L655.681 49.1816L641.664 72.2025H613.635L599.623 49.1869L613.635 26.1712H641.669ZM658.228 1.87435H686.257L700.275 24.8952L686.257 47.9108H658.223L644.206 24.8952L658.228 1.87435ZM730.84 26.1868L744.857 49.1973L730.835 72.2181H702.8L688.783 49.2025L702.8 26.1868H730.84ZM747.394 1.88997H775.428L789.44 24.9056L775.428 47.9264H747.388L733.377 24.9108L747.394 1.88997ZM789.281 73.7494L775.264 96.765H747.229L733.212 73.7546L747.229 50.7337H775.264L789.281 73.7494ZM789.116 122.588L775.099 145.609H747.064L733.047 122.593L747.064 99.5723H775.099L789.116 122.588ZM788.957 171.432L774.94 194.447H746.905L732.883 171.432L746.905 148.411H774.94L788.957 171.432ZM788.792 220.27L774.775 243.291H746.741L732.723 220.27L746.741 197.249H774.775L788.792 220.27ZM788.627 269.109L774.61 292.13H746.576L732.559 269.114L746.581 246.093H774.61L788.627 269.109ZM788.468 317.947L774.445 340.968H746.417L732.399 317.952L746.417 294.937H774.445L788.468 317.947ZM788.298 366.791L774.286 389.812H746.252L732.235 366.796L746.257 343.775H774.286L788.298 366.791ZM788.139 415.635L774.122 438.65H746.087L732.075 415.64L746.093 392.619H774.122L788.139 415.635ZM787.98 464.479L773.957 487.494H745.928L731.911 464.479L745.933 441.458H773.957L787.98 464.479ZM787.815 513.317L773.798 536.333H745.763L731.752 513.317L745.763 490.296H773.798L787.815 513.317ZM787.656 562.156L773.633 585.171H745.604L731.587 562.161L745.604 539.135H773.633L787.656 562.156ZM787.491 610.994L773.474 634.01H745.439L731.422 610.999L745.439 587.979H773.474L787.491 610.994ZM787.326 659.838L773.309 682.854H745.275L731.257 659.843L745.275 636.822H773.309L787.326 659.838ZM787.167 708.676L773.15 731.697H745.11L731.098 708.682L745.115 685.661H773.15L787.167 708.676ZM787.002 757.52L772.985 780.536H744.951L730.933 757.52L744.951 734.505H772.985L787.002 757.52ZM700.522 755.989L686.51 732.973L700.522 709.953H728.562L742.573 732.968L728.556 755.989H700.522ZM683.814 780.52H655.78L641.768 757.505L655.785 734.484H683.814L697.831 757.505L683.814 780.52ZM611.356 755.973L597.344 732.958L611.356 709.937H639.391L653.408 732.953L639.385 755.973H611.356ZM594.649 780.51H566.614L552.597 757.489L566.614 734.468H594.649L608.66 757.489L594.649 780.51ZM522.185 755.958L508.168 732.942L522.185 709.921H550.225L564.237 732.937L550.22 755.958H522.185ZM505.478 780.489H477.443L463.432 757.473L477.449 734.453H505.478L519.5 757.473L505.478 780.489ZM433.02 755.942L419.003 732.926L433.02 709.906H461.054L475.071 732.926L461.054 755.942H433.02ZM416.307 780.473H388.278L374.261 757.458L388.278 734.437H416.307L430.329 757.453L416.307 780.473ZM343.854 755.926L329.832 732.906L343.854 709.89H371.889L385.9 732.906L371.883 755.926H343.854ZM327.141 780.458H299.107L285.09 757.442L299.107 734.426H327.141L341.159 757.442L327.141 780.458ZM254.683 755.911L240.666 732.895L254.683 709.874H282.718L296.735 732.89L282.718 755.911H254.683ZM237.97 780.442H209.936L195.924 757.426L209.941 734.411H237.97L251.988 757.426L237.97 780.442ZM165.518 755.895L151.501 732.88L165.518 709.859H193.547L207.564 732.874L193.541 755.895H165.518ZM148.805 780.426H120.771L106.753 757.411L120.771 734.395H148.805L162.822 757.411L148.805 780.426ZM76.3415 755.88L62.3298 732.864L76.3415 709.843H104.381L118.399 732.859L104.376 755.88H76.3415ZM59.634 780.411H31.5996L17.5879 757.4L31.6051 734.38H59.634L73.6567 757.395L59.634 780.411ZM17.7526 708.557L31.7698 685.536H59.7987L73.8159 708.551L59.7987 731.572H31.7643L17.7526 708.557ZM17.9118 659.718L31.929 636.697H59.9634L73.9751 659.713L59.9634 682.729H31.929L17.9118 659.718ZM18.0765 610.874L32.0937 587.854H60.1227L74.1399 610.874L60.1227 633.89H32.0882L18.0765 610.874ZM18.2358 562.036L32.2584 539.015H60.2874L74.3046 562.036L60.2874 585.051H32.253L18.2358 562.036ZM18.4005 513.197L32.4177 490.176H60.4466L74.4638 513.192L60.4466 536.213H32.4177L18.4005 513.197ZM18.5597 464.354L32.5824 441.333H60.6113L74.6285 464.354L60.6113 487.369H32.5824L18.5597 464.354ZM18.7244 415.515L32.7416 392.494H60.776L74.7932 415.51L60.776 438.525H32.7416L18.7244 415.515ZM18.8836 366.671L32.9063 343.65H60.9407L74.9579 366.666L60.9407 389.687H32.9008L18.8836 366.671ZM19.0483 317.833L33.071 294.812H61.1L75.1172 317.827L61.1 340.848H33.0655L19.0483 317.833ZM19.2131 268.989L33.2303 245.968H61.2647L75.2819 268.989L61.2647 292.01H33.2248L19.2131 268.989ZM19.3778 220.15L33.395 197.13H61.4294L75.4466 220.15L61.4294 243.166H33.3895L19.3778 220.15ZM19.5425 171.312L33.5597 148.291H61.5886L75.6058 171.307L61.5886 194.322H33.5542L19.5425 171.312ZM19.7017 122.468L33.7189 99.4473H61.7478L75.7705 122.463L61.7478 145.484H33.7189L19.7017 122.468ZM120.512 97.9316L106.495 120.947H78.4609L64.4437 97.9316L78.4609 74.916H106.501L120.512 97.9316ZM151.083 96.6556H123.049L109.032 73.64L123.049 50.6244H151.083L165.101 73.64L151.083 96.6556ZM209.678 97.9473L195.661 120.968H167.632L153.615 97.9473L167.632 74.9316H195.666L209.678 97.9473ZM240.249 96.6712H212.22L198.203 73.6556L212.22 50.6348H240.249L254.266 73.6556L240.249 96.6712ZM298.849 97.9629L284.832 120.984H256.797L242.78 97.9629L256.797 74.9473H284.832L298.849 97.9629ZM329.42 96.6921H301.385L287.368 73.6712L301.391 50.6504H329.42L343.437 73.6712L329.42 96.6921ZM388.014 97.9785L373.997 120.999H345.968L331.951 97.9785L345.968 74.9629H374.003L388.014 97.9785ZM418.591 96.7077H390.556L376.539 73.6869L390.556 50.6712H418.591L432.608 73.6869L418.591 96.7077ZM477.185 97.9941L463.168 121.015H435.134L421.116 97.9994L435.134 74.9785H463.168L477.185 97.9941ZM507.756 96.7181H479.722L465.71 73.7077L479.727 50.6869H507.756L521.773 73.7025L507.756 96.7181ZM566.356 98.0098L552.339 121.031H524.305L510.282 98.015L524.305 74.9941H552.339L566.356 98.0098ZM596.927 96.7337H568.893L554.876 73.7233L568.893 50.7025H596.927L610.939 73.7181L596.927 96.7337ZM655.522 98.0254L641.504 121.046H613.476L599.458 98.0254L613.476 75.0098H641.504L655.522 98.0254ZM686.093 96.7494H658.058L644.041 73.7389L658.064 50.7181H686.093L700.11 73.7337L686.093 96.7494ZM702.635 121.062L688.624 98.041L702.635 75.0254H730.675L744.693 98.041L730.675 121.062H702.635ZM702.476 169.9L688.459 146.885L702.476 123.864H730.511L744.528 146.88L730.511 169.9H702.476ZM702.317 218.744L688.3 195.723L702.317 172.702H730.351L744.363 195.723L730.346 218.744H702.317ZM702.152 267.583L688.135 244.562L702.152 221.546H730.187L744.204 244.562L730.181 267.583H702.152ZM701.993 316.421L687.97 293.406L701.993 270.385H730.027L744.039 293.4L730.017 316.421H701.993ZM701.828 365.26L687.811 342.244L701.828 319.229H729.863L743.875 342.244L729.857 365.26H701.828ZM701.664 414.104L687.652 391.088L701.664 368.067H729.698L743.715 391.083L729.698 414.104H701.664ZM701.504 462.947L687.487 439.926L701.504 416.911H729.533L743.551 439.926L729.528 462.947H701.504ZM701.34 511.786L687.323 488.77L701.34 465.749H729.374L743.391 488.765L729.369 511.786H701.34ZM701.175 560.624L687.158 537.609L701.175 514.588H729.209L743.227 537.609L729.209 560.624H701.175ZM701.01 609.463L686.999 586.447L701.01 563.432H729.045L743.067 586.442L729.045 609.463H701.01ZM700.851 658.307L686.834 635.291L700.851 612.27H728.885L742.903 635.286L728.885 658.307H700.851ZM686.669 684.13L700.686 661.114H728.721L742.743 684.13L728.721 707.145H700.686L686.669 684.13ZM655.95 685.645H683.973L697.996 708.666L683.973 731.682H655.944L641.927 708.666L655.95 685.645ZM597.504 684.119L611.521 661.098H639.555L653.567 684.114L639.55 707.135H611.521L597.504 684.119ZM566.773 685.63H594.808L608.831 708.65L594.808 731.666H566.773L552.756 708.65L566.773 685.63ZM508.333 684.104L522.35 661.083H550.384L564.402 684.098L550.384 707.119H522.35L508.333 684.104ZM477.608 685.614H505.642L519.66 708.635L505.642 731.65H477.603L463.591 708.635L477.608 685.614ZM419.167 684.088L433.179 661.067H461.219L475.236 684.083L461.213 707.104H433.179L419.167 684.088ZM388.443 685.598H416.477L430.489 708.614L416.477 731.635H388.443L374.42 708.619L388.443 685.598ZM329.996 684.072L344.014 661.051H372.048L386.065 684.067L372.048 707.088H344.014L329.996 684.072ZM299.272 685.583H327.306L341.323 708.598L327.306 731.619H299.266L285.254 708.604L299.272 685.583ZM240.831 684.051L254.843 661.036H282.877L296.9 684.051L282.877 707.072H254.843L240.831 684.051ZM210.106 685.567H238.135L252.152 708.583L238.135 731.604H210.101L196.089 708.588L210.106 685.567ZM151.66 684.036L165.677 661.02H193.712L207.729 684.036L193.706 707.057H165.677L151.66 684.036ZM120.935 685.551H148.97L162.987 708.567L148.97 731.588H120.93L106.918 708.572L120.935 685.551ZM104.546 661.005L118.563 684.02L104.541 707.036H76.5062L62.489 684.02L76.5062 661.005H104.546ZM104.705 612.161L118.723 635.182L104.705 658.203H76.671L62.6538 635.182L76.671 612.161H104.705ZM104.87 563.322L118.887 586.338L104.87 609.359H76.8357L62.8185 586.343L76.8357 563.322H104.87ZM105.029 514.484L119.052 537.499L105.029 560.52H76.9949L62.9832 537.499L76.9949 514.484H105.029ZM105.194 465.645L119.211 488.656L105.189 511.676H77.1596L63.1424 488.661L77.1596 465.645H105.194ZM105.359 416.801L119.37 439.817L105.353 462.833H77.3243L63.3071 439.817L77.3243 416.801H105.359ZM105.518 367.958L119.535 390.973L105.512 413.994H77.4836L63.4718 390.979L77.4836 367.958H105.518ZM105.683 319.119L119.694 342.135L105.677 365.156H77.6483L63.6311 342.135L77.6483 319.119H105.683ZM105.847 270.281L119.859 293.296L105.842 316.317H77.813L63.7958 293.296L77.813 270.281H105.847ZM106.007 221.442L120.024 244.452L106.001 267.473H77.9777L63.955 244.458L77.9777 221.442H106.007ZM106.171 172.598L120.183 195.614L106.166 218.635H78.1369L64.1197 195.614L78.1369 172.598H106.171ZM120.348 146.77L106.331 169.791H78.2962L64.2789 146.775L78.2962 123.76H106.336L120.348 146.77ZM150.924 145.499H122.884L108.867 122.484L122.89 99.4629H150.924L164.936 122.479L150.924 145.499ZM209.519 146.786L195.496 169.807H167.467L153.45 146.791L167.467 123.775H195.501L209.519 146.786ZM240.09 145.51H212.055L198.038 122.499L212.061 99.4785H240.09L254.107 122.494L240.09 145.51ZM298.69 146.801L284.667 169.822H256.633L242.615 146.807L256.633 123.786H284.672L298.69 146.801ZM329.261 145.531H301.221L287.209 122.515L301.226 99.4941H329.261L343.278 122.51L329.261 145.531ZM387.855 146.817L373.832 169.838H345.803L331.786 146.817L345.803 123.801H373.838L387.855 146.817ZM418.426 145.546H390.392L376.374 122.531L390.397 99.5098H418.426L432.443 122.525L418.426 145.546ZM477.026 146.833L463.009 169.854H434.974L420.957 146.833L434.974 123.817H463.009L477.026 146.833ZM507.592 145.562H479.557L465.545 122.546L479.563 99.5254H507.592L521.614 122.541L507.592 145.562ZM566.191 146.854L552.169 169.869H524.14L510.123 146.854L524.14 123.833H552.174L566.191 146.854ZM596.763 145.577H568.728L554.711 122.562L568.734 99.541H596.763L610.78 122.562L596.763 145.577ZM655.362 146.864L641.34 169.885H613.311L599.294 146.869L613.311 123.848H641.34L655.362 146.864ZM657.893 145.593L643.882 122.577L657.904 99.5566H685.928L699.951 122.577L685.928 145.593H657.893ZM657.734 194.432L643.717 171.416L657.74 148.395H685.769L699.786 171.416L685.769 194.432H657.734ZM657.57 243.27L643.558 220.26L657.575 197.234H685.604L699.621 220.255L685.604 243.27H657.57ZM657.405 292.114L643.393 269.098L657.41 246.077H685.445L699.462 269.093L685.445 292.114H657.405ZM657.246 340.952L643.228 317.942L657.251 294.921H685.28L699.297 317.937L685.28 340.952H657.246ZM657.081 389.796L643.069 366.781L657.081 343.76H685.121L699.133 366.781L685.121 389.796H657.081ZM656.922 438.64L642.899 415.624L656.922 392.604H684.956L698.973 415.619L684.956 438.64H656.922ZM656.757 487.479L642.74 464.458L656.757 441.442H684.791L698.809 464.458L684.791 487.479H656.757ZM656.598 536.317L642.575 513.301L656.598 490.281H684.632L698.644 513.296L684.632 536.317H656.598ZM656.433 585.156L642.416 562.145L656.439 539.124H684.462L698.485 562.14L684.462 585.156H656.433ZM656.268 633.999L642.257 610.984L656.274 587.963H684.303L698.32 610.984L684.303 633.999H656.268ZM656.115 636.807H684.143L698.155 659.822L684.143 682.838H656.104L642.092 659.828L656.115 636.807ZM597.668 635.275L611.686 612.26H639.715L653.732 635.27L639.715 658.291H611.686L597.668 635.275ZM566.938 636.791H594.973L608.99 659.807L594.973 682.822H566.938L552.921 659.812L566.938 636.791ZM508.497 635.26L522.515 612.244H550.549L564.566 635.255L550.544 658.275H522.515L508.497 635.26ZM477.773 636.775H505.802L519.819 659.791L505.802 682.807H477.767L463.756 659.796L477.773 636.775ZM419.327 635.244L433.344 612.229H461.378L475.395 635.244L461.373 658.26H433.344L419.327 635.244ZM388.602 636.76H416.636L430.653 659.775L416.636 682.796H388.602L374.585 659.775L388.602 636.76ZM330.161 635.229L344.178 612.213H372.213L386.23 635.229L372.207 658.244H344.178L330.161 635.229ZM299.436 636.744H327.465L341.488 659.76L327.465 682.781H299.431L285.419 659.76L299.436 636.744ZM240.99 635.213L255.007 612.197H283.042L297.059 635.213L283.042 658.234H255.007L240.99 635.213ZM210.271 636.729H238.3L252.312 659.744L238.3 682.765H210.265L196.248 659.744L210.271 636.729ZM151.825 635.197L165.842 612.176H193.876L207.888 635.197L193.871 658.218H165.842L151.825 635.197ZM149.134 636.713L163.146 659.729L149.134 682.744H121.094L107.077 659.729L121.1 636.713H149.134ZM149.294 587.869L163.311 610.89L149.294 633.906H121.259L107.242 610.89L121.259 587.869H149.294ZM149.458 539.031L163.476 562.051L149.458 585.067H121.418L107.407 562.051L121.424 539.031H149.458ZM149.618 490.192L163.635 513.208L149.618 536.223H121.583L107.571 513.213L121.589 490.192H149.618ZM149.777 441.348L163.799 464.364L149.777 487.385H121.748L107.731 464.369L121.748 441.348H149.777ZM149.941 392.51L163.959 415.525L149.941 438.541H121.907L107.895 415.531L121.913 392.51H149.941ZM150.106 343.666L164.123 366.682L150.106 389.702H122.072L108.06 366.687L122.077 343.666H150.106ZM150.271 294.822L164.288 317.843L150.271 340.864H122.236L108.219 317.843L122.242 294.822H150.271ZM150.43 245.989L164.447 269.005L150.43 292.02H122.401L108.384 269.005L122.401 245.989H150.43ZM150.595 197.145L164.612 220.166L150.595 243.182H122.56L108.543 220.166L122.566 197.145H150.595ZM150.76 194.338H122.725L108.708 171.327L122.725 148.307H150.76L164.777 171.322L150.76 194.338ZM209.354 195.624L195.337 218.65H167.302L153.291 195.63L167.302 172.614H195.337L209.354 195.624ZM239.925 194.354H211.891L197.879 171.343L211.896 148.322H239.925L253.942 171.338L239.925 194.354ZM298.525 195.64L284.502 218.661H256.473L242.456 195.645L256.473 172.63H284.508L298.525 195.64ZM329.096 194.369H301.056L287.044 171.354L301.062 148.338H329.096L343.113 171.354L329.096 194.369ZM387.69 195.656L373.673 218.676H345.644L331.627 195.661L345.644 172.645H373.673L387.69 195.656ZM418.261 194.385H390.227L376.215 171.369L390.232 148.348H418.261L432.279 171.369L418.261 194.385ZM476.861 195.671L462.844 218.692H434.81L420.792 195.676L434.81 172.661H462.844L476.861 195.671ZM507.432 194.4H479.392L465.381 171.385L479.398 148.364H507.432L521.45 171.385L507.432 194.4ZM566.027 195.692L552.01 218.708H523.981L509.963 195.692L523.981 172.676H552.015L566.027 195.692ZM596.598 194.416H568.569L554.546 171.4L568.569 148.38H596.598L610.62 171.4L596.598 194.416ZM613.146 218.729L599.134 195.708L613.146 172.687H641.18L655.198 195.708L641.18 218.729H613.146ZM612.987 267.567L598.964 244.546L612.987 221.531H641.016L655.038 244.546L641.016 267.567H612.987ZM612.817 316.406L598.799 293.39L612.817 270.374H640.857L654.874 293.385L640.851 316.406H612.817ZM612.657 365.249L598.64 342.229L612.657 319.213H640.697L654.709 342.229L640.692 365.249H612.657ZM612.493 414.088L598.476 391.072L612.493 368.057H640.533L654.55 391.067L640.527 414.088H612.493ZM612.333 462.932L598.316 439.916L612.333 416.895H640.368L654.385 439.911L640.362 462.932H612.333ZM612.169 511.77L598.152 488.749L612.169 465.734H640.203L654.22 488.749L640.203 511.77H612.169ZM612.01 560.609L597.987 537.593L612.01 514.578H640.044L654.056 537.588L640.038 560.609H612.01ZM597.828 586.432L611.845 563.416H639.879L653.896 586.432L639.879 609.453H611.845L597.828 586.432ZM567.103 587.947H595.137L609.154 610.968L595.137 633.984H567.097L553.086 610.968L567.103 587.947ZM508.657 586.416L522.674 563.4H550.714L564.726 586.416L550.714 609.437H522.674L508.657 586.416ZM477.937 587.932H505.966L519.984 610.953L505.966 633.968H477.932L463.92 610.953L477.937 587.932ZM419.491 586.4L433.508 563.385H461.543L475.555 586.4L461.543 609.421H433.508L419.491 586.4ZM388.767 587.916H416.801L430.818 610.937L416.801 633.953H388.767L374.744 610.942L388.767 587.916ZM330.32 586.39L344.338 563.369H372.377L386.389 586.385L372.372 609.406H344.338L330.32 586.39ZM299.601 587.906H327.63L341.647 610.921L327.63 633.937H299.596L285.578 610.921L299.601 587.906ZM241.155 586.374L255.172 563.359H283.206L297.224 586.369L283.201 609.39H255.172L241.155 586.374ZM210.43 587.885H238.459L252.476 610.906L238.459 633.921H210.43L196.413 610.906L210.43 587.885ZM194.036 563.338L208.053 586.354L194.036 609.374H166.007L151.984 586.359L166.007 563.338H194.036ZM194.2 514.499L208.217 537.515L194.195 560.536H166.166L152.149 537.515L166.166 514.499H194.2ZM194.365 465.661L208.377 488.671L194.359 511.692H166.325L152.308 488.676L166.325 465.661H194.365ZM194.53 416.817L208.541 439.833L194.524 462.848H166.49L152.473 439.833L166.49 416.817H194.53ZM194.689 367.973L208.706 390.989L194.689 414.01H166.654L152.637 390.994L166.654 367.973H194.689ZM194.848 319.135L208.871 342.15L194.848 365.171H166.814L152.802 342.15L166.814 319.135H194.848ZM195.013 270.296L209.03 293.307L195.013 316.333H166.978L152.961 293.312L166.978 270.296H195.013ZM209.195 244.468L195.172 267.489H167.143L153.126 244.473L167.143 221.458H195.178L209.195 244.468ZM239.76 243.197H211.726L197.714 220.182L211.731 197.161H239.76L253.783 220.176L239.76 243.197ZM298.36 244.484L284.343 267.505H256.309L242.291 244.489L256.309 221.468H284.349L298.36 244.484ZM328.931 243.213H300.897L286.88 220.197L300.902 197.176H328.931L342.948 220.192L328.931 243.213ZM387.526 244.499L373.508 267.52H345.48L331.462 244.505L345.48 221.484H373.514L387.526 244.499ZM418.102 243.223H390.068L376.051 220.213L390.073 197.192H418.102L432.114 220.208L418.102 243.223ZM476.697 244.515L462.679 267.536H434.645L420.628 244.52L434.645 221.499H462.685L476.697 244.515ZM507.273 243.239H479.233L465.221 220.229L479.239 197.208H507.273L521.285 220.223L507.273 243.239ZM565.868 244.531L551.845 267.551H523.821L509.799 244.536L523.821 221.515H551.85L565.868 244.531ZM568.404 243.255L554.387 220.244L568.404 197.223H596.439L610.45 220.239L596.439 243.255H568.404ZM568.239 292.098L554.228 269.083L568.245 246.062H596.274L610.291 269.077L596.274 292.098H568.239ZM568.075 340.937L554.063 317.926L568.08 294.906H596.109L610.126 317.921L596.109 340.937H568.075ZM567.915 389.781L553.904 366.765L567.921 343.744H595.95L609.967 366.765L595.95 389.781H567.915ZM567.751 438.624L553.734 415.604L567.756 392.588H595.785L609.802 415.604L595.785 438.624H567.751ZM567.586 487.463L553.574 464.442L567.592 441.426H595.62L609.643 464.442L595.62 487.463H567.586ZM567.421 536.301L553.41 513.286L567.427 490.265H595.461L609.484 513.281L595.461 536.301H567.421ZM567.268 539.109H595.297L609.319 562.124L595.297 585.14H567.262L553.245 562.13L567.268 539.109ZM508.821 537.578L522.839 514.562H550.873L564.89 537.572L550.873 560.593H522.839L508.821 537.578ZM478.102 539.093H506.131L520.143 562.109L506.131 585.124H478.097L464.079 562.114L478.102 539.093ZM419.656 537.562L433.673 514.546H461.708L475.719 537.557L461.702 560.578H433.673L419.656 537.562ZM388.931 539.078H416.966L430.977 562.093L416.966 585.109H388.926L374.909 562.098L388.931 539.078ZM330.485 537.546L344.502 514.531H372.537L386.554 537.541L372.537 560.562H344.502L330.485 537.546ZM299.76 539.062H327.789L341.812 562.083L327.789 585.098H299.755L285.743 562.083L299.76 539.062ZM241.32 537.531L255.337 514.515H283.366L297.383 537.531L283.366 560.551H255.337L241.32 537.531ZM238.624 539.046L252.641 562.067L238.624 585.083H210.589L196.572 562.067L210.589 539.046H238.624ZM238.788 490.208L252.806 513.223L238.788 536.239H210.754L196.737 513.223L210.754 490.208H238.788ZM238.953 441.364L252.965 464.38L238.953 487.4H210.913L196.896 464.385L210.919 441.364H238.953ZM239.112 392.525L253.13 415.541L239.112 438.557H211.078L197.061 415.541L211.078 392.525H239.112ZM239.277 343.682L253.294 366.697L239.277 389.718H211.237L197.226 366.702L211.243 343.682H239.277ZM239.436 294.843L253.459 317.859L239.436 340.88H211.402L197.385 317.859L211.407 294.843H239.436ZM239.601 292.036H211.567L197.549 269.025L211.567 246.005H239.601L253.618 269.02L239.601 292.036ZM298.195 293.327L284.178 316.348H256.149L242.127 293.327L256.149 270.312H284.184L298.195 293.327ZM328.772 292.051H300.738L286.715 269.041L300.738 246.02H328.772L342.784 269.036L328.772 292.051ZM387.366 293.338L373.344 316.364H345.315L331.303 293.343L345.315 270.327H373.349L387.366 293.338ZM417.937 292.067H389.903L375.891 269.057L389.909 246.031H417.937L431.955 269.051L417.937 292.067ZM476.537 293.354L462.515 316.374H434.48L420.469 293.359L434.48 270.343H462.52L476.537 293.354ZM507.108 292.083H479.068L465.051 269.067L479.074 246.046H507.108L521.126 269.062L507.108 292.083ZM523.651 316.39L509.639 293.374L523.651 270.359H551.686L565.703 293.369L551.68 316.39H523.651ZM523.492 365.234L509.475 342.213L523.492 319.197H551.526L565.538 342.213L551.521 365.234H523.492ZM523.327 414.072L509.31 391.057L523.327 368.041H551.356L565.379 391.051L551.356 414.072H523.327ZM523.163 462.916L509.151 439.895L523.163 416.88H551.197L565.214 439.895L551.197 462.916H523.163ZM508.986 488.734L523.003 465.718H551.032L565.055 488.734L551.032 511.755H523.003L508.986 488.734ZM478.261 490.249H506.29L520.307 513.265L506.29 536.286H478.256L464.244 513.27L478.261 490.249ZM419.815 488.718L433.838 465.702H461.867L475.884 488.718L461.861 511.739H433.838L419.815 488.718ZM389.09 490.234H417.125L431.142 513.255L417.125 536.27H389.085L375.073 513.255L389.09 490.234ZM330.65 488.708L344.661 465.687H372.701L386.719 488.702L372.696 511.723H344.661L330.65 488.708ZM299.925 490.223H327.954L341.971 513.239L327.954 536.255H299.919L285.908 513.239L299.925 490.223ZM283.53 465.676L297.542 488.687L283.525 511.708H255.496L241.479 488.692L255.496 465.676H283.53ZM283.695 416.833L297.707 439.848L283.69 462.864H255.661L241.644 439.848L255.661 416.833H283.695ZM283.86 367.989L297.872 391.01L283.854 414.025H255.825L241.803 391.01L255.825 367.989H283.86ZM298.036 342.166L284.014 365.187H255.985L241.967 342.171L255.985 319.15H284.019L298.036 342.166ZM328.607 340.895H300.573L286.556 317.88L300.573 294.859H328.607L342.624 317.874L328.607 340.895ZM387.207 342.182L373.185 365.202H345.156L331.138 342.182L345.156 319.166H373.185L387.207 342.182ZM417.773 340.906H389.738L375.727 317.895L389.744 294.874H417.773L431.795 317.89L417.773 340.906ZM476.373 342.197L462.355 365.218H434.321L420.304 342.197L434.321 319.182H462.361L476.373 342.197ZM478.909 340.921L464.892 317.911L478.909 294.89H506.944L520.961 317.906L506.944 340.921H478.909ZM478.75 389.765L464.727 366.749L478.75 343.729H506.784L520.802 366.749L506.784 389.765H478.75ZM478.585 438.609L464.568 415.588L478.585 392.567H506.614L520.637 415.588L506.614 438.609H478.585ZM478.426 441.411H506.455L520.472 464.426L506.455 487.447H478.421L464.403 464.432L478.426 441.411ZM419.98 439.88L433.997 416.859H462.032L476.043 439.88L462.026 462.9H433.997L419.98 439.88ZM389.255 441.395H417.29L431.301 464.411L417.29 487.426H389.25L375.238 464.416L389.255 441.395ZM330.809 439.864L344.826 416.848H372.861L386.878 439.864L372.861 462.885H344.826L330.809 439.864ZM328.119 441.38L342.136 464.395L328.119 487.416H300.084L286.067 464.4L300.09 441.38H328.119ZM328.278 392.536L342.295 415.557L328.278 438.572H300.249L286.232 415.557L300.249 392.536H328.278ZM328.443 389.734H300.408L286.391 366.718L300.414 343.697H328.443L342.46 366.718L328.443 389.734ZM387.042 391.025L373.025 414.046H344.991L330.974 391.025L344.991 368.005H373.025L387.042 391.025ZM417.613 389.749H389.579L375.562 366.734L389.579 343.713H417.613L431.631 366.734L417.613 389.749ZM431.466 415.572L417.449 438.593H389.414L375.397 415.572L389.414 392.551H417.449L431.466 415.572ZM420.139 391.041L434.162 368.02H462.191L476.208 391.041L462.191 414.057H434.162L420.139 391.041ZM19.8664 73.6244L33.8836 50.6035H61.9125L75.9297 73.6244L61.9125 96.64H33.8781L19.8664 73.6244ZM31.649 0.197266L31.6655 0.233723L17.6483 23.2546H5.05859V26.0618H17.489L31.5063 49.0723L17.4836 72.0931H5.05859V74.9004H17.3243L31.3415 97.9108L17.3243 120.932H5.05859V123.744H17.1651L31.1823 146.755L17.1596 169.775H5.05859V172.583H17.0004L31.0176 195.598L17.0004 218.619H5.05859V221.421H16.8412L30.8584 244.437L16.8357 267.458H5.05859V270.26H16.6765L30.6937 293.281L16.6765 316.301H5.05859V319.104H16.5172L30.5289 342.119L16.5117 365.14H5.05859V367.942H16.3525L30.3697 390.958L16.347 413.979H5.05859V416.786H16.1878L30.205 439.801L16.1878 462.822H5.05859V465.63H16.0286L30.0403 488.64L16.0231 511.661H5.05859V514.468H15.8639L29.8756 537.484L15.8584 560.505H5.05859V563.307H15.6992L29.7164 586.322L15.6992 609.343H5.05859V612.145H15.5399L29.5516 635.166L15.5344 658.182H5.05859V660.989H15.3752L29.3869 684.005L15.3697 707.025H5.05859V709.833H15.2105L29.2277 732.843L15.2105 755.864H5.05859V758.671H15.0458L29.0685 781.687L28.9751 781.833H62.2475L62.1651 781.703L76.1823 758.687H104.222L118.234 781.703L118.152 781.833H151.407L151.336 781.718L165.353 758.703H193.388L207.399 781.713L207.328 781.833H240.567L240.501 781.734L254.519 758.718H282.559L296.57 781.729L296.504 781.833H329.727L329.672 781.749L343.69 758.734H371.724L385.736 781.744L385.686 781.833H418.882L418.838 781.765L432.855 758.749H460.889L474.907 781.765L474.863 781.833H508.042L508.009 781.781L522.026 758.76H550.06L564.078 781.781L564.039 781.833H597.202L597.174 781.796L611.197 758.775H639.226L653.243 781.796L653.221 781.833H686.356L686.345 781.812L700.362 758.796H728.402L742.414 781.812L742.398 781.833H775.516V781.828L789.533 758.812H804.72V756.005H789.693L775.675 732.989L789.693 709.968H804.72V707.161H789.857L775.84 684.145L789.857 661.13H804.72V658.322H790.022L775.999 635.301L790.022 612.286H804.72V609.479H790.181L776.164 586.463L790.181 563.447H804.72V560.645H790.346L776.329 537.624L790.346 514.604H804.72V511.801H790.505L776.488 488.786L790.505 465.765H804.72V462.958H790.67L776.653 439.942L790.67 416.926H804.72V414.119H790.829L776.817 391.104L790.829 368.083H804.72V365.275H790.994L776.977 342.26L790.994 319.244H804.72V316.437H791.159L777.141 293.416L791.159 270.4H804.72V267.598H791.318L777.306 244.577L791.318 221.562H804.72V218.76H791.488L777.465 195.739L791.488 172.723H804.72V169.916H791.647L777.63 146.9L791.647 123.885H804.72V121.072H791.812L777.795 98.0566L791.812 75.041H804.72V72.2337H791.977L777.954 49.2181L791.977 26.1973H804.72V23.39H792.136L778.119 0.374348L778.223 0.197266H744.918L745.022 0.358723L730.999 23.3796H702.965L688.948 0.358723L689.047 0.197266H655.758L655.846 0.343098L641.828 23.3639H613.799L599.782 0.343098L599.87 0.197266H566.598L566.68 0.327474L552.663 23.3483H524.629L510.611 0.332682L510.694 0.197266H477.438L477.509 0.311848L463.492 23.3327H435.463L421.446 0.317056L421.517 0.197266H388.278L388.344 0.296223L374.327 23.3171H346.292L332.275 0.301431L332.341 0.197266H299.123L299.178 0.280599L285.156 23.3014H257.121L243.109 0.285807L243.159 0.197266H209.963L210.007 0.264974L195.985 23.2858H167.956L153.939 0.270182L153.982 0.197266H120.803L120.836 0.249348L106.819 23.2702H78.7848L64.7676 0.254556L64.806 0.197266H31.649Z" fill="#FAC858"/>
</g>
<mask id="mask1_91_1994" style="mask-type:luminance" maskUnits="userSpaceOnUse" x="804" y="0" width="641" height="768">
<path d="M804.715 0.197266H1444.3V767.822H804.715V0.197266Z" fill="white"/>
</mask>
<g mask="url(#mask1_91_1994)">
<path d="M875.751 24.7806L861.733 47.8014H833.693L819.676 24.7858L833.699 1.76497H861.733L875.751 24.7806ZM906.311 26.0723L920.328 49.0931L906.305 72.1087H878.276L864.259 49.0931L878.276 26.0723H906.311ZM922.87 1.7806H950.899L964.916 24.8014L950.899 47.8171H922.864L908.847 24.8014L922.87 1.7806ZM995.476 26.0879L1009.5 49.1087L995.476 72.1296H967.447L953.43 49.1087L967.447 26.0879H995.476ZM1012.04 1.79622H1040.06L1054.09 24.8171L1040.06 47.8327H1012.03L998.018 24.8171L1012.04 1.79622ZM1084.65 26.1035L1098.66 49.1244L1084.65 72.1452H1056.61L1042.6 49.1244L1056.61 26.1035H1084.65ZM1101.2 1.81185H1129.24L1143.25 24.8327L1129.24 47.8483H1101.2L1087.18 24.8327L1101.2 1.81185ZM1173.82 26.1243L1187.83 49.14L1173.81 72.1556H1145.78L1131.77 49.14L1145.78 26.1243H1173.82ZM1190.37 1.83268H1218.41L1232.42 24.8483L1218.41 47.8639H1190.37L1176.35 24.8483L1190.37 1.83268ZM1262.99 26.14L1277 49.1504L1262.98 72.1712H1234.95L1220.93 49.1556L1234.95 26.14H1262.99ZM1279.54 1.84831H1307.57L1321.59 24.8639L1307.57 47.8796H1279.54L1265.52 24.8691L1279.54 1.84831ZM1352.15 26.1556L1366.17 49.166L1352.15 72.1869H1324.12L1310.1 49.1712L1324.12 26.1556H1352.15ZM1368.71 1.86393H1396.74L1410.76 24.8796L1396.74 47.8952H1368.71L1354.69 24.8796L1368.71 1.86393ZM1441.32 26.1712L1455.34 49.1816L1441.32 72.2025H1413.29L1399.27 49.1869L1413.29 26.1712H1441.32ZM1457.88 1.87435H1485.91L1499.93 24.8952L1485.91 47.9108H1457.87L1443.86 24.8952L1457.88 1.87435ZM1530.49 26.1868L1544.51 49.1973L1530.49 72.2181H1502.46L1488.44 49.2025L1502.46 26.1868H1530.49ZM1547.04 1.88997H1575.08L1589.09 24.9056L1575.08 47.9264H1547.04L1533.03 24.9108L1547.04 1.88997ZM1588.93 73.7494L1574.91 96.765H1546.89L1532.86 73.7546L1546.89 50.7337H1574.91L1588.93 73.7494ZM1588.77 122.588L1574.75 145.609H1546.72L1532.7 122.593L1546.72 99.5723H1574.75L1588.77 122.588ZM1588.61 171.432L1574.59 194.447H1546.56L1532.54 171.432L1546.56 148.411H1574.59L1588.61 171.432ZM1588.44 220.27L1574.43 243.291H1546.39L1532.37 220.27L1546.4 197.249H1574.43L1588.44 220.27ZM1588.28 269.109L1574.26 292.13H1546.23L1532.21 269.114L1546.23 246.093H1574.26L1588.28 269.109ZM1588.12 317.947L1574.1 340.968H1546.07L1532.05 317.952L1546.07 294.937H1574.1L1588.12 317.947ZM1587.95 366.791L1573.94 389.812H1545.9L1531.89 366.796L1545.91 343.775H1573.94L1587.95 366.791ZM1587.79 415.635L1573.78 438.65H1545.74L1531.73 415.64L1545.74 392.619H1573.78L1587.79 415.635ZM1587.63 464.479L1573.61 487.494H1545.58L1531.56 464.479L1545.58 441.458H1573.61L1587.63 464.479ZM1587.47 513.317L1573.45 536.333H1545.41L1531.4 513.317L1545.41 490.296H1573.45L1587.47 513.317ZM1587.31 562.156L1573.29 585.171H1545.25L1531.24 562.161L1545.25 539.135H1573.29L1587.31 562.156ZM1587.14 610.994L1573.12 634.01H1545.09L1531.07 610.999L1545.09 587.979H1573.12L1587.14 610.994ZM1586.98 659.838L1572.97 682.854H1544.93L1530.91 659.843L1544.93 636.822H1572.97L1586.98 659.838ZM1586.82 708.676L1572.8 731.697H1544.77L1530.75 708.682L1544.77 685.661H1572.8L1586.82 708.676ZM1586.65 757.52L1572.64 780.536H1544.6L1530.59 757.52L1544.61 734.505H1572.64L1586.65 757.52ZM1500.18 755.989L1486.16 732.973L1500.18 709.953H1528.21L1542.22 732.968L1528.21 755.989H1500.18ZM1483.47 780.52H1455.43L1441.42 757.505L1455.44 734.484H1483.47L1497.48 757.505L1483.47 780.52ZM1411.01 755.973L1397 732.958L1411.01 709.937H1439.05L1453.06 732.953L1439.04 755.973H1411.01ZM1394.3 780.51H1366.26L1352.25 757.489L1366.27 734.468H1394.3L1408.32 757.489L1394.3 780.51ZM1321.84 755.958L1307.82 732.942L1321.84 709.921H1349.88L1363.89 732.937L1349.87 755.958H1321.84ZM1305.13 780.489H1277.1L1263.08 757.473L1277.1 734.453H1305.13L1319.15 757.473L1305.13 780.489ZM1232.67 755.942L1218.65 732.926L1232.67 709.906H1260.71L1274.72 732.926L1260.7 755.942H1232.67ZM1215.96 780.473H1187.93L1173.91 757.458L1187.93 734.437H1215.96L1229.98 757.453L1215.96 780.473ZM1143.51 755.926L1129.49 732.906L1143.51 709.89H1171.54L1185.56 732.906L1171.53 755.926H1143.51ZM1126.79 780.458H1098.76L1084.75 757.442L1098.76 734.426H1126.79L1140.81 757.442L1126.79 780.458ZM1054.34 755.911L1040.32 732.895L1054.34 709.874H1082.37L1096.39 732.89L1082.37 755.911H1054.34ZM1037.63 780.442H1009.59L995.575 757.426L1009.59 734.411H1037.63L1051.64 757.426L1037.63 780.442ZM965.169 755.895L951.151 732.88L965.169 709.859H993.203L1007.22 732.874L993.198 755.895H965.169ZM948.456 780.426H920.421L906.409 757.411L920.427 734.395H948.456L962.473 757.411L948.456 780.426ZM875.998 755.88L861.98 732.864L875.998 709.843H904.032L918.049 732.859L904.027 755.88H875.998ZM859.29 780.411H831.256L817.239 757.4L831.256 734.38H859.29L873.307 757.395L859.29 780.411ZM817.403 708.557L831.42 685.536H859.455L873.472 708.551L859.455 731.572H831.415L817.403 708.557ZM817.562 659.718L831.58 636.697H859.614L873.631 659.713L859.614 682.729H831.58L817.562 659.718ZM817.727 610.874L831.744 587.854H859.779L873.796 610.874L859.779 633.89H831.739L817.727 610.874ZM817.892 562.036L831.909 539.015H859.938L873.961 562.036L859.938 585.051H831.904L817.892 562.036ZM818.051 513.197L832.074 490.176H860.103L874.12 513.192L860.103 536.213H832.068L818.051 513.197ZM818.216 464.354L832.233 441.333H860.262L874.279 464.354L860.262 487.369H832.233L818.216 464.354ZM818.381 415.515L832.398 392.494H860.427L874.444 415.51L860.427 438.525H832.392L818.381 415.515ZM818.54 366.671L832.562 343.65H860.591L874.609 366.666L860.591 389.687H832.557L818.54 366.671ZM818.704 317.833L832.722 294.812H860.751L874.768 317.827L860.751 340.848H832.722L818.704 317.833ZM818.864 268.989L832.886 245.968H860.915L874.933 268.989L860.915 292.01H832.881L818.864 268.989ZM819.028 220.15L833.046 197.13H861.08L875.097 220.15L861.08 243.166H833.046L819.028 220.15ZM819.193 171.312L833.21 148.291H861.245L875.256 171.307L861.245 194.322H833.21L819.193 171.312ZM819.352 122.468L833.37 99.4473H861.404L875.421 122.463L861.404 145.484H833.37L819.352 122.468ZM920.163 97.9316L906.146 120.947H878.117L864.1 97.9316L878.117 74.916H906.151L920.163 97.9316ZM950.734 96.6556H922.7L908.688 73.64L922.705 50.6244H950.734L964.751 73.64L950.734 96.6556ZM1009.33 97.9473L995.317 120.968H967.282L953.265 97.9473L967.282 74.9316H995.317L1009.33 97.9473ZM1039.91 96.6712H1011.87L997.853 73.6556L1011.87 50.6348H1039.91L1053.92 73.6556L1039.91 96.6712ZM1098.5 97.9629L1084.48 120.984H1056.45L1042.43 97.9629L1056.45 74.9473H1084.49L1098.5 97.9629ZM1129.07 96.6921H1101.04L1087.02 73.6712L1101.04 50.6504H1129.07L1143.09 73.6712L1129.07 96.6921ZM1187.67 97.9785L1173.65 120.999H1145.62L1131.6 97.9785L1145.62 74.9629H1173.65L1187.67 97.9785ZM1218.24 96.7077H1190.21L1176.2 73.6869L1190.21 50.6712H1218.24L1232.26 73.6869L1218.24 96.7077ZM1276.84 97.9941L1262.82 121.015H1234.78L1220.77 97.9994L1234.78 74.9785H1262.82L1276.84 97.9941ZM1307.41 96.7181H1279.37L1265.36 73.7077L1279.38 50.6869H1307.41L1321.42 73.7025L1307.41 96.7181ZM1366.01 98.0098L1351.99 121.031H1323.96L1309.94 98.015L1323.96 74.9941H1351.99L1366.01 98.0098ZM1396.58 96.7337H1368.54L1354.53 73.7233L1368.55 50.7025H1396.58L1410.6 73.7181L1396.58 96.7337ZM1455.17 98.0254L1441.16 121.046H1413.13L1399.11 98.0254L1413.13 75.0098H1441.16L1455.17 98.0254ZM1485.75 96.7494H1457.71L1443.69 73.7389L1457.71 50.7181H1485.75L1499.77 73.7337L1485.75 96.7494ZM1502.29 121.062L1488.27 98.041L1502.29 75.0254H1530.33L1544.34 98.041L1530.33 121.062H1502.29ZM1502.13 169.9L1488.12 146.885L1502.13 123.864H1530.16L1544.18 146.88L1530.16 169.9H1502.13ZM1501.97 218.744L1487.96 195.723L1501.97 172.702H1530L1544.01 195.723L1530 218.744H1501.97ZM1501.81 267.583L1487.79 244.562L1501.81 221.546H1529.84L1543.85 244.562L1529.83 267.583H1501.81ZM1501.64 316.421L1487.63 293.406L1501.64 270.385H1529.68L1543.7 293.4L1529.67 316.421H1501.64ZM1501.48 365.26L1487.46 342.244L1501.48 319.229H1529.51L1543.53 342.244L1529.51 365.26H1501.48ZM1501.31 414.104L1487.3 391.088L1501.31 368.067H1529.35L1543.37 391.083L1529.35 414.104H1501.31ZM1501.16 462.947L1487.14 439.926L1501.16 416.911H1529.19L1543.21 439.926L1529.18 462.947H1501.16ZM1500.99 511.786L1486.97 488.77L1500.99 465.749H1529.03L1543.04 488.765L1529.02 511.786H1500.99ZM1500.83 560.624L1486.81 537.609L1500.83 514.588H1528.87L1542.88 537.609L1528.87 560.624H1500.83ZM1500.67 609.463L1486.65 586.447L1500.67 563.432H1528.7L1542.72 586.442L1528.7 609.463H1500.67ZM1500.5 658.307L1486.48 635.291L1500.5 612.27H1528.54L1542.55 635.286L1528.54 658.307H1500.5ZM1486.32 684.13L1500.34 661.114H1528.38L1542.39 684.13L1528.37 707.145H1500.34L1486.32 684.13ZM1455.6 685.645H1483.63L1497.65 708.666L1483.63 731.682H1455.6L1441.58 708.666L1455.6 685.645ZM1397.15 684.119L1411.17 661.098H1439.21L1453.22 684.114L1439.21 707.135H1411.17L1397.15 684.119ZM1366.43 685.63H1394.46L1408.48 708.65L1394.46 731.666H1366.43L1352.41 708.65L1366.43 685.63ZM1307.99 684.104L1322.01 661.083H1350.04L1364.05 684.098L1350.04 707.119H1322.01L1307.99 684.104ZM1277.26 685.614H1305.3L1319.31 708.635L1305.3 731.65H1277.26L1263.24 708.635L1277.26 685.614ZM1218.82 684.088L1232.83 661.067H1260.88L1274.89 684.083L1260.87 707.104H1232.83L1218.82 684.088ZM1188.09 685.598H1216.13L1230.14 708.614L1216.13 731.635H1188.09L1174.08 708.619L1188.09 685.598ZM1129.65 684.072L1143.67 661.051H1171.7L1185.72 684.067L1171.7 707.088H1143.67L1129.65 684.072ZM1098.92 685.583H1126.96L1140.97 708.598L1126.96 731.619H1098.92L1084.91 708.604L1098.92 685.583ZM1040.48 684.051L1054.5 661.036H1082.53L1096.55 684.051L1082.53 707.072H1054.5L1040.48 684.051ZM1009.76 685.567H1037.79L1051.81 708.583L1037.79 731.604H1009.75L995.74 708.588L1009.76 685.567ZM951.311 684.036L965.328 661.02H993.362L1007.38 684.036L993.362 707.057H965.328L951.311 684.036ZM920.591 685.551H948.62L962.637 708.567L948.62 731.588H920.586L906.569 708.572L920.591 685.551ZM904.197 661.005L918.214 684.02L904.191 707.036H876.162L862.145 684.02L876.162 661.005H904.197ZM904.362 612.161L918.373 635.182L904.356 658.203H876.327L862.304 635.182L876.327 612.161H904.362ZM904.521 563.322L918.538 586.338L904.521 609.359H876.486L862.469 586.343L876.486 563.322H904.521ZM904.685 514.484L918.703 537.499L904.68 560.52H876.651L862.634 537.499L876.651 514.484H904.685ZM904.85 465.645L918.862 488.656L904.845 511.676H876.81L862.793 488.661L876.81 465.645H904.85ZM905.009 416.801L919.027 439.817L905.009 462.833H876.975L862.958 439.817L876.975 416.801H905.009ZM905.174 367.958L919.191 390.973L905.169 413.994H877.134L863.122 390.979L877.134 367.958H905.174ZM905.333 319.119L919.351 342.135L905.333 365.156H877.299L863.282 342.135L877.299 319.119H905.333ZM905.498 270.281L919.515 293.296L905.493 316.317H877.464L863.446 293.296L877.464 270.281H905.498ZM905.657 221.442L919.674 244.452L905.657 267.473H877.628L863.611 244.458L877.628 221.442H905.657ZM905.822 172.598L919.839 195.614L905.816 218.635H877.788L863.776 195.614L877.788 172.598H905.822ZM919.998 146.77L905.981 169.791H877.952L863.935 146.775L877.952 123.76H905.987L919.998 146.77ZM950.575 145.499H922.54L908.523 122.484L922.546 99.4629H950.575L964.587 122.479L950.575 145.499ZM1009.17 146.786L995.152 169.807H967.118L953.101 146.791L967.118 123.775H995.158L1009.17 146.786ZM1039.75 145.51H1011.71L997.689 122.499L1011.71 99.4785H1039.75L1053.76 122.494L1039.75 145.51ZM1098.34 146.801L1084.32 169.822H1056.29L1042.27 146.807L1056.29 123.786H1084.32L1098.34 146.801ZM1128.91 145.531H1100.88L1086.86 122.515L1100.88 99.4941H1128.91L1142.93 122.51L1128.91 145.531ZM1187.51 146.817L1173.49 169.838H1145.45L1131.44 146.817L1145.45 123.801H1173.49L1187.51 146.817ZM1218.08 145.546H1190.04L1176.03 122.531L1190.05 99.5098H1218.08L1232.1 122.525L1218.08 145.546ZM1276.68 146.833L1262.66 169.854H1234.63L1220.61 146.833L1234.63 123.817H1262.66L1276.68 146.833ZM1307.25 145.562H1279.21L1265.2 122.546L1279.21 99.5254H1307.25L1321.26 122.541L1307.25 145.562ZM1365.84 146.854L1351.82 169.869H1323.79L1309.78 146.854L1323.79 123.833H1351.82L1365.84 146.854ZM1396.41 145.577H1368.38L1354.37 122.562L1368.39 99.541H1396.41L1410.43 122.562L1396.41 145.577ZM1455.01 146.864L1441 169.885H1412.96L1398.94 146.869L1412.96 123.848H1441L1455.01 146.864ZM1457.55 145.593L1443.53 122.577L1457.56 99.5566H1485.58L1499.6 122.577L1485.58 145.593H1457.55ZM1457.38 194.432L1443.37 171.416L1457.39 148.395H1485.42L1499.44 171.416L1485.42 194.432H1457.38ZM1457.23 243.27L1443.21 220.26L1457.23 197.234H1485.25L1499.27 220.255L1485.25 243.27H1457.23ZM1457.06 292.114L1443.04 269.098L1457.06 246.077H1485.1L1499.11 269.093L1485.1 292.114H1457.06ZM1456.9 340.952L1442.88 317.942L1456.9 294.921H1484.93L1498.95 317.937L1484.93 340.952H1456.9ZM1456.74 389.796L1442.72 366.781L1456.74 343.76H1484.77L1498.78 366.781L1484.77 389.796H1456.74ZM1456.57 438.64L1442.56 415.624L1456.58 392.604H1484.61L1498.62 415.619L1484.61 438.64H1456.57ZM1456.41 487.479L1442.4 464.458L1456.41 441.442H1484.44L1498.46 464.458L1484.44 487.479H1456.41ZM1456.25 536.317L1442.23 513.301L1456.25 490.281H1484.28L1498.3 513.296L1484.28 536.317H1456.25ZM1456.08 585.156L1442.07 562.145L1456.09 539.124H1484.12L1498.14 562.14L1484.12 585.156H1456.08ZM1455.92 633.999L1441.91 610.984L1455.92 587.963H1483.95L1497.98 610.984L1483.95 633.999H1455.92ZM1455.77 636.807H1483.79L1497.81 659.822L1483.79 682.838H1455.75L1441.74 659.828L1455.77 636.807ZM1397.32 635.275L1411.34 612.26H1439.37L1453.39 635.27L1439.37 658.291H1411.34L1397.32 635.275ZM1366.59 636.791H1394.62L1408.64 659.807L1394.62 682.822H1366.59L1352.58 659.812L1366.59 636.791ZM1308.15 635.26L1322.17 612.244H1350.2L1364.22 635.255L1350.19 658.275H1322.17L1308.15 635.26ZM1277.42 636.775H1305.46L1319.47 659.791L1305.46 682.807H1277.42L1263.41 659.796L1277.42 636.775ZM1218.98 635.244L1232.99 612.229H1261.03L1275.05 635.244L1261.03 658.26H1232.99L1218.98 635.244ZM1188.26 636.76H1216.29L1230.3 659.775L1216.29 682.796H1188.25L1174.24 659.775L1188.26 636.76ZM1129.82 635.229L1143.83 612.213H1171.86L1185.88 635.229L1171.86 658.244H1143.83L1129.82 635.229ZM1099.09 636.744H1127.12L1141.14 659.76L1127.12 682.781H1099.09L1085.07 659.76L1099.09 636.744ZM1040.64 635.213L1054.66 612.197H1082.7L1096.71 635.213L1082.69 658.234H1054.66L1040.64 635.213ZM1009.92 636.729H1037.95L1051.97 659.744L1037.95 682.765H1009.92L995.899 659.744L1009.92 636.729ZM951.475 635.197L965.493 612.176H993.527L1007.54 635.197L993.521 658.218H965.493L951.475 635.197ZM948.785 636.713L962.797 659.729L948.785 682.744H920.751L906.733 659.729L920.751 636.713H948.785ZM948.944 587.869L962.961 610.89L948.944 633.906H920.915L906.893 610.89L920.915 587.869H948.944ZM949.109 539.031L963.126 562.051L949.109 585.067H921.075L907.057 562.051L921.075 539.031H949.109ZM949.274 490.192L963.291 513.208L949.274 536.223H921.234L907.222 513.213L921.239 490.192H949.274ZM949.433 441.348L963.45 464.364L949.433 487.385H921.398L907.381 464.369L921.398 441.348H949.433ZM949.598 392.51L963.615 415.525L949.598 438.541H921.558L907.546 415.531L921.563 392.51H949.598ZM949.762 343.666L963.78 366.682L949.762 389.702H921.722L907.711 366.687L921.728 343.666H949.762ZM949.922 294.822L963.944 317.843L949.922 340.864H921.887L907.87 317.843L921.893 294.822H949.922ZM950.081 245.989L964.103 269.005L950.081 292.02H922.052L908.035 269.005L922.057 245.989H950.081ZM950.245 197.145L964.263 220.166L950.245 243.182H922.211L908.199 220.166L922.217 197.145H950.245ZM950.41 194.338H922.376L908.364 171.327L922.381 148.307H950.41L964.427 171.322L950.41 194.338ZM1009.01 195.624L994.987 218.65H966.953L952.941 195.63L966.953 172.614H994.993L1009.01 195.624ZM1039.58 194.354H1011.54L997.53 171.343L1011.55 148.322H1039.58L1053.6 171.338L1039.58 194.354ZM1098.18 195.64L1084.15 218.661H1056.13L1042.11 195.645L1056.13 172.63H1084.16L1098.18 195.64ZM1128.75 194.369H1100.71L1086.7 171.354L1100.72 148.338H1128.75L1142.76 171.354L1128.75 194.369ZM1187.35 195.656L1173.33 218.676H1145.29L1131.28 195.661L1145.29 172.645H1173.33L1187.35 195.656ZM1217.92 194.385H1189.88L1175.87 171.369L1189.88 148.348H1217.92L1231.93 171.369L1217.92 194.385ZM1276.51 195.671L1262.49 218.692H1234.47L1220.44 195.676L1234.47 172.661H1262.5L1276.51 195.671ZM1307.08 194.4H1279.05L1265.03 171.385L1279.05 148.364H1307.08L1321.1 171.385L1307.08 194.4ZM1365.68 195.692L1351.66 218.708H1323.63L1309.61 195.692L1323.63 172.676H1351.67L1365.68 195.692ZM1396.25 194.416H1368.22L1354.2 171.4L1368.22 148.38H1396.25L1410.27 171.4L1396.25 194.416ZM1412.8 218.729L1398.79 195.708L1412.8 172.687H1440.84L1454.85 195.708L1440.83 218.729H1412.8ZM1412.64 267.567L1398.61 244.546L1412.64 221.531H1440.67L1454.69 244.546L1440.67 267.567H1412.64ZM1412.47 316.406L1398.46 293.39L1412.47 270.374H1440.51L1454.52 293.385L1440.5 316.406H1412.47ZM1412.31 365.249L1398.3 342.229L1412.31 319.213H1440.35L1454.36 342.229L1440.34 365.249H1412.31ZM1412.15 414.088L1398.13 391.072L1412.15 368.057H1440.18L1454.2 391.067L1440.18 414.088H1412.15ZM1411.98 462.932L1397.97 439.916L1411.98 416.895H1440.02L1454.04 439.911L1440.01 462.932H1411.98ZM1411.82 511.77L1397.81 488.749L1411.82 465.734H1439.85L1453.87 488.749L1439.85 511.77H1411.82ZM1411.66 560.609L1397.64 537.593L1411.66 514.578H1439.69L1453.71 537.588L1439.69 560.609H1411.66ZM1397.48 586.432L1411.5 563.416H1439.53L1453.55 586.432L1439.53 609.453H1411.5L1397.48 586.432ZM1366.76 587.947H1394.79L1408.81 610.968L1394.79 633.984H1366.75L1352.74 610.968L1366.76 587.947ZM1308.31 586.416L1322.33 563.4H1350.36L1364.38 586.416L1350.36 609.437H1322.33L1308.31 586.416ZM1277.59 587.932H1305.62L1319.64 610.953L1305.62 633.968H1277.58L1263.57 610.953L1277.59 587.932ZM1219.14 586.4L1233.16 563.385H1261.19L1275.21 586.4L1261.19 609.421H1233.16L1219.14 586.4ZM1188.42 587.916H1216.45L1230.47 610.937L1216.45 633.953H1188.42L1174.4 610.942L1188.42 587.916ZM1129.98 586.39L1143.99 563.369H1172.03L1186.04 586.385L1172.02 609.406H1143.99L1129.98 586.39ZM1099.25 587.906H1127.29L1141.3 610.921L1127.29 633.937H1099.25L1085.23 610.921L1099.25 587.906ZM1040.81 586.374L1054.82 563.359H1082.86L1096.87 586.369L1082.86 609.39H1054.82L1040.81 586.374ZM1010.08 587.885H1038.11L1052.13 610.906L1038.11 633.921H1010.08L996.064 610.906L1010.08 587.885ZM993.686 563.338L1007.7 586.354L993.686 609.374H965.657L951.64 586.359L965.657 563.338H993.686ZM993.851 514.499L1007.87 537.515L993.845 560.536H965.822L951.805 537.515L965.822 514.499H993.851ZM994.016 465.661L1008.03 488.671L994.01 511.692H965.981L951.964 488.676L965.981 465.661H994.016ZM994.18 416.817L1008.19 439.833L994.175 462.848H966.146L952.129 439.833L966.146 416.817H994.18ZM994.34 367.973L1008.36 390.989L994.34 414.01H966.311L952.288 390.994L966.311 367.973H994.34ZM994.504 319.135L1008.52 342.15L994.499 365.171H966.47L952.453 342.15L966.47 319.135H994.504ZM994.669 270.296L1008.68 293.307L994.663 316.333H966.629L952.612 293.312L966.629 270.296H994.669ZM1008.85 244.468L994.828 267.489H966.794L952.777 244.473L966.794 221.458H994.834L1008.85 244.468ZM1039.42 243.197H1011.38L997.365 220.182L1011.38 197.161H1039.42L1053.43 220.176L1039.42 243.197ZM1098.01 244.484L1083.99 267.505H1055.96L1041.95 244.489L1055.96 221.468H1084L1098.01 244.484ZM1128.58 243.213H1100.55L1086.54 220.197L1100.56 197.176H1128.58L1142.6 220.192L1128.58 243.213ZM1187.18 244.499L1173.16 267.52H1145.13L1131.11 244.505L1145.13 221.484H1173.16L1187.18 244.499ZM1217.75 243.223H1189.72L1175.7 220.213L1189.72 197.192H1217.75L1231.77 220.208L1217.75 243.223ZM1276.35 244.515L1262.33 267.536H1234.3L1220.28 244.52L1234.3 221.499H1262.34L1276.35 244.515ZM1306.92 243.239H1278.89L1264.87 220.229L1278.89 197.208H1306.92L1320.94 220.223L1306.92 243.239ZM1365.52 244.531L1351.5 267.551H1323.47L1309.45 244.536L1323.47 221.515H1351.5L1365.52 244.531ZM1368.05 243.255L1354.04 220.244L1368.05 197.223H1396.09L1410.11 220.239L1396.09 243.255H1368.05ZM1367.89 292.098L1353.88 269.083L1367.9 246.062H1395.92L1409.95 269.077L1395.92 292.098H1367.89ZM1367.73 340.937L1353.71 317.926L1367.73 294.906H1395.77L1409.78 317.921L1395.77 340.937H1367.73ZM1367.57 389.781L1353.55 366.765L1367.57 343.744H1395.61L1409.62 366.765L1395.61 389.781H1367.57ZM1367.4 438.624L1353.38 415.604L1367.41 392.588H1395.44L1409.46 415.604L1395.44 438.624H1367.4ZM1367.24 487.463L1353.22 464.442L1367.24 441.426H1395.28L1409.29 464.442L1395.28 487.463H1367.24ZM1367.08 536.301L1353.06 513.286L1367.08 490.265H1395.11L1409.13 513.281L1395.11 536.301H1367.08ZM1366.92 539.109H1394.95L1408.97 562.124L1394.95 585.14H1366.92L1352.9 562.13L1366.92 539.109ZM1308.47 537.578L1322.49 514.562H1350.52L1364.54 537.572L1350.52 560.593H1322.49L1308.47 537.578ZM1277.75 539.093H1305.78L1319.8 562.109L1305.78 585.124H1277.75L1263.74 562.114L1277.75 539.093ZM1219.31 537.562L1233.32 514.546H1261.36L1275.38 537.557L1261.36 560.578H1233.32L1219.31 537.562ZM1188.59 539.078H1216.62L1230.63 562.093L1216.62 585.109H1188.58L1174.56 562.098L1188.59 539.078ZM1130.14 537.546L1144.16 514.531H1172.19L1186.2 537.541L1172.19 560.562H1144.16L1130.14 537.546ZM1099.41 539.062H1127.45L1141.46 562.083L1127.45 585.098H1099.41L1085.39 562.083L1099.41 539.062ZM1040.97 537.531L1054.99 514.515H1083.02L1097.04 537.531L1083.02 560.551H1054.99L1040.97 537.531ZM1038.27 539.046L1052.29 562.067L1038.27 585.083H1010.24L996.228 562.067L1010.25 539.046H1038.27ZM1038.44 490.208L1052.46 513.223L1038.44 536.239H1010.4L996.393 513.223L1010.41 490.208H1038.44ZM1038.6 441.364L1052.62 464.38L1038.6 487.4H1010.57L996.552 464.385L1010.57 441.364H1038.6ZM1038.76 392.525L1052.78 415.541L1038.76 438.557H1010.73L996.717 415.541L1010.73 392.525H1038.76ZM1038.93 343.682L1052.94 366.697L1038.93 389.718H1010.89L996.876 366.702L1010.9 343.682H1038.93ZM1039.09 294.843L1053.11 317.859L1039.09 340.88H1011.06L997.035 317.859L1011.06 294.843H1039.09ZM1039.26 292.036H1011.22L997.2 269.025L1011.22 246.005H1039.26L1053.27 269.02L1039.26 292.036ZM1097.85 293.327L1083.83 316.348H1055.8L1041.78 293.327L1055.8 270.312H1083.83L1097.85 293.327ZM1128.42 292.051H1100.39L1086.37 269.041L1100.39 246.02H1128.42L1142.44 269.036L1128.42 292.051ZM1187.02 293.338L1173 316.364H1144.97L1130.95 293.343L1144.97 270.327H1173.01L1187.02 293.338ZM1217.59 292.067H1189.55L1175.54 269.057L1189.56 246.031H1217.59L1231.61 269.051L1217.59 292.067ZM1276.19 293.354L1262.17 316.374H1234.14L1220.12 293.359L1234.14 270.343H1262.17L1276.19 293.354ZM1306.76 292.083H1278.72L1264.71 269.067L1278.73 246.046H1306.76L1320.78 269.062L1306.76 292.083ZM1323.3 316.39L1309.29 293.374L1323.3 270.359H1351.34L1365.35 293.369L1351.34 316.39H1323.3ZM1323.14 365.234L1309.13 342.213L1323.14 319.197H1351.18L1365.19 342.213L1351.18 365.234H1323.14ZM1322.98 414.072L1308.96 391.057L1322.98 368.041H1351.01L1365.04 391.051L1351.01 414.072H1322.98ZM1322.81 462.916L1308.8 439.895L1322.81 416.88H1350.85L1364.86 439.895L1350.85 462.916H1322.81ZM1308.64 488.734L1322.65 465.718H1350.69L1364.71 488.734L1350.69 511.755H1322.65L1308.64 488.734ZM1277.91 490.249H1305.95L1319.96 513.265L1305.95 536.286H1277.91L1263.89 513.27L1277.91 490.249ZM1219.47 488.718L1233.49 465.702H1261.52L1275.54 488.718L1261.52 511.739H1233.49L1219.47 488.718ZM1188.75 490.234H1216.78L1230.79 513.255L1216.78 536.27H1188.74L1174.72 513.255L1188.75 490.234ZM1130.3 488.708L1144.32 465.687H1172.35L1186.37 488.702L1172.35 511.723H1144.32L1130.3 488.708ZM1099.58 490.223H1127.61L1141.63 513.239L1127.61 536.255H1099.57L1085.56 513.239L1099.58 490.223ZM1083.19 465.676L1097.2 488.687L1083.18 511.708H1055.15L1041.13 488.692L1055.15 465.676H1083.19ZM1083.35 416.833L1097.36 439.848L1083.35 462.864H1055.31L1041.29 439.848L1055.31 416.833H1083.35ZM1083.51 367.989L1097.53 391.01L1083.51 414.025H1055.48L1041.46 391.01L1055.48 367.989H1083.51ZM1097.69 342.166L1083.67 365.187H1055.64L1041.62 342.171L1055.64 319.15H1083.67L1097.69 342.166ZM1128.26 340.895H1100.22L1086.21 317.88L1100.23 294.859H1128.26L1142.28 317.874L1128.26 340.895ZM1186.86 342.182L1172.84 365.202H1144.81L1130.79 342.182L1144.81 319.166H1172.84L1186.86 342.182ZM1217.43 340.906H1189.39L1175.38 317.895L1189.39 294.874H1217.43L1231.45 317.89L1217.43 340.906ZM1276.02 342.197L1262.01 365.218H1233.98L1219.96 342.197L1233.98 319.182H1262.01L1276.02 342.197ZM1278.56 340.921L1264.55 317.911L1278.57 294.89H1306.59L1320.61 317.906L1306.59 340.921H1278.56ZM1278.4 389.765L1264.38 366.749L1278.41 343.729H1306.44L1320.45 366.749L1306.44 389.765H1278.4ZM1278.24 438.609L1264.22 415.588L1278.24 392.567H1306.26L1320.29 415.588L1306.26 438.609H1278.24ZM1278.08 441.411H1306.11L1320.13 464.426L1306.11 487.447H1278.07L1264.06 464.432L1278.08 441.411ZM1219.64 439.88L1233.65 416.859H1261.68L1275.7 439.88L1261.68 462.9H1233.65L1219.64 439.88ZM1188.91 441.395H1216.94L1230.95 464.411L1216.94 487.426H1188.91L1174.89 464.416L1188.91 441.395ZM1130.46 439.864L1144.48 416.848H1172.52L1186.53 439.864L1172.51 462.885H1144.48L1130.46 439.864ZM1127.77 441.38L1141.79 464.395L1127.77 487.416H1099.73L1085.72 464.4L1099.74 441.38H1127.77ZM1127.93 392.536L1141.95 415.557L1127.93 438.572H1099.9L1085.88 415.557L1099.9 392.536H1127.93ZM1128.09 389.734H1100.06L1086.05 366.718L1100.06 343.697H1128.09L1142.12 366.718L1128.09 389.734ZM1186.69 391.025L1172.68 414.046H1144.64L1130.62 391.025L1144.64 368.005H1172.68L1186.69 391.025ZM1217.26 389.749H1189.23L1175.21 366.734L1189.23 343.713H1217.26L1231.28 366.734L1217.26 389.749ZM1231.12 415.572L1217.1 438.593H1189.07L1175.05 415.572L1189.07 392.551H1217.1L1231.12 415.572ZM1219.8 391.041L1233.81 368.02H1261.84L1275.86 391.041L1261.84 414.057H1233.81L1219.8 391.041ZM819.517 73.6244L833.534 50.6035H861.569L875.586 73.6244L861.569 96.64H833.529L819.517 73.6244ZM831.3 0.197266L831.322 0.233723L817.304 23.2546H804.715V26.0618H817.145L831.162 49.0723L817.14 72.0931H804.715V74.9004H816.98L830.998 97.9108L816.98 120.932H804.715V123.744H816.821L830.833 146.755L816.816 169.775H804.715V172.583H816.657L830.668 195.598L816.651 218.619H804.715V221.421H816.492L830.509 244.437L816.486 267.458H804.715V270.26H816.327L830.344 293.281L816.327 316.301H804.715V319.104H816.168L830.18 342.119L816.162 365.14H804.715V367.942H816.003L830.02 390.958L815.998 413.979H804.715V416.786H815.838L829.856 439.801L815.838 462.822H804.715V465.63H815.679L829.696 488.64L815.674 511.661H804.715V514.468H815.515L829.532 537.484L815.515 560.505H804.715V563.307H815.35L829.372 586.322L815.35 609.343H804.715V612.145H815.191L829.208 635.166L815.191 658.182H804.715V660.989H815.026L829.043 684.005L815.026 707.025H804.715V709.833H814.867L828.884 732.843L814.861 755.864H804.715V758.671H814.702L828.719 781.687L828.626 781.833H861.898L861.821 781.703L875.838 758.687H903.873L917.885 781.703L917.808 781.833H951.058L950.987 781.718L965.004 758.703H993.038L1007.06 781.713L1006.98 781.833H1040.22L1040.16 781.734L1054.17 758.718H1082.21L1096.22 781.729L1096.16 781.833H1129.38L1129.32 781.749L1143.34 758.734H1171.37L1185.39 781.744L1185.34 781.833H1218.53L1218.49 781.765L1232.51 758.749H1260.55L1274.56 781.765L1274.51 781.833H1307.69L1307.66 781.781L1321.68 758.76H1349.71L1363.73 781.781L1363.69 781.833H1396.85L1396.82 781.796L1410.85 758.775H1438.88L1452.9 781.796L1452.87 781.833H1486.01L1486 781.812L1500.02 758.796H1528.05L1542.06 781.812L1542.05 781.833H1575.17L1575.17 781.828L1589.18 758.812H1604.37V756.005H1589.34L1575.33 732.989L1589.34 709.968H1604.37V707.161H1589.51L1575.49 684.145L1589.51 661.13H1604.37V658.322H1589.67L1575.66 635.301L1589.67 612.286H1604.37V609.479H1589.84L1575.82 586.463L1589.84 563.447H1604.37V560.645H1590L1575.98 537.624L1590 514.604H1604.37V511.801H1590.16L1576.14 488.786L1590.16 465.765H1604.37V462.958H1590.33L1576.3 439.942L1590.33 416.926H1604.37V414.119H1590.49L1576.47 391.104L1590.49 368.083H1604.37V365.275H1590.65L1576.63 342.26L1590.65 319.244H1604.37V316.437H1590.81L1576.79 293.416L1590.81 270.4H1604.37V267.598H1590.97L1576.96 244.577L1590.97 221.562H1604.37V218.76H1591.14L1577.12 195.739L1591.14 172.723H1604.37V169.916H1591.3L1577.29 146.9L1591.3 123.885H1604.37V121.072H1591.46L1577.45 98.0566L1591.46 75.041H1604.37V72.2337H1591.63L1577.6 49.2181L1591.63 26.1973H1604.37V23.39H1591.79L1577.77 0.374348L1577.88 0.197266H1544.57L1544.67 0.358723L1530.65 23.3796H1502.62L1488.6 0.358723L1488.7 0.197266H1455.41L1455.5 0.343098L1441.48 23.3639H1413.45L1399.43 0.343098L1399.53 0.197266H1366.25L1366.33 0.327474L1352.31 23.3483H1324.28L1310.27 0.332682L1310.34 0.197266H1277.09L1277.17 0.311848L1263.15 23.3327H1235.11L1221.1 0.317056L1221.17 0.197266H1187.93L1187.99 0.296223L1173.98 23.3171H1145.95L1131.93 0.301431L1131.99 0.197266H1098.77L1098.83 0.280599L1084.81 23.3014H1056.78L1042.76 0.285807L1042.81 0.197266H1009.61L1009.66 0.264974L995.641 23.2858H967.606L953.589 0.270182L953.633 0.197266H920.454L920.487 0.249348L906.47 23.2702H878.441L864.424 0.254556L864.457 0.197266H831.3Z" fill="#FAC858"/>
</g>
<mask id="mask2_91_1994" style="mask-type:luminance" maskUnits="userSpaceOnUse" x="716" y="779" width="18" height="17">
<path d="M716.473 779.816H733.328V795.806H716.473V779.816Z" fill="white"/>
</mask>
<g mask="url(#mask2_91_1994)">
<path d="M717.972 780.322L717.675 780.79H717.082L716.786 780.322L717.082 779.848H717.675L717.972 780.322ZM718.614 780.348L718.91 780.816L718.614 781.285H718.021L717.724 780.816L718.021 780.348H718.614ZM718.965 779.848H719.553L719.849 780.322L719.553 780.79H718.965L718.669 780.322L718.965 779.848ZM720.492 780.348L720.788 780.816L720.492 781.29H719.904L719.608 780.816L719.904 780.348H720.492ZM720.843 779.848H721.436L721.727 780.322L721.436 780.79H720.843L720.547 780.322L720.843 779.848ZM722.375 780.348L722.671 780.816L722.375 781.29H721.782L721.485 780.816L721.782 780.348H722.375ZM722.721 779.848H723.314L723.61 780.322L723.314 780.79H722.721L722.43 780.322L722.721 779.848ZM724.253 780.348L724.549 780.816L724.253 781.29H723.665L723.369 780.816L723.665 780.348H724.253ZM724.604 779.848H725.192L725.488 780.322L725.192 780.79H724.604L724.308 780.322L724.604 779.848ZM726.136 780.348L726.427 780.816L726.136 781.29H725.543L725.246 780.816L725.543 780.348H726.136ZM726.482 779.848H727.075L727.371 780.322L727.075 780.79H726.482L726.185 780.322L726.482 779.848ZM728.014 780.348L728.31 780.816L728.014 781.29H727.421L727.13 780.816L727.421 780.348H728.014ZM728.365 779.853H728.953L729.249 780.322L728.953 780.79H728.365L728.069 780.322L728.365 779.853ZM729.891 780.348L730.188 780.816L729.891 781.29H729.304L729.007 780.816L729.304 780.348H729.891ZM730.243 779.853H730.836L731.127 780.322L730.836 780.79H730.243L729.946 780.322L730.243 779.853ZM731.775 780.348L732.071 780.816L731.775 781.29H731.182L730.885 780.816L731.182 780.348H731.775ZM732.121 779.853H732.714L733.01 780.322L732.714 780.79H732.121L731.83 780.322L732.121 779.853ZM733.005 781.322L732.708 781.79H732.121L731.824 781.322L732.121 780.848H732.708L733.005 781.322ZM733.005 782.322L732.708 782.79H732.115L731.819 782.322L732.115 781.848H732.708L733.005 782.322ZM732.999 783.322L732.703 783.79H732.115L731.819 783.322L732.115 782.848H732.703L732.999 783.322ZM732.994 784.316L732.703 784.79H732.11L731.813 784.316L732.11 783.848H732.703L732.994 784.316ZM732.994 785.316L732.697 785.79H732.104L731.808 785.316L732.104 784.848H732.697L732.994 785.316ZM732.988 786.316L732.692 786.785H732.104L731.808 786.316L732.104 785.848H732.692L732.988 786.316ZM732.988 787.316L732.692 787.785H732.099L731.802 787.316L732.099 786.848H732.692L732.988 787.316ZM732.983 788.316L732.686 788.785H732.093L731.802 788.316L732.093 787.842H732.686L732.983 788.316ZM732.977 789.316L732.681 789.785H732.093L731.797 789.316L732.093 788.842H732.681L732.977 789.316ZM732.977 790.311L732.681 790.785H732.088L731.791 790.311L732.088 789.842H732.681L732.977 790.311ZM732.972 791.311L732.675 791.785H732.088L731.791 791.311L732.088 790.842H732.675L732.972 791.311ZM732.966 792.311L732.675 792.785H732.082L731.786 792.311L732.082 791.842H732.675L732.966 792.311ZM732.966 793.311L732.67 793.78H732.077L731.78 793.311L732.077 792.842H732.67L732.966 793.311ZM732.961 794.311L732.664 794.78H732.077L731.78 794.311L732.077 793.837H732.664L732.961 794.311ZM732.961 795.311L732.664 795.78H732.071L731.775 795.311L732.071 794.837H732.664L732.961 795.311ZM731.132 795.28L730.841 794.806L731.132 794.337H731.725L732.022 794.806L731.725 795.28H731.132ZM730.781 795.78H730.193L729.897 795.311L730.193 794.837H730.781L731.077 795.311L730.781 795.78ZM729.255 795.28L728.958 794.806L729.255 794.337H729.847L730.144 794.806L729.847 795.28H729.255ZM728.903 795.78H728.31L728.014 795.311L728.31 794.837H728.903L729.2 795.311L728.903 795.78ZM727.377 795.28L727.08 794.806L727.377 794.337H727.964L728.261 794.806L727.964 795.28H727.377ZM727.02 795.78H726.432L726.136 795.306L726.432 794.837H727.02L727.316 795.306L727.02 795.78ZM725.494 795.275L725.197 794.806L725.494 794.337H726.086L726.383 794.806L726.086 795.275H725.494ZM725.142 795.78H724.549L724.258 795.306L724.549 794.837H725.142L725.439 795.306L725.142 795.78ZM723.616 795.275L723.319 794.806L723.616 794.337H724.203L724.5 794.806L724.203 795.275H723.616ZM723.264 795.78H722.671L722.375 795.306L722.671 794.837H723.264L723.555 795.306L723.264 795.78ZM721.733 795.275L721.442 794.806L721.733 794.337H722.326L722.622 794.806L722.326 795.275H721.733ZM721.381 795.78H720.794L720.497 795.306L720.794 794.837H721.381L721.678 795.306L721.381 795.78ZM719.855 795.275L719.558 794.806L719.855 794.332H720.448L720.739 794.806L720.448 795.275H719.855ZM719.503 795.78H718.91L718.614 795.306L718.91 794.837H719.503L719.8 795.306L719.503 795.78ZM717.977 795.275L717.681 794.806L717.977 794.332H718.565L718.861 794.806L718.565 795.275H717.977ZM717.62 795.78H717.033L716.736 795.306L717.033 794.837H717.62L717.917 795.306L717.62 795.78ZM716.742 794.306L717.033 793.837H717.626L717.922 794.306L717.626 794.78H717.033L716.742 794.306ZM716.742 793.311L717.038 792.837H717.631L717.922 793.306L717.631 793.78H717.038L716.742 793.311ZM716.747 792.311L717.044 791.837H717.631L717.928 792.311L717.631 792.78H717.044L716.747 792.311ZM716.747 791.311L717.044 790.837H717.637L717.933 791.311L717.637 791.78H717.044L716.747 791.311ZM716.753 790.311L717.049 789.842H717.642L717.933 790.311L717.642 790.78H717.049L716.753 790.311ZM716.758 789.311L717.055 788.842H717.642L717.939 789.311L717.642 789.785H717.055L716.758 789.311ZM716.758 788.311L717.055 787.842H717.648L717.944 788.311L717.648 788.785H717.055L716.758 788.311ZM716.764 787.311L717.06 786.842H717.648L717.944 787.311L717.648 787.785H717.06L716.764 787.311ZM716.769 786.316L717.06 785.842H717.653L717.95 786.316L717.653 786.785H717.06L716.769 786.316ZM716.769 785.316L717.066 784.842H717.659L717.95 785.316L717.659 785.785H717.066L716.769 785.316ZM716.775 784.316L717.071 783.848H717.659L717.955 784.316L717.659 784.785H717.071L716.775 784.316ZM716.775 783.316L717.071 782.848H717.664L717.961 783.316L717.664 783.785H717.071L716.775 783.316ZM716.78 782.316L717.077 781.848H717.67L717.961 782.316L717.67 782.79H717.077L716.78 782.316ZM718.905 781.816L718.608 782.285H718.021L717.724 781.816L718.021 781.342H718.608L718.905 781.816ZM719.553 781.79H718.96L718.663 781.316L718.96 780.848H719.553L719.844 781.316L719.553 781.79ZM720.788 781.816L720.492 782.285H719.899L719.602 781.816L719.899 781.348H720.492L720.788 781.816ZM721.431 781.79H720.838L720.541 781.322L720.838 780.848H721.431L721.727 781.322L721.431 781.79ZM722.666 781.816L722.369 782.285H721.782L721.485 781.816L721.782 781.348H722.369L722.666 781.816ZM723.308 781.79H722.721L722.424 781.322L722.721 780.848H723.308L723.605 781.322L723.308 781.79ZM724.544 781.816L724.253 782.285H723.66L723.363 781.816L723.66 781.348H724.253L724.544 781.816ZM725.192 781.79H724.599L724.302 781.322L724.599 780.848H725.192L725.488 781.322L725.192 781.79ZM726.427 781.816L726.13 782.29H725.537L725.246 781.816L725.537 781.348H726.13L726.427 781.816ZM727.069 781.79H726.482L726.185 781.322L726.482 780.848H727.069L727.366 781.322L727.069 781.79ZM728.305 781.816L728.008 782.29H727.421L727.124 781.816L727.421 781.348H728.008L728.305 781.816ZM728.953 781.79H728.36L728.063 781.322L728.36 780.848H728.953L729.244 781.322L728.953 781.79ZM730.188 781.816L729.891 782.29H729.298L729.002 781.816L729.298 781.348H729.891L730.188 781.816ZM730.83 781.79H730.237L729.946 781.322L730.237 780.848H730.83L731.127 781.322L730.83 781.79ZM731.182 782.29L730.885 781.816L731.182 781.348H731.769L732.066 781.816L731.769 782.29H731.182ZM731.176 783.29L730.88 782.816L731.176 782.348H731.769L732.06 782.816L731.769 783.29H731.176ZM731.171 784.285L730.88 783.816L731.171 783.348H731.764L732.06 783.816L731.764 784.285H731.171ZM731.171 785.285L730.874 784.816L731.171 784.342H731.758L732.055 784.816L731.758 785.285H731.171ZM731.165 786.285L730.869 785.816L731.165 785.342H731.758L732.055 785.816L731.758 786.285H731.165ZM731.16 787.285L730.869 786.816L731.16 786.342H731.753L732.049 786.816L731.753 787.285H731.16ZM731.16 788.285L730.863 787.811L731.16 787.342H731.747L732.044 787.811L731.747 788.285H731.16ZM731.154 789.285L730.858 788.811L731.154 788.342H731.747L732.044 788.811L731.747 789.285H731.154ZM731.154 790.28L730.858 789.811L731.154 789.342H731.742L732.038 789.811L731.742 790.28H731.154ZM731.149 791.28L730.852 790.811L731.149 790.337H731.742L732.033 790.811L731.742 791.28H731.149ZM731.143 792.28L730.847 791.811L731.143 791.337H731.736L732.033 791.811L731.736 792.28H731.143ZM731.143 793.28L730.847 792.811L731.143 792.337H731.731L732.027 792.811L731.731 793.28H731.143ZM730.841 793.806L731.138 793.337H731.731L732.027 793.806L731.731 794.28H731.138L730.841 793.806ZM730.193 793.837H730.786L731.083 794.311L730.786 794.78H730.193L729.897 794.311L730.193 793.837ZM728.964 793.806L729.26 793.337H729.847L730.144 793.806L729.847 794.28H729.26L728.964 793.806ZM728.316 793.837H728.903L729.2 794.311L728.903 794.78H728.316L728.019 794.311L728.316 793.837ZM727.08 793.806L727.377 793.337H727.97L728.266 793.806L727.97 794.28H727.377L727.08 793.806ZM726.432 793.837H727.025L727.322 794.311L727.025 794.78H726.432L726.141 794.311L726.432 793.837ZM725.203 793.806L725.499 793.337H726.092L726.383 793.806L726.086 794.28H725.499L725.203 793.806ZM724.555 793.837H725.148L725.439 794.311L725.148 794.78H724.555L724.258 794.311L724.555 793.837ZM723.325 793.806L723.616 793.337H724.209L724.505 793.806L724.209 794.28H723.616L723.325 793.806ZM722.677 793.837H723.264L723.561 794.311L723.264 794.78H722.677L722.38 794.311L722.677 793.837ZM721.442 793.806L721.738 793.337H722.331L722.622 793.806L722.331 794.275H721.738L721.442 793.806ZM720.794 793.837H721.387L721.683 794.306L721.387 794.78H720.794L720.497 794.306L720.794 793.837ZM719.564 793.806L719.86 793.337H720.448L720.744 793.806L720.448 794.275H719.86L719.564 793.806ZM718.916 793.837H719.503L719.8 794.306L719.503 794.78H718.916L718.619 794.306L718.916 793.837ZM718.57 793.337L718.867 793.806L718.57 794.275H717.977L717.681 793.806L717.977 793.337H718.57ZM718.57 792.337L718.867 792.806L718.57 793.28H717.983L717.686 792.806L717.983 792.337H718.57ZM718.576 791.337L718.872 791.806L718.576 792.28H717.983L717.692 791.806L717.983 791.337H718.576ZM718.581 790.337L718.877 790.806L718.581 791.28H717.988L717.692 790.806L717.988 790.337H718.581ZM718.581 789.337L718.877 789.811L718.581 790.28H717.994L717.697 789.811L717.994 789.337H718.581ZM718.586 788.337L718.883 788.811L718.586 789.28H717.994L717.697 788.811L717.994 788.337H718.586ZM718.592 787.342L718.883 787.811L718.592 788.28H717.999L717.703 787.811L717.999 787.342H718.592ZM718.592 786.342L718.888 786.811L718.592 787.28H718.005L717.708 786.811L718.005 786.342H718.592ZM718.597 785.342L718.894 785.811L718.597 786.285H718.005L717.708 785.811L718.005 785.342H718.597ZM718.597 784.342L718.894 784.811L718.597 785.285H718.01L717.714 784.811L718.01 784.342H718.597ZM718.603 783.342L718.899 783.816L718.603 784.285H718.01L717.719 783.816L718.01 783.342H718.603ZM718.905 782.816L718.608 783.285H718.015L717.719 782.816L718.015 782.342H718.608L718.905 782.816ZM719.547 782.79H718.954L718.658 782.316L718.954 781.848H719.547L719.844 782.316L719.547 782.79ZM720.783 782.816L720.486 783.285H719.893L719.602 782.816L719.893 782.342H720.486L720.783 782.816ZM721.425 782.79H720.838L720.541 782.316L720.838 781.848H721.425L721.722 782.316L721.425 782.79ZM722.66 782.816L722.369 783.285H721.776L721.48 782.816L721.776 782.342H722.369L722.66 782.816ZM723.308 782.79H722.715L722.419 782.316L722.715 781.848H723.308L723.605 782.316L723.308 782.79ZM724.544 782.816L724.247 783.285H723.654L723.358 782.816L723.654 782.342H724.247L724.544 782.816ZM725.186 782.79H724.599L724.302 782.316L724.599 781.848H725.186L725.483 782.316L725.186 782.79ZM726.421 782.816L726.125 783.285H725.537L725.241 782.816L725.537 782.348H726.125L726.421 782.816ZM727.069 782.79H726.476L726.18 782.322L726.476 781.848H727.069L727.36 782.322L727.069 782.79ZM728.305 782.816L728.008 783.285H727.415L727.119 782.816L727.415 782.348H728.008L728.305 782.816ZM728.947 782.79H728.354L728.063 782.322L728.354 781.848H728.947L729.244 782.322L728.947 782.79ZM730.182 782.816L729.886 783.285H729.298L729.002 782.816L729.298 782.348H729.886L730.182 782.816ZM730.237 782.79L729.941 782.322L730.237 781.848H730.825L731.121 782.322L730.825 782.79H730.237ZM730.232 783.79L729.935 783.322L730.232 782.848H730.825L731.121 783.322L730.825 783.79H730.232ZM730.226 784.79L729.935 784.316L730.232 783.848H730.819L731.116 784.316L730.819 784.79H730.226ZM730.226 785.79L729.93 785.316L730.226 784.848H730.819L731.11 785.316L730.819 785.79H730.226ZM730.221 786.785L729.924 786.316L730.221 785.848H730.814L731.11 786.316L730.814 786.785H730.221ZM730.221 787.785L729.924 787.316L730.221 786.842H730.808L731.105 787.316L730.808 787.785H730.221ZM730.215 788.785L729.919 788.316L730.215 787.842H730.808L731.099 788.316L730.808 788.785H730.215ZM730.21 789.785L729.919 789.316L730.21 788.842H730.803L731.099 789.316L730.803 789.785H730.21ZM730.21 790.785L729.913 790.311L730.21 789.842H730.797L731.094 790.311L730.797 790.785H730.21ZM730.204 791.785L729.908 791.311L730.204 790.842H730.797L731.094 791.311L730.797 791.785H730.204ZM730.199 792.78L729.908 792.311L730.204 791.842H730.792L731.088 792.311L730.792 792.78H730.199ZM730.199 792.842H730.792L731.083 793.311L730.792 793.78H730.199L729.902 793.311L730.199 792.842ZM728.964 792.806L729.26 792.337H729.853L730.149 792.806L729.853 793.28H729.26L728.964 792.806ZM728.316 792.837H728.909L729.205 793.311L728.909 793.78H728.316L728.025 793.311L728.316 792.837ZM727.086 792.806L727.382 792.337H727.975L728.266 792.806L727.975 793.28H727.382L727.086 792.806ZM726.438 792.837H727.031L727.327 793.311L727.031 793.78H726.438L726.141 793.311L726.438 792.837ZM725.208 792.806L725.499 792.337H726.092L726.388 792.806L726.092 793.28H725.499L725.208 792.806ZM724.56 792.837H725.148L725.444 793.311L725.148 793.78H724.56L724.264 793.311L724.56 792.837ZM723.325 792.806L723.621 792.337H724.214L724.511 792.806L724.214 793.28H723.621L723.325 792.806ZM722.677 792.837H723.27L723.566 793.311L723.27 793.78H722.677L722.38 793.311L722.677 792.837ZM721.447 792.806L721.744 792.337H722.331L722.627 792.806L722.331 793.28H721.744L721.447 792.806ZM720.799 792.837H721.387L721.683 793.311L721.387 793.78H720.799L720.503 793.311L720.799 792.837ZM719.564 792.806L719.86 792.337H720.453L720.75 792.806L720.453 793.28H719.86L719.564 792.806ZM719.509 792.837L719.805 793.311L719.509 793.78H718.916L718.625 793.311L718.916 792.837H719.509ZM719.514 791.837L719.811 792.311L719.514 792.78H718.921L718.625 792.311L718.921 791.837H719.514ZM719.514 790.837L719.811 791.311L719.514 791.78H718.927L718.63 791.311L718.927 790.837H719.514ZM719.52 789.842L719.816 790.311L719.52 790.78H718.927L718.63 790.311L718.927 789.842H719.52ZM719.525 788.842L719.816 789.311L719.525 789.785H718.932L718.636 789.311L718.932 788.842H719.525ZM719.525 787.842L719.822 788.311L719.525 788.785H718.938L718.641 788.311L718.938 787.842H719.525ZM719.531 786.842L719.827 787.316L719.531 787.785H718.938L718.641 787.316L718.938 786.842H719.531ZM719.531 785.842L719.827 786.316L719.531 786.785H718.943L718.647 786.316L718.943 785.842H719.531ZM719.536 784.842L719.833 785.316L719.536 785.785H718.943L718.652 785.316L718.943 784.842H719.536ZM719.542 783.848L719.838 784.316L719.542 784.785H718.949L718.652 784.316L718.949 783.848H719.542ZM719.542 783.79H718.954L718.658 783.316L718.954 782.848H719.542L719.838 783.316L719.542 783.79ZM720.777 783.816L720.481 784.285H719.893L719.597 783.816L719.893 783.342H720.486L720.777 783.816ZM721.425 783.79H720.832L720.536 783.316L720.832 782.848H721.425L721.722 783.316L721.425 783.79ZM722.66 783.816L722.364 784.285H721.771L721.474 783.816L721.771 783.342H722.364L722.66 783.816ZM723.303 783.79H722.71L722.419 783.316L722.71 782.848H723.303L723.599 783.316L723.303 783.79ZM724.538 783.816L724.242 784.285H723.654L723.358 783.816L723.654 783.342H724.242L724.538 783.816ZM725.186 783.79H724.593L724.297 783.316L724.593 782.848H725.186L725.477 783.316L725.186 783.79ZM726.421 783.816L726.125 784.285H725.532L725.235 783.816L725.532 783.342H726.125L726.421 783.816ZM727.064 783.79H726.471L726.174 783.316L726.471 782.848H727.064L727.36 783.316L727.064 783.79ZM728.299 783.816L728.003 784.285H727.41L727.119 783.816L727.41 783.342H728.003L728.299 783.816ZM728.942 783.79H728.354L728.058 783.316L728.354 782.848H728.942L729.238 783.316L728.942 783.79ZM729.293 784.285L728.996 783.816L729.293 783.348H729.886L730.177 783.816L729.886 784.285H729.293ZM729.287 785.285L728.991 784.816L729.287 784.342H729.88L730.177 784.816L729.88 785.285H729.287ZM729.287 786.285L728.991 785.816L729.287 785.342H729.875L730.171 785.816L729.875 786.285H729.287ZM729.282 787.285L728.985 786.811L729.282 786.342H729.875L730.171 786.811L729.875 787.285H729.282ZM729.276 788.285L728.985 787.811L729.276 787.342H729.869L730.166 787.811L729.869 788.285H729.276ZM729.276 789.285L728.98 788.811L729.276 788.342H729.864L730.16 788.811L729.864 789.285H729.276ZM729.271 790.28L728.974 789.811L729.271 789.342H729.864L730.16 789.811L729.864 790.28H729.271ZM729.271 791.28L728.974 790.811L729.271 790.337H729.858L730.155 790.811L729.858 791.28H729.271ZM728.969 791.811L729.265 791.337H729.858L730.149 791.811L729.858 792.28H729.265L728.969 791.811ZM728.321 791.842H728.914L729.211 792.311L728.914 792.78H728.321L728.025 792.311L728.321 791.842ZM727.091 791.811L727.382 791.337H727.975L728.272 791.811L727.975 792.28H727.382L727.091 791.811ZM726.443 791.842H727.031L727.327 792.311L727.031 792.78H726.443L726.147 792.311L726.443 791.842ZM725.208 791.811L725.505 791.337H726.097L726.394 791.811L726.097 792.28H725.505L725.208 791.811ZM724.56 791.837H725.153L725.45 792.311L725.153 792.78H724.56L724.264 792.311L724.56 791.837ZM723.33 791.806L723.627 791.337H724.214L724.511 791.806L724.214 792.28H723.627L723.33 791.806ZM722.682 791.837H723.275L723.566 792.311L723.275 792.78H722.682L722.386 792.311L722.682 791.837ZM721.447 791.806L721.744 791.337H722.336L722.633 791.806L722.336 792.28H721.744L721.447 791.806ZM720.799 791.837H721.392L721.689 792.311L721.392 792.78H720.799L720.508 792.311L720.799 791.837ZM720.459 791.337L720.75 791.806L720.459 792.28H719.866L719.569 791.806L719.866 791.337H720.459ZM720.459 790.337L720.755 790.811L720.459 791.28H719.866L719.575 790.811L719.866 790.337H720.459ZM720.464 789.337L720.761 789.811L720.464 790.28H719.871L719.575 789.811L719.871 789.337H720.464ZM720.464 788.337L720.761 788.811L720.464 789.28H719.877L719.58 788.811L719.877 788.337H720.464ZM720.47 787.342L720.766 787.811L720.47 788.28H719.877L719.586 787.811L719.877 787.342H720.47ZM720.475 786.342L720.766 786.811L720.475 787.285H719.882L719.586 786.811L719.882 786.342H720.475ZM720.475 785.342L720.772 785.811L720.475 786.285H719.888L719.591 785.811L719.888 785.342H720.475ZM720.777 784.811L720.481 785.285H719.888L719.591 784.811L719.888 784.342H720.481L720.777 784.811ZM721.42 784.785H720.827L720.536 784.316L720.827 783.848H721.42L721.716 784.316L721.42 784.785ZM722.655 784.816L722.358 785.285H721.771L721.474 784.816L721.771 784.342H722.358L722.655 784.816ZM723.303 784.79H722.71L722.413 784.316L722.71 783.848H723.303L723.594 784.316L723.303 784.79ZM724.538 784.816L724.242 785.285H723.649L723.352 784.816L723.649 784.342H724.242L724.538 784.816ZM725.181 784.79H724.588L724.291 784.316L724.588 783.848H725.181L725.477 784.316L725.181 784.79ZM726.416 784.816L726.119 785.285H725.526L725.235 784.816L725.526 784.342H726.119L726.416 784.816ZM727.058 784.79H726.471L726.174 784.316L726.471 783.848H727.058L727.355 784.316L727.058 784.79ZM728.294 784.816L728.003 785.285H727.41L727.113 784.816L727.41 784.342H728.003L728.294 784.816ZM728.349 784.79L728.052 784.316L728.349 783.848H728.942L729.238 784.316L728.942 784.79H728.349ZM728.343 785.79L728.052 785.316L728.343 784.848H728.936L729.233 785.316L728.936 785.79H728.343ZM728.343 786.785L728.047 786.316L728.343 785.848H728.931L729.227 786.316L728.931 786.785H728.343ZM728.338 787.785L728.041 787.316L728.338 786.842H728.931L729.227 787.316L728.931 787.785H728.338ZM728.338 788.785L728.041 788.316L728.338 787.842H728.925L729.222 788.316L728.925 788.785H728.338ZM728.332 789.785L728.036 789.311L728.332 788.842H728.925L729.216 789.311L728.925 789.785H728.332ZM728.327 790.785L728.036 790.311L728.327 789.842H728.92L729.216 790.311L728.92 790.785H728.327ZM728.327 790.842H728.914L729.211 791.311L728.914 791.785H728.327L728.03 791.311L728.327 790.842ZM727.091 790.811L727.388 790.337H727.981L728.277 790.811L727.981 791.28H727.388L727.091 790.811ZM726.443 790.842H727.036L727.333 791.311L727.036 791.785H726.443L726.147 791.311L726.443 790.842ZM725.214 790.811L725.51 790.337H726.097L726.394 790.811L726.097 791.28H725.51L725.214 790.811ZM724.566 790.842H725.159L725.45 791.311L725.159 791.78H724.566L724.269 791.311L724.566 790.842ZM723.33 790.811L723.627 790.337H724.22L724.516 790.811L724.22 791.28H723.627L723.33 790.811ZM722.682 790.842H723.275L723.572 791.311L723.275 791.78H722.682L722.391 791.311L722.682 790.842ZM721.453 790.811L721.749 790.337H722.342L722.633 790.811L722.342 791.28H721.749L721.453 790.811ZM721.398 790.842L721.694 791.311L721.398 791.78H720.805L720.508 791.311L720.805 790.842H721.398ZM721.398 789.842L721.694 790.311L721.398 790.78H720.81L720.514 790.311L720.81 789.842H721.398ZM721.403 788.842L721.7 789.311L721.403 789.785H720.81L720.514 789.311L720.81 788.842H721.403ZM721.409 787.842L721.7 788.311L721.409 788.785H720.816L720.519 788.311L720.816 787.842H721.409ZM721.409 786.842L721.705 787.316L721.409 787.785H720.821L720.525 787.316L720.821 786.842H721.409ZM721.414 785.842L721.711 786.316L721.414 786.785H720.821L720.525 786.316L720.821 785.842H721.414ZM721.414 785.785H720.827L720.53 785.316L720.827 784.842H721.414L721.711 785.316L721.414 785.785ZM722.649 785.811L722.358 786.285H721.765L721.469 785.811L721.765 785.342H722.358L722.649 785.811ZM723.297 785.785H722.704L722.408 785.316L722.704 784.848H723.297L723.594 785.316L723.297 785.785ZM724.533 785.811L724.236 786.285H723.643L723.352 785.811L723.643 785.342H724.236L724.533 785.811ZM725.175 785.785H724.588L724.291 785.316L724.588 784.848H725.175L725.472 785.316L725.175 785.785ZM726.41 785.811L726.114 786.285H725.526L725.23 785.811L725.526 785.342H726.114L726.41 785.811ZM727.058 785.785H726.465L726.169 785.316L726.465 784.848H727.058L727.355 785.316L727.058 785.785ZM727.404 786.285L727.108 785.816L727.404 785.342H727.997L728.294 785.816L727.997 786.285H727.404ZM727.404 787.285L727.108 786.811L727.404 786.342H727.992L728.288 786.811L727.992 787.285H727.404ZM727.399 788.285L727.102 787.811L727.399 787.342H727.992L728.283 787.811L727.992 788.285H727.399ZM727.393 789.28L727.102 788.811L727.393 788.342H727.986L728.283 788.811L727.986 789.28H727.393ZM727.097 789.811L727.393 789.342H727.981L728.277 789.811L727.981 790.28H727.393L727.097 789.811ZM726.449 789.842H727.042L727.333 790.311L727.042 790.785H726.449L726.152 790.311L726.449 789.842ZM725.214 789.811L725.51 789.337H726.103L726.399 789.811L726.103 790.28H725.51L725.214 789.811ZM724.571 789.842H725.159L725.455 790.311L725.159 790.785H724.571L724.275 790.311L724.571 789.842ZM723.336 789.811L723.632 789.337H724.225L724.516 789.811L724.225 790.28H723.632L723.336 789.811ZM722.688 789.842H723.281L723.577 790.311L723.281 790.785H722.688L722.391 790.311L722.688 789.842ZM722.342 789.337L722.638 789.811L722.342 790.28H721.755L721.458 789.811L721.755 789.337H722.342ZM722.347 788.337L722.644 788.811L722.347 789.28H721.755L721.458 788.811L721.755 788.337H722.347ZM722.347 787.342L722.644 787.811L722.347 788.28H721.76L721.464 787.811L721.76 787.342H722.347ZM722.649 786.811L722.353 787.285H721.76L721.469 786.811L721.76 786.342H722.353L722.649 786.811ZM723.292 786.785H722.704L722.408 786.316L722.704 785.842H723.292L723.588 786.316L723.292 786.785ZM724.527 786.811L724.231 787.285H723.643L723.347 786.811L723.643 786.342H724.231L724.527 786.811ZM725.175 786.785H724.582L724.286 786.316L724.582 785.842H725.175L725.472 786.316L725.175 786.785ZM726.41 786.811L726.114 787.285H725.521L725.224 786.811L725.521 786.342H726.114L726.41 786.811ZM726.46 786.785L726.169 786.316L726.46 785.842H727.053L727.349 786.316L727.053 786.785H726.46ZM726.46 787.785L726.163 787.316L726.46 786.842H727.047L727.344 787.316L727.047 787.785H726.46ZM726.454 788.785L726.158 788.316L726.454 787.842H727.047L727.344 788.316L727.047 788.785H726.454ZM726.454 788.842H727.042L727.338 789.311L727.042 789.785H726.454L726.158 789.311L726.454 788.842ZM725.219 788.811L725.515 788.342H726.108L726.399 788.811L726.108 789.28H725.515L725.219 788.811ZM724.571 788.842H725.164L725.461 789.311L725.164 789.785H724.571L724.275 789.311L724.571 788.842ZM723.341 788.811L723.638 788.342H724.225L724.522 788.811L724.225 789.28H723.638L723.341 788.811ZM723.281 788.842L723.577 789.311L723.281 789.785H722.693L722.397 789.311L722.693 788.842H723.281ZM723.286 787.842L723.583 788.311L723.286 788.785H722.693L722.402 788.311L722.693 787.842H723.286ZM723.292 787.785H722.699L722.402 787.316L722.699 786.842H723.292L723.583 787.316L723.292 787.785ZM724.527 787.811L724.231 788.285H723.638L723.341 787.811L723.638 787.342H724.231L724.527 787.811ZM725.17 787.785H724.577L724.286 787.316L724.577 786.842H725.17L725.466 787.316L725.17 787.785ZM725.461 788.316L725.164 788.785H724.577L724.28 788.316L724.577 787.842H725.164L725.461 788.316ZM725.224 787.811L725.521 787.342H726.108L726.405 787.811L726.108 788.285H725.521L725.224 787.811ZM716.786 781.316L717.082 780.848H717.67L717.966 781.316L717.67 781.79H717.077L716.786 781.316ZM717.033 779.816L716.736 780.29H716.473V780.348H716.736L717.027 780.816L716.736 781.285H716.473V781.342H716.731L717.027 781.816L716.731 782.285H716.473V782.342H716.725L717.022 782.816L716.725 783.285H716.473V783.342H716.725L717.022 783.811L716.725 784.285H716.473V784.342H716.72L717.016 784.811L716.72 785.285H716.473V785.342H716.714L717.011 785.811L716.714 786.285H716.473V786.342H716.714L717.011 786.811L716.714 787.28H716.473V787.337H716.709L717.005 787.811L716.709 788.28H716.473V788.337H716.709L717 788.811L716.709 789.28H716.473V789.337H716.703L717 789.811L716.703 790.28H716.473V790.337H716.698L716.994 790.806L716.698 791.28H716.473V791.337H716.698L716.994 791.806L716.698 792.28H716.473V792.337H716.692L716.989 792.806L716.692 793.275H716.473V793.332H716.687L716.983 793.806L716.687 794.275H716.473V794.332H716.687L716.983 794.806L716.687 795.275H716.473V795.332H716.681L716.978 795.806H717.675L717.972 795.332H718.565L718.856 795.806H719.558L719.849 795.332H720.442L720.739 795.806H721.436L721.733 795.332H722.32L722.617 795.806H723.319H723.314L723.61 795.332H724.203L724.5 795.806H724.494H725.197L725.494 795.332H726.081L726.377 795.806H727.075L727.371 795.337H727.964L728.255 795.806H728.958L729.249 795.337H729.842L730.138 795.806H730.836L731.132 795.337H731.72L732.016 795.806H732.714L733.01 795.337H733.334V795.28H733.015L732.719 794.806L733.015 794.337H733.334V794.28H733.015L732.724 793.806L733.015 793.337H733.334V793.28H733.021L732.724 792.811L733.021 792.337H733.334V792.28H733.026L732.73 791.811L733.026 791.337H733.334V791.28H733.026L732.735 790.811L733.026 790.342H733.334V790.285H733.032L732.735 789.811L733.032 789.342H733.334V789.285H733.037L732.741 788.811L733.037 788.342H733.334V788.285H733.037L732.741 787.811L733.037 787.342H733.334V787.285H733.043L732.746 786.816L733.043 786.342H733.334V786.285H733.043L732.752 785.816L733.043 785.342H733.334V785.285H733.048L732.752 784.816L733.048 784.342H733.334V784.285H733.054L732.757 783.816L733.054 783.348H733.334V783.29H733.054L732.763 782.816L733.054 782.348H733.334V782.29H733.059L732.763 781.816L733.059 781.348H733.334V781.29H733.065L732.768 780.822L733.065 780.348H733.334V780.29H733.065L732.768 779.822L732.774 779.816H732.071V779.822L731.775 780.29H731.187L730.891 779.822V779.816H730.193V779.822L729.897 780.29H729.304L729.013 779.822V779.816H728.31L728.019 780.29H727.426L727.13 779.822V779.816H726.432L726.136 780.29H725.548L725.252 779.816H724.549H724.555L724.258 780.29H723.665L723.369 779.816H723.374H722.671L722.375 780.29H721.787L721.491 779.816H720.794L720.497 780.29H719.904L719.613 779.816H718.91L718.619 780.29H718.026L717.73 779.816H717.033Z" fill="#FAC858"/>
</g>
</g>
</svg>
