<svg width="1440" height="811" viewBox="0 0 1440 811" fill="none" xmlns="http://www.w3.org/2000/svg">
<g opacity="0.1" clip-path="url(#clip0_91_1839)">
<mask id="mask0_91_1839" style="mask-type:luminance" maskUnits="userSpaceOnUse" x="0" y="0" width="800" height="837">
<path d="M0.0585938 0.197494H799.715V836.795H0.0585938V0.197494Z" fill="white"/>
</mask>
<g mask="url(#mask0_91_1839)">
<path d="M71.0945 25.2503L57.0773 48.7107H29.0429L15.0257 25.2556L29.0483 1.79514H57.0773L71.0945 25.2503ZM101.66 26.5666L115.677 50.0271L101.654 73.4822H73.6201L59.6084 50.0271L73.6201 26.5666H101.66ZM118.214 1.81106H146.248L160.265 25.2715L146.248 48.7266H118.208L104.197 25.2715L118.214 1.81106ZM190.825 26.5825L204.843 50.043L190.82 73.5034H162.797L148.779 50.043L162.797 26.5825H190.825ZM207.385 1.82699H235.414L249.431 25.2874L235.414 48.7426H207.379L193.362 25.2874L207.385 1.82699ZM279.996 26.5985L294.014 50.0589L279.996 73.5193H251.962L237.945 50.0589L251.962 26.5985H279.996ZM296.55 1.84291H324.585L338.602 25.3034L324.585 48.7585H296.545L282.533 25.3034L296.55 1.84291ZM369.167 26.6197L383.179 50.0748L369.162 73.53H341.133L327.11 50.0748L341.133 26.6197H369.167ZM385.721 1.86414H413.756L427.767 25.3193L413.756 48.7744H385.721L371.698 25.3193L385.721 1.86414ZM458.333 26.6356L472.35 50.0854L458.327 73.5459H430.298L416.281 50.0907L430.298 26.6356H458.333ZM474.887 1.88006H502.915L516.938 25.3352L502.915 48.7903H474.881L460.869 25.3405L474.887 1.88006ZM547.504 26.6515L561.515 50.1014L547.498 73.5618H519.464L505.447 50.1067L519.464 26.6515H547.504ZM564.057 1.89599H592.086L606.109 25.3511L592.086 48.8063H564.052L550.035 25.3511L564.057 1.89599ZM636.669 26.6675L650.681 50.1173L636.664 73.5777H608.635L594.623 50.1226L608.635 26.6675H636.669ZM653.228 1.9066H681.257L695.275 25.367L681.257 48.8222H653.223L639.206 25.367L653.228 1.9066ZM725.84 26.6834L739.857 50.1332L725.835 73.5937H697.8L683.783 50.1385L697.8 26.6834H725.84ZM742.394 1.92253H770.428L784.44 25.3777L770.428 48.8381H742.388L728.377 25.383L742.394 1.92253ZM784.281 75.1541L770.264 98.6093H742.229L728.212 75.1595L742.229 51.699H770.264L784.281 75.1541ZM784.116 124.925L770.099 148.386H742.064L728.047 124.931L742.064 101.47H770.099L784.116 124.925ZM783.957 174.702L769.94 198.157H741.905L727.883 174.702L741.905 151.241H769.94L783.957 174.702ZM783.792 224.473L769.775 247.933H741.741L727.723 224.473L741.741 201.013H769.775L783.792 224.473ZM783.627 274.244L769.61 297.705H741.576L727.559 274.249L741.581 250.789H769.61L783.627 274.244ZM783.468 324.015L769.445 347.476H741.417L727.399 324.021L741.417 300.566H769.445L783.468 324.015ZM783.298 373.792L769.286 397.252H741.252L727.235 373.797L741.257 350.337H769.286L783.298 373.792ZM783.139 423.568L769.122 447.023H741.087L727.075 423.574L741.093 400.113H769.122L783.139 423.568ZM782.98 473.345L768.957 496.8H740.928L726.911 473.345L740.933 449.884H768.957L782.98 473.345ZM782.815 523.116L768.798 546.571H740.763L726.752 523.116L740.763 499.656H768.798L782.815 523.116ZM782.656 572.887L768.633 596.342H740.604L726.587 572.892L740.604 549.427H768.633L782.656 572.887ZM782.491 622.658L768.474 646.113H740.439L726.422 622.664L740.439 599.203H768.474L782.491 622.658ZM782.326 672.435L768.309 695.89H740.275L726.257 672.44L740.275 648.98H768.309L782.326 672.435ZM782.167 722.206L768.15 745.666H740.11L726.098 722.211L740.115 698.751H768.15L782.167 722.206ZM782.002 771.982L767.985 795.438H739.951L725.933 771.982L739.951 748.527H767.985L782.002 771.982ZM695.522 770.422L681.51 746.967L695.522 723.506H723.562L737.573 746.961L723.556 770.422H695.522ZM678.814 795.422H650.78L636.768 771.967L650.785 748.506H678.814L692.831 771.967L678.814 795.422ZM606.356 770.406L592.344 746.951L606.356 723.49H634.391L648.408 746.946L634.385 770.406H606.356ZM589.649 795.411H561.614L547.597 771.951L561.614 748.49H589.649L603.66 771.951L589.649 795.411ZM517.185 770.39L503.168 746.935L517.185 723.474H545.225L559.237 746.93L545.22 770.39H517.185ZM500.478 795.39H472.443L458.432 771.935L472.449 748.474H500.478L514.5 771.935L500.478 795.39ZM428.02 770.374L414.003 746.919L428.02 723.459H456.054L470.071 746.919L456.054 770.374H428.02ZM411.307 795.374H383.278L369.261 771.919L383.278 748.458H411.307L425.329 771.913L411.307 795.374ZM338.854 770.358L324.832 746.898L338.854 723.443H366.889L380.9 746.898L366.883 770.358H338.854ZM322.141 795.358H294.107L280.09 771.903L294.107 748.448H322.141L336.159 771.903L322.141 795.358ZM249.683 770.342L235.666 746.887L249.683 723.427H277.718L291.735 746.882L277.718 770.342H249.683ZM232.97 795.342H204.936L190.924 771.887L204.941 748.432H232.97L246.988 771.887L232.97 795.342ZM160.518 770.326L146.501 746.871L160.518 723.411H188.547L202.564 746.866L188.541 770.326H160.518ZM143.805 795.326H115.771L101.753 771.871L115.771 748.416H143.805L157.822 771.871L143.805 795.326ZM71.3415 770.31L57.3298 746.855L71.3415 723.395H99.3814L113.399 746.85L99.3759 770.31H71.3415ZM54.634 795.31H26.5996L12.5879 771.86L26.6051 748.4H54.634L68.6567 771.855L54.634 795.31ZM12.7526 722.084L26.7698 698.623H54.7987L68.8159 722.079L54.7987 745.539H26.7643L12.7526 722.084ZM12.9118 672.313L26.929 648.852H54.9634L68.9751 672.307L54.9634 695.763H26.929L12.9118 672.313ZM13.0765 622.536L27.0937 599.076H55.1227L69.1399 622.536L55.1227 645.991H27.0882L13.0765 622.536ZM13.2358 572.765L27.2584 549.305H55.2874L69.3046 572.765L55.2874 596.22H27.253L13.2358 572.765ZM13.4005 522.994L27.4177 499.533H55.4466L69.4638 522.989L55.4466 546.449H27.4177L13.4005 522.994ZM13.5597 473.217L27.5824 449.757H55.6113L69.6285 473.217L55.6113 496.673H27.5824L13.5597 473.217ZM13.7244 423.446L27.7416 399.986H55.776L69.7932 423.441L55.776 446.896H27.7416L13.7244 423.446ZM13.8836 373.67L27.9063 350.209H55.9407L69.9579 373.664L55.9407 397.125H27.9008L13.8836 373.67ZM14.0483 323.899L28.071 300.438H56.1L70.1172 323.893L56.1 347.354H28.0655L14.0483 323.899ZM14.2131 274.122L28.2303 250.662H56.2647L70.2819 274.122L56.2647 297.583H28.2248L14.2131 274.122ZM14.3778 224.351L28.395 200.89H56.4294L70.4466 224.351L56.4294 247.806H28.3895L14.3778 224.351ZM14.5425 174.58L28.5597 151.119H56.5886L70.6058 174.574L56.5886 198.03H28.5542L14.5425 174.58ZM14.7017 124.803L28.7189 101.343H56.7478L70.7705 124.798L56.7478 148.258H28.7189L14.7017 124.803ZM115.512 99.7982L101.495 123.253H73.4609L59.4437 99.7982L73.4609 76.3431H101.501L115.512 99.7982ZM146.083 98.4978H118.049L104.032 75.0427L118.049 51.5875H146.083L160.101 75.0427L146.083 98.4978ZM204.678 99.8142L190.661 123.275H162.632L148.615 99.8142L162.632 76.359H190.666L204.678 99.8142ZM235.249 98.5137H207.22L193.203 75.0586L207.22 51.5982H235.249L249.266 75.0586L235.249 98.5137ZM293.849 99.8301L279.832 123.291H251.797L237.78 99.8301L251.797 76.3749H279.832L293.849 99.8301ZM324.42 98.535H296.385L282.368 75.0745L296.391 51.6141H324.42L338.437 75.0745L324.42 98.535ZM383.014 99.846L368.997 123.306H340.968L326.951 99.846L340.968 76.3909H369.003L383.014 99.846ZM413.591 98.5509H385.556L371.539 75.0905L385.556 51.6353H413.591L427.608 75.0905L413.591 98.5509ZM472.185 99.8619L458.168 123.322H430.134L416.116 99.8672L430.134 76.4068H458.168L472.185 99.8619ZM502.756 98.5615H474.722L460.71 75.1117L474.727 51.6512H502.756L516.773 75.1064L502.756 98.5615ZM561.356 99.8778L547.339 123.338H519.305L505.282 99.8832L519.305 76.4227H547.339L561.356 99.8778ZM591.927 98.5774H563.893L549.876 75.1276L563.893 51.6672H591.927L605.939 75.1223L591.927 98.5774ZM650.522 99.8938L636.504 123.354H608.476L594.458 99.8938L608.476 76.4386H636.504L650.522 99.8938ZM681.093 98.5934H653.058L639.041 75.1435L653.064 51.6831H681.093L695.11 75.1382L681.093 98.5934ZM697.635 123.37L683.624 99.9097L697.635 76.4546H725.675L739.693 99.9097L725.675 123.37H697.635ZM697.476 173.141L683.459 149.686L697.476 126.226H725.511L739.528 149.681L725.511 173.141H697.476ZM697.317 222.918L683.3 199.457L697.317 175.997H725.351L739.363 199.457L725.346 222.918H697.317ZM697.152 272.689L683.135 249.229L697.152 225.773H725.187L739.204 249.229L725.181 272.689H697.152ZM696.993 322.46L682.97 299.005L696.993 275.545H725.027L739.039 299L725.017 322.46H696.993ZM696.828 372.231L682.811 348.776L696.828 325.321H724.863L738.875 348.776L724.857 372.231H696.828ZM696.664 422.008L682.652 398.553L696.664 375.092H724.698L738.715 398.547L724.698 422.008H696.664ZM696.504 471.784L682.487 448.324L696.504 424.869H724.533L738.551 448.324L724.528 471.784H696.504ZM696.34 521.555L682.323 498.1L696.34 474.64H724.374L738.391 498.095L724.369 521.555H696.34ZM696.175 571.327L682.158 547.872L696.175 524.411H724.209L738.227 547.872L724.209 571.327H696.175ZM696.01 621.098L681.999 597.643L696.01 574.188H724.045L738.067 597.637L724.045 621.098H696.01ZM695.851 670.874L681.834 647.419L695.851 623.959H723.885L737.903 647.414L723.885 670.874H695.851ZM681.669 697.19L695.686 673.735H723.721L737.743 697.19L723.721 720.645H695.686L681.669 697.19ZM650.95 698.735H678.973L692.996 722.195L678.973 745.65H650.944L636.927 722.195L650.95 698.735ZM592.504 697.18L606.521 673.719H634.555L648.567 697.174L634.55 720.635H606.521L592.504 697.18ZM561.773 698.719H589.808L603.831 722.179L589.808 745.635H561.773L547.756 722.179L561.773 698.719ZM503.333 697.164L517.35 673.703H545.384L559.402 697.158L545.384 720.619H517.35L503.333 697.164ZM472.608 698.703H500.642L514.66 722.163L500.642 745.619H472.603L458.591 722.163L472.608 698.703ZM414.167 697.148L428.179 673.687H456.219L470.236 697.143L456.213 720.603H428.179L414.167 697.148ZM383.443 698.687H411.477L425.489 722.142L411.477 745.603H383.443L369.42 722.148L383.443 698.687ZM324.996 697.132L339.014 673.671H367.048L381.065 697.127L367.048 720.587H339.014L324.996 697.132ZM294.272 698.671H322.306L336.323 722.126L322.306 745.587H294.266L280.254 722.132L294.272 698.671ZM235.831 697.111L249.843 673.656H277.877L291.9 697.111L277.877 720.571H249.843L235.831 697.111ZM205.106 698.655H233.135L247.152 722.11L233.135 745.571H205.101L191.089 722.116L205.106 698.655ZM146.66 697.095L160.677 673.64H188.712L202.729 697.095L188.706 720.555H160.677L146.66 697.095ZM115.935 698.639H143.97L157.987 722.094L143.97 745.555H115.93L101.918 722.1L115.935 698.639ZM99.5462 673.624L113.563 697.079L99.5407 720.534H71.5062L57.489 697.079L71.5062 673.624H99.5462ZM99.7054 623.847L113.723 647.308L99.7054 670.768H71.671L57.6538 647.308L71.671 623.847H99.7054ZM99.8701 574.076L113.887 597.531L99.8701 620.992H71.8357L57.8185 597.536L71.8357 574.076H99.8701ZM100.029 524.305L114.052 547.76L100.029 571.22H71.9949L57.9832 547.76L71.9949 524.305H100.029ZM100.194 474.534L114.211 497.984L100.189 521.444H72.1596L58.1424 497.989L72.1596 474.534H100.194ZM100.359 424.757L114.37 448.212L100.353 471.667H72.3243L58.3071 448.212L72.3243 424.757H100.359ZM100.518 374.981L114.535 398.436L100.512 421.896H72.4836L58.4718 398.441L72.4836 374.981H100.518ZM100.683 325.21L114.694 348.665L100.677 372.125H72.6483L58.6311 348.665L72.6483 325.21H100.683ZM100.847 275.438L114.859 298.894L100.842 322.354H72.813L58.7958 298.894L72.813 275.438H100.847ZM101.007 225.667L115.024 249.117L101.001 272.577H72.9777L58.955 249.122L72.9777 225.667H101.007ZM101.171 175.891L115.183 199.346L101.166 222.806H73.1369L59.1197 199.346L73.1369 175.891H101.171ZM115.348 149.569L101.331 173.03H73.2962L59.2789 149.575L73.2962 126.12H101.336L115.348 149.569ZM145.924 148.274H117.884L103.867 124.819L117.89 101.359H145.924L159.936 124.814L145.924 148.274ZM204.519 149.585L190.496 173.046H162.467L148.45 149.591L162.467 126.135H190.501L204.519 149.585ZM235.09 148.285H207.055L193.038 124.835L207.061 101.375H235.09L249.107 124.83L235.09 148.285ZM293.69 149.601L279.667 173.062H251.633L237.615 149.607L251.633 126.146H279.672L293.69 149.601ZM324.261 148.306H296.221L282.209 124.851L296.226 101.391H324.261L338.278 124.846L324.261 148.306ZM382.855 149.617L368.832 173.078H340.803L326.786 149.617L340.803 126.162H368.838L382.855 149.617ZM413.426 148.322H385.392L371.374 124.867L385.397 101.406H413.426L427.443 124.862L413.426 148.322ZM472.026 149.633L458.009 173.094H429.974L415.957 149.633L429.974 126.178H458.009L472.026 149.633ZM502.592 148.338H474.557L460.545 124.883L474.563 101.422H502.592L516.614 124.878L502.592 148.338ZM561.191 149.654L547.169 173.109H519.14L505.123 149.654L519.14 126.194H547.174L561.191 149.654ZM591.763 148.354H563.728L549.711 124.899L563.734 101.438H591.763L605.78 124.899L591.763 148.354ZM650.362 149.665L636.34 173.125H608.311L594.294 149.67L608.311 126.21H636.34L650.362 149.665ZM652.893 148.37L638.882 124.915L652.904 101.454H680.928L694.951 124.915L680.928 148.37H652.893ZM652.734 198.141L638.717 174.686L652.74 151.225H680.769L694.786 174.686L680.769 198.141H652.734ZM652.57 247.912L638.558 224.462L652.575 200.997H680.604L694.621 224.457L680.604 247.912H652.57ZM652.405 297.689L638.393 274.234L652.41 250.773H680.445L694.462 274.228L680.445 297.689H652.405ZM652.246 347.46L638.228 324.01L652.251 300.55H680.28L694.297 324.005L680.28 347.46H652.246ZM652.081 397.236L638.069 373.781L652.081 350.321H680.121L694.133 373.781L680.121 397.236H652.081ZM651.922 447.013L637.899 423.558L651.922 400.097H679.956L693.973 423.552L679.956 447.013H651.922ZM651.757 496.784L637.74 473.324L651.757 449.868H679.791L693.809 473.324L679.791 496.784H651.757ZM651.598 546.555L637.575 523.1L651.598 499.64H679.632L693.644 523.095L679.632 546.555H651.598ZM651.433 596.326L637.416 572.876L651.439 549.416H679.462L693.485 572.871L679.462 596.326H651.433ZM651.268 646.103L637.257 622.648L651.274 599.187H679.303L693.32 622.648L679.303 646.103H651.268ZM651.115 648.964H679.143L693.155 672.419L679.143 695.874H651.104L637.092 672.424L651.115 648.964ZM592.668 647.403L606.686 623.948H634.715L648.732 647.398L634.715 670.858H606.686L592.668 647.403ZM561.938 648.948H589.973L603.99 672.403L589.973 695.858H561.938L547.921 672.408L561.938 648.948ZM503.497 647.387L517.515 623.932H545.549L559.566 647.382L545.544 670.842H517.515L503.497 647.387ZM472.773 648.932H500.802L514.819 672.387L500.802 695.842H472.767L458.756 672.392L472.773 648.932ZM414.327 647.371L428.344 623.916H456.378L470.395 647.371L456.373 670.827H428.344L414.327 647.371ZM383.602 648.916H411.636L425.653 672.371L411.636 695.832H383.602L369.585 672.371L383.602 648.916ZM325.161 647.355L339.178 623.9H367.213L381.23 647.355L367.207 670.811H339.178L325.161 647.355ZM294.436 648.9H322.465L336.488 672.355L322.465 695.816H294.431L280.419 672.355L294.436 648.9ZM235.99 647.34L250.007 623.884H278.042L292.059 647.34L278.042 670.8H250.007L235.99 647.34ZM205.271 648.884H233.3L247.312 672.339L233.3 695.8H205.265L191.248 672.339L205.271 648.884ZM146.825 647.324L160.842 623.863H188.876L202.888 647.324L188.871 670.784H160.842L146.825 647.324ZM144.134 648.868L158.146 672.323L144.134 695.778H116.094L102.077 672.323L116.1 648.868H144.134ZM144.294 599.092L158.311 622.552L144.294 646.007H116.259L102.242 622.552L116.259 599.092H144.294ZM144.458 549.321L158.476 572.781L144.458 596.236H116.418L102.407 572.781L116.424 549.321H144.458ZM144.618 499.549L158.635 523.005L144.618 546.46H116.583L102.571 523.01L116.589 499.549H144.618ZM144.777 449.773L158.799 473.228L144.777 496.688H116.748L102.731 473.233L116.748 449.773H144.777ZM144.941 400.002L158.959 423.457L144.941 446.912H116.907L102.895 423.462L116.913 400.002H144.941ZM145.106 350.225L159.123 373.68L145.106 397.141H117.072L103.06 373.686L117.077 350.225H145.106ZM145.271 300.449L159.288 323.909L145.271 347.37H117.236L103.219 323.909L117.242 300.449H145.271ZM145.43 250.683L159.447 274.138L145.43 297.593H117.401L103.384 274.138L117.401 250.683H145.43ZM145.595 200.906L159.612 224.367L145.595 247.822H117.56L103.543 224.367L117.566 200.906H145.595ZM145.76 198.045H117.725L103.708 174.596L117.725 151.135H145.76L159.777 174.59L145.76 198.045ZM204.354 199.356L190.337 222.822H162.302L148.291 199.362L162.302 175.907H190.337L204.354 199.356ZM234.925 198.061H206.891L192.879 174.612L206.896 151.151H234.925L248.942 174.606L234.925 198.061ZM293.525 199.372L279.502 222.833H251.473L237.456 199.378L251.473 175.923H279.508L293.525 199.372ZM324.096 198.077H296.056L282.044 174.622L296.062 151.167H324.096L338.113 174.622L324.096 198.077ZM382.69 199.388L368.673 222.849H340.644L326.627 199.394L340.644 175.939H368.673L382.69 199.388ZM413.261 198.093H385.227L371.215 174.638L385.232 151.178H413.261L427.279 174.638L413.261 198.093ZM471.861 199.404L457.844 222.865H429.81L415.792 199.41L429.81 175.954H457.844L471.861 199.404ZM502.432 198.109H474.392L460.381 174.654L474.398 151.194H502.432L516.45 174.654L502.432 198.109ZM561.027 199.426L547.01 222.881H518.981L504.963 199.426L518.981 175.97H547.015L561.027 199.426ZM591.598 198.125H563.569L549.546 174.67L563.569 151.21H591.598L605.62 174.67L591.598 198.125ZM608.146 222.902L594.134 199.441L608.146 175.981H636.18L650.198 199.441L636.18 222.902H608.146ZM607.987 272.673L593.964 249.213L607.987 225.757H636.016L650.038 249.213L636.016 272.673H607.987ZM607.817 322.444L593.799 298.989L607.817 275.534H635.857L649.874 298.984L635.851 322.444H607.817ZM607.657 372.221L593.64 348.76L607.657 325.305H635.697L649.709 348.76L635.692 372.221H607.657ZM607.493 421.992L593.476 398.537L607.493 375.082H635.533L649.55 398.531L635.527 421.992H607.493ZM607.333 471.768L593.316 448.313L607.333 424.853H635.368L649.385 448.308L635.362 471.768H607.333ZM607.169 521.54L593.152 498.079L607.169 474.624H635.203L649.22 498.079L635.203 521.54H607.169ZM607.01 571.311L592.987 547.856L607.01 524.4H635.044L649.056 547.85L635.038 571.311H607.01ZM592.828 597.627L606.845 574.172H634.879L648.896 597.627L634.879 621.087H606.845L592.828 597.627ZM562.103 599.171H590.137L604.154 622.632L590.137 646.087H562.097L548.086 622.632L562.103 599.171ZM503.657 597.611L517.674 574.156H545.714L559.726 597.611L545.714 621.071H517.674L503.657 597.611ZM472.937 599.155H500.966L514.984 622.616L500.966 646.071H472.932L458.92 622.616L472.937 599.155ZM414.491 597.595L428.508 574.14H456.543L470.555 597.595L456.543 621.055H428.508L414.491 597.595ZM383.767 599.139H411.801L425.818 622.6L411.801 646.055H383.767L369.744 622.605L383.767 599.139ZM325.32 597.584L339.338 574.124H367.377L381.389 597.579L367.372 621.039H339.338L325.32 597.584ZM294.601 599.129H322.63L336.647 622.584L322.63 646.039H294.596L280.578 622.584L294.601 599.129ZM236.155 597.568L250.172 574.113H278.206L292.224 597.563L278.201 621.023H250.172L236.155 597.568ZM205.43 599.108H233.459L247.476 622.568L233.459 646.023H205.43L191.413 622.568L205.43 599.108ZM189.036 574.092L203.053 597.547L189.036 621.008H161.007L146.984 597.552L161.007 574.092H189.036ZM189.2 524.321L203.217 547.776L189.195 571.236H161.166L147.149 547.776L161.166 524.321H189.2ZM189.365 474.55L203.377 497.999L189.359 521.46H161.325L147.308 498.005L161.325 474.55H189.365ZM189.53 424.773L203.541 448.228L189.524 471.683H161.49L147.473 448.228L161.49 424.773H189.53ZM189.689 374.997L203.706 398.452L189.689 421.912H161.654L147.637 398.457L161.654 374.997H189.689ZM189.848 325.226L203.871 348.681L189.848 372.141H161.814L147.802 348.681L161.814 325.226H189.848ZM190.013 275.454L204.03 298.904L190.013 322.37H161.978L147.961 298.909L161.978 275.454H190.013ZM204.195 249.133L190.172 272.593H162.143L148.126 249.138L162.143 225.683H190.178L204.195 249.133ZM234.76 247.838H206.726L192.714 224.383L206.731 200.922H234.76L248.783 224.377L234.76 247.838ZM293.36 249.149L279.343 272.609H251.309L237.291 249.154L251.309 225.694H279.349L293.36 249.149ZM323.931 247.854H295.897L281.88 224.399L295.902 200.938H323.931L337.948 224.393L323.931 247.854ZM382.526 249.165L368.508 272.625H340.48L326.462 249.17L340.48 225.71H368.514L382.526 249.165ZM413.102 247.864H385.068L371.051 224.415L385.073 200.954H413.102L427.114 224.409L413.102 247.864ZM471.697 249.181L457.679 272.641H429.645L415.628 249.186L429.645 225.726H457.685L471.697 249.181ZM502.273 247.88H474.233L460.221 224.431L474.239 200.97H502.273L516.285 224.425L502.273 247.88ZM560.868 249.197L546.845 272.657H518.821L504.799 249.202L518.821 225.742H546.85L560.868 249.197ZM563.404 247.896L549.387 224.446L563.404 200.986H591.439L605.45 224.441L591.439 247.896H563.404ZM563.239 297.673L549.228 274.218L563.245 250.757H591.274L605.291 274.212L591.274 297.673H563.239ZM563.075 347.444L549.063 323.994L563.08 300.534H591.109L605.126 323.989L591.109 347.444H563.075ZM562.915 397.22L548.904 373.765L562.921 350.305H590.95L604.967 373.765L590.95 397.22H562.915ZM562.751 446.997L548.734 423.536L562.756 400.081H590.785L604.802 423.536L590.785 446.997H562.751ZM562.586 496.768L548.574 473.308L562.592 449.852H590.62L604.643 473.308L590.62 496.768H562.586ZM562.421 546.539L548.41 523.084L562.427 499.624H590.461L604.484 523.079L590.461 546.539H562.421ZM562.268 549.4H590.297L604.319 572.855L590.297 596.31H562.262L548.245 572.861L562.268 549.4ZM503.821 547.84L517.839 524.385H545.873L559.89 547.834L545.873 571.295H517.839L503.821 547.84ZM473.102 549.384H501.131L515.143 572.839L501.131 596.294H473.097L459.079 572.845L473.102 549.384ZM414.656 547.824L428.673 524.369H456.708L470.719 547.818L456.702 571.279H428.673L414.656 547.824ZM383.931 549.368H411.966L425.977 572.823L411.966 596.279H383.926L369.909 572.829L383.931 549.368ZM325.485 547.808L339.502 524.353H367.537L381.554 547.803L367.537 571.263H339.502L325.485 547.808ZM294.76 549.352H322.789L336.812 572.813L322.789 596.268H294.755L280.743 572.813L294.76 549.352ZM236.32 547.792L250.337 524.337H278.366L292.383 547.792L278.366 571.252H250.337L236.32 547.792ZM233.624 549.336L247.641 572.797L233.624 596.252H205.589L191.572 572.797L205.589 549.336H233.624ZM233.788 499.565L247.806 523.02L233.788 546.476H205.754L191.737 523.02L205.754 499.565H233.788ZM233.953 449.789L247.965 473.244L233.953 496.704H205.913L191.896 473.249L205.919 449.789H233.953ZM234.112 400.018L248.13 423.473L234.112 446.928H206.078L192.061 423.473L206.078 400.018H234.112ZM234.277 350.241L248.294 373.696L234.277 397.157H206.237L192.226 373.702L206.243 350.241H234.277ZM234.436 300.47L248.459 323.925L234.436 347.386H206.402L192.385 323.925L206.407 300.47H234.436ZM234.601 297.609H206.567L192.549 274.159L206.567 250.699H234.601L248.618 274.154L234.601 297.609ZM293.195 298.925L279.178 322.386H251.149L237.127 298.925L251.149 275.47H279.184L293.195 298.925ZM323.772 297.625H295.738L281.715 274.175L295.738 250.715H323.772L337.784 274.17L323.772 297.625ZM382.366 298.936L368.344 322.402H340.315L326.303 298.941L340.315 275.486H368.349L382.366 298.936ZM412.937 297.641H384.903L370.891 274.191L384.909 250.725H412.937L426.955 274.186L412.937 297.641ZM471.537 298.952L457.515 322.412H429.48L415.469 298.957L429.48 275.502H457.52L471.537 298.952ZM502.108 297.657H474.068L460.051 274.202L474.074 250.741H502.108L516.126 274.196L502.108 297.657ZM518.651 322.428L504.639 298.973L518.651 275.518H546.686L560.703 298.968L546.68 322.428H518.651ZM518.492 372.205L504.475 348.744L518.492 325.289H546.526L560.538 348.744L546.521 372.205H518.492ZM518.327 421.976L504.31 398.521L518.327 375.066H546.356L560.379 398.515L546.356 421.976H518.327ZM518.163 471.752L504.151 448.292L518.163 424.837H546.197L560.214 448.292L546.197 471.752H518.163ZM503.986 498.063L518.003 474.608H546.032L560.055 498.063L546.032 521.524H518.003L503.986 498.063ZM473.261 499.608H501.29L515.307 523.063L501.29 546.523H473.256L459.244 523.068L473.261 499.608ZM414.815 498.047L428.838 474.592H456.867L470.884 498.047L456.861 521.508H428.838L414.815 498.047ZM384.09 499.592H412.125L426.142 523.052L412.125 546.507H384.085L370.073 523.052L384.09 499.592ZM325.65 498.037L339.661 474.576H367.701L381.719 498.031L367.696 521.492H339.661L325.65 498.037ZM294.925 499.581H322.954L336.971 523.036L322.954 546.491H294.919L280.908 523.036L294.925 499.581ZM278.53 474.566L292.542 498.015L278.525 521.476H250.496L236.479 498.021L250.496 474.566H278.53ZM278.695 424.789L292.707 448.244L278.69 471.699H250.661L236.644 448.244L250.661 424.789H278.695ZM278.86 375.013L292.872 398.473L278.854 421.928H250.825L236.803 398.473L250.825 375.013H278.86ZM293.036 348.697L279.014 372.157H250.985L236.967 348.702L250.985 325.241H279.019L293.036 348.697ZM323.607 347.401H295.573L281.556 323.946L295.573 300.486H323.607L337.624 323.941L323.607 347.401ZM382.207 348.712L368.185 372.173H340.156L326.138 348.712L340.156 325.257H368.185L382.207 348.712ZM412.773 347.412H384.738L370.727 323.962L384.744 300.502H412.773L426.795 323.957L412.773 347.412ZM471.373 348.728L457.355 372.189H429.321L415.304 348.728L429.321 325.273H457.361L471.373 348.728ZM473.909 347.428L459.892 323.978L473.909 300.518H501.944L515.961 323.973L501.944 347.428H473.909ZM473.75 397.204L459.727 373.749L473.75 350.289H501.784L515.802 373.749L501.784 397.204H473.75ZM473.585 446.981L459.568 423.521L473.585 400.06H501.614L515.637 423.521L501.614 446.981H473.585ZM473.426 449.837H501.455L515.472 473.292L501.455 496.752H473.421L459.403 473.297L473.426 449.837ZM414.98 448.276L428.997 424.816H457.032L471.043 448.276L457.026 471.737H428.997L414.98 448.276ZM384.255 449.821H412.29L426.301 473.276L412.29 496.731H384.25L370.238 473.281L384.255 449.821ZM325.809 448.26L339.826 424.805H367.861L381.878 448.26L367.861 471.721H339.826L325.809 448.26ZM323.119 449.805L337.136 473.26L323.119 496.72H295.084L281.067 473.265L295.09 449.805H323.119ZM323.278 400.028L337.295 423.489L323.278 446.944H295.249L281.232 423.489L295.249 400.028H323.278ZM323.443 397.173H295.408L281.391 373.718L295.414 350.257H323.443L337.46 373.718L323.443 397.173ZM382.042 398.489L368.025 421.949H339.991L325.974 398.489L339.991 375.029H368.025L382.042 398.489ZM412.613 397.189H384.579L370.562 373.733L384.579 350.273H412.613L426.631 373.733L412.613 397.189ZM426.466 423.505L412.449 446.965H384.414L370.397 423.505L384.414 400.044H412.449L426.466 423.505ZM415.139 398.505L429.162 375.044H457.191L471.208 398.505L457.191 421.96H429.162L415.139 398.505ZM14.8664 75.0268L28.8836 51.5663H56.9125L70.9297 75.0268L56.9125 98.4819H28.8781L14.8664 75.0268ZM26.649 0.197494L26.6655 0.234648L12.6483 23.6951H0.0585938V26.556H12.489L26.5063 50.0058L12.4836 73.4663H0.0585938V76.3272H12.3243L26.3415 99.777L12.3243 123.237H0.0585938V126.104H12.1651L26.1823 149.553L12.1596 173.014H0.0585938V175.875H12.0004L26.0176 199.33L12.0004 222.79H0.0585938V225.646H11.8412L25.8584 249.101L11.8357 272.562H0.0585938V275.417H11.6765L25.6937 298.878L11.6765 322.338H0.0585938V325.194H11.5172L25.5289 348.649L11.5117 372.109H0.0585938V374.965H11.3525L25.3697 398.42L11.347 421.88H0.0585938V424.741H11.1878L25.205 448.196L11.1878 471.657H0.0585938V474.518H11.0286L25.0403 497.968L11.0231 521.428H0.0585938V524.289H10.8639L24.8756 547.744L10.8584 571.205H0.0585938V574.06H10.6992L24.7164 597.515L10.6992 620.976H0.0585938V623.831H10.5399L24.5516 647.292L10.5344 670.747H0.0585938V673.608H10.3752L24.3869 697.063L10.3697 720.523H0.0585938V723.384H10.2105L24.2277 746.834L10.2105 770.295H0.0585938V773.155H10.0458L24.0685 796.611L23.9751 796.759H57.2475L57.1651 796.627L71.1823 773.171H99.2222L113.234 796.627L113.152 796.759H146.407L146.336 796.642L160.353 773.187H188.388L202.399 796.637L202.328 796.759H235.567L235.501 796.658L249.519 773.203H277.559L291.57 796.653L291.504 796.759H324.727L324.672 796.674L338.69 773.219H366.724L380.736 796.669L380.686 796.759H413.882L413.838 796.69L427.855 773.235H455.889L469.907 796.69L469.863 796.759H503.042L503.009 796.706L517.026 773.246H545.06L559.078 796.706L559.039 796.759H592.202L592.174 796.722L606.197 773.262H634.226L648.243 796.722L648.221 796.759H681.356L681.345 796.738L695.362 773.283H723.402L737.414 796.738L737.398 796.759H770.516V796.754L784.533 773.299H799.72V770.438H784.693L770.675 746.983L784.693 723.522H799.72V720.661H784.857L770.84 697.206L784.857 673.751H799.72V670.89H785.022L770.999 647.43L785.022 623.975H799.72V621.114H785.181L771.164 597.659L785.181 574.203H799.72V571.348H785.346L771.329 547.887L785.346 524.427H799.72V521.571H785.505L771.488 498.116L785.505 474.656H799.72V471.795H785.67L771.653 448.34L785.67 424.885H799.72V422.024H785.829L771.817 398.569L785.829 375.108H799.72V372.247H785.994L771.977 348.792L785.994 325.337H799.72V322.476H786.159L772.141 299.016L786.159 275.561H799.72V272.705H786.318L772.306 249.244L786.318 225.789H799.72V222.934H786.488L772.465 199.473L786.488 176.018H799.72V173.157H786.647L772.63 149.702L786.647 126.247H799.72V123.381H786.812L772.795 99.9256L786.812 76.4705H799.72V73.6096H786.977L772.954 50.1544L786.977 26.694H799.72V23.8331H787.136L773.119 0.377959L773.223 0.197494H739.918L740.022 0.362035L725.999 23.8225H697.965L683.948 0.362035L684.047 0.197494H650.758L650.846 0.346111L636.828 23.8066H608.799L594.782 0.346111L594.87 0.197494H561.598L561.68 0.330189L547.663 23.7906H519.629L505.611 0.335496L505.694 0.197494H472.438L472.509 0.314265L458.492 23.7747H430.463L416.446 0.319572L416.517 0.197494H383.278L383.344 0.298341L369.327 23.7588H341.292L327.275 0.303649L327.341 0.197494H294.123L294.178 0.282419L280.156 23.7429H252.121L238.109 0.287726L238.159 0.197494H204.963L205.007 0.266495L190.985 23.7269H162.956L148.939 0.271803L148.982 0.197494H115.803L115.836 0.250571L101.819 23.711H73.7848L59.7676 0.255879L59.806 0.197494H26.649Z" fill="#FABA2A"/>
</g>
<mask id="mask1_91_1839" style="mask-type:luminance" maskUnits="userSpaceOnUse" x="799" y="0" width="641" height="837">
<path d="M799.715 0.197494H1439.3V836.795H799.715V0.197494Z" fill="white"/>
</mask>
<g mask="url(#mask1_91_1839)">
<path d="M870.751 26.9897L856.734 52.079H828.694L814.676 26.9954L828.699 1.90606H856.734L870.751 26.9897ZM901.311 28.3974L915.328 53.4867L901.305 78.5703H873.276L859.259 53.4867L873.276 28.3974H901.311ZM917.87 1.92309H945.899L959.916 27.0124L945.899 52.096H917.865L903.847 27.0124L917.87 1.92309ZM990.476 28.4144L1004.5 53.5037L990.476 78.593H962.447L948.43 53.5037L962.447 28.4144H990.476ZM1007.04 1.94012H1035.06L1049.09 27.0294L1035.06 52.1131H1007.03L993.018 27.0294L1007.04 1.94012ZM1079.65 28.4315L1093.66 53.5208L1079.65 78.6101H1051.61L1037.6 53.5208L1051.61 28.4315H1079.65ZM1096.2 1.95715H1124.24L1138.25 27.0465L1124.24 52.1301H1096.2L1082.18 27.0465L1096.2 1.95715ZM1168.82 28.4542L1182.83 53.5378L1168.81 78.6214H1140.78L1126.77 53.5378L1140.78 28.4542H1168.82ZM1185.37 1.97986H1213.41L1227.42 27.0635L1213.41 52.1471H1185.37L1171.35 27.0635L1185.37 1.97986ZM1257.99 28.4712L1272 53.5492L1257.98 78.6385H1229.95L1215.93 53.5548L1229.95 28.4712H1257.99ZM1274.54 1.99689H1302.57L1316.59 27.0805L1302.57 52.1641H1274.54L1260.52 27.0862L1274.54 1.99689ZM1347.15 28.4882L1361.17 53.5662L1347.15 78.6555H1319.12L1305.1 53.5719L1319.12 28.4882H1347.15ZM1363.71 2.01391H1391.74L1405.76 27.0975L1391.74 52.1812H1363.71L1349.69 27.0975L1363.71 2.01391ZM1436.32 28.5053L1450.34 53.5832L1436.32 78.6725H1408.29L1394.27 53.5889L1408.29 28.5053H1436.32ZM1452.88 2.02527H1480.91L1494.93 27.1146L1480.91 52.1982H1452.87L1438.86 27.1146L1452.88 2.02527ZM1525.49 28.5223L1539.51 53.6002L1525.49 78.6895H1497.46L1483.44 53.6059L1497.46 28.5223H1525.49ZM1542.04 2.0423H1570.08L1584.09 27.1259L1570.08 52.2152H1542.04L1528.03 27.1316L1542.04 2.0423ZM1583.93 80.3584L1569.91 105.442H1541.89L1527.86 80.3641L1541.89 55.2748H1569.91L1583.93 80.3584ZM1583.77 133.585L1569.75 158.674H1541.72L1527.7 133.591L1541.72 108.502H1569.75L1583.77 133.585ZM1583.61 186.818L1569.59 211.901H1541.56L1527.54 186.818L1541.56 161.728H1569.59L1583.61 186.818ZM1583.44 240.044L1569.43 265.134H1541.39L1527.37 240.044L1541.4 214.955H1569.43L1583.44 240.044ZM1583.28 293.271L1569.26 318.361H1541.23L1527.21 293.277L1541.23 268.188H1569.26L1583.28 293.271ZM1583.12 346.498L1569.1 371.587H1541.07L1527.05 346.504L1541.07 321.42H1569.1L1583.12 346.498ZM1582.95 399.73L1568.94 424.82H1540.9L1526.89 399.736L1540.91 374.647H1568.94L1582.95 399.73ZM1582.8 452.963L1568.78 478.047H1540.74L1526.73 452.969L1540.74 427.879H1568.78L1582.8 452.963ZM1582.63 506.195L1568.61 531.279H1540.58L1526.56 506.195L1540.58 481.106H1568.61L1582.63 506.195ZM1582.47 559.422L1568.45 584.506H1540.41L1526.4 559.422L1540.41 534.333H1568.45L1582.47 559.422ZM1582.31 612.649L1568.29 637.733H1540.25L1526.24 612.655L1540.25 587.56H1568.29L1582.31 612.649ZM1582.14 665.876L1568.12 690.959H1540.09L1526.07 665.881L1540.09 640.792H1568.12L1582.14 665.876ZM1581.98 719.108L1567.97 744.192H1539.93L1525.91 719.114L1539.93 694.025H1567.97L1581.98 719.108ZM1581.82 772.335L1567.8 797.424H1539.77L1525.75 772.341L1539.77 747.251H1567.8L1581.82 772.335ZM1581.65 825.567L1567.64 850.651H1539.6L1525.59 825.567L1539.61 800.484H1567.64L1581.65 825.567ZM1495.18 823.899L1481.16 798.815L1495.18 773.726H1523.21L1537.22 798.809L1523.21 823.899H1495.18ZM1478.47 850.634H1450.43L1436.42 825.55L1450.44 800.461H1478.47L1492.48 825.55L1478.47 850.634ZM1406.01 823.882L1392 798.798L1406.01 773.709H1434.05L1448.06 798.792L1434.04 823.882H1406.01ZM1389.3 850.623H1361.27L1347.25 825.533L1361.27 800.444H1389.3L1403.32 825.533L1389.3 850.623ZM1316.84 823.865L1302.82 798.781L1316.84 773.692H1344.88L1358.89 798.775L1344.87 823.865H1316.84ZM1300.13 850.6H1272.1L1258.08 825.516L1272.1 800.427H1300.13L1314.15 825.516L1300.13 850.6ZM1227.67 823.848L1213.65 798.764L1227.67 773.675H1255.71L1269.72 798.764L1255.7 823.848H1227.67ZM1210.96 850.583H1182.93L1168.91 825.499L1182.93 800.41H1210.96L1224.98 825.494L1210.96 850.583ZM1138.51 823.83L1124.49 798.741L1138.51 773.658H1166.54L1180.56 798.741L1166.53 823.83H1138.51ZM1121.79 850.566H1093.76L1079.75 825.482L1093.76 800.399H1121.79L1135.81 825.482L1121.79 850.566ZM1049.34 823.813L1035.32 798.73L1049.34 773.641H1077.37L1091.39 798.724L1077.37 823.813H1049.34ZM1032.63 850.549H1004.59L990.575 825.465L1004.59 800.382H1032.63L1046.64 825.465L1032.63 850.549ZM960.169 823.796L946.152 798.713L960.169 773.624H988.203L1002.22 798.707L988.198 823.796H960.169ZM943.456 850.532H915.421L901.41 825.448L915.427 800.365H943.456L957.473 825.448L943.456 850.532ZM870.998 823.779L856.981 798.696L870.998 773.606H899.032L913.049 798.69L899.027 823.779H870.998ZM854.29 850.515H826.256L812.239 825.437L826.256 800.348H854.29L868.307 825.431L854.29 850.515ZM812.403 772.204L826.421 747.115H854.455L868.472 772.199L854.455 797.288H826.415L812.403 772.204ZM812.563 718.978L826.58 693.888H854.614L868.631 718.972L854.614 744.056H826.58L812.563 718.978ZM812.727 665.745L826.744 640.656H854.779L868.796 665.745L854.779 690.829H826.739L812.727 665.745ZM812.892 612.518L826.909 587.429H854.938L868.961 612.518L854.938 637.602H826.904L812.892 612.518ZM813.051 559.292L827.074 534.202H855.103L869.12 559.286L855.103 584.375H827.068L813.051 559.292ZM813.216 506.059L827.233 480.97H855.262L869.279 506.059L855.262 531.143H827.233L813.216 506.059ZM813.381 452.832L827.398 427.743H855.427L869.444 452.827L855.427 477.91H827.392L813.381 452.832ZM813.54 399.6L827.563 374.511H855.591L869.609 399.594L855.591 424.684H827.557L813.54 399.6ZM813.705 346.373L827.722 321.284H855.751L869.768 346.367L855.751 371.457H827.722L813.705 346.373ZM813.864 293.141L827.887 268.051H855.915L869.933 293.141L855.915 318.23H827.881L813.864 293.141ZM814.029 239.914L828.046 214.825H856.08L870.097 239.914L856.08 264.997H828.046L814.029 239.914ZM814.193 186.687L828.21 161.598H856.245L870.257 186.681L856.245 211.765H828.21L814.193 186.687ZM814.352 133.455L828.37 108.365H856.404L870.421 133.449L856.404 158.538H828.37L814.352 133.455ZM915.163 106.714L901.146 131.797H873.117L859.1 106.714L873.117 81.6299H901.152L915.163 106.714ZM945.734 105.323H917.7L903.688 80.2392L917.705 55.1556H945.734L959.751 80.2392L945.734 105.323ZM1004.33 106.731L990.317 131.82H962.283L948.265 106.731L962.283 81.6469H990.317L1004.33 106.731ZM1034.91 105.34H1006.87L992.854 80.2562L1006.87 55.1669H1034.91L1048.92 80.2562L1034.91 105.34ZM1093.5 106.748L1079.48 131.837H1051.45L1037.43 106.748L1051.45 81.6639H1079.49L1093.5 106.748ZM1124.07 105.363H1096.04L1082.02 80.2732L1096.04 55.1839H1124.07L1138.09 80.2732L1124.07 105.363ZM1182.67 106.765L1168.65 131.854H1140.62L1126.6 106.765L1140.62 81.681H1168.65L1182.67 106.765ZM1213.24 105.38H1185.21L1171.2 80.2903L1185.21 55.2066H1213.24L1227.26 80.2903L1213.24 105.38ZM1271.84 106.782L1257.82 131.871H1229.78L1215.77 106.787L1229.78 81.698H1257.82L1271.84 106.782ZM1302.41 105.391H1274.37L1260.36 80.313L1274.38 55.2237H1302.41L1316.42 80.3073L1302.41 105.391ZM1361.01 106.799L1346.99 131.888H1318.96L1304.94 106.804L1318.96 81.715H1346.99L1361.01 106.799ZM1391.58 105.408H1363.54L1349.53 80.33L1363.55 55.2407H1391.58L1405.6 80.3243L1391.58 105.408ZM1450.17 106.816L1436.16 131.905H1408.13L1394.11 106.816L1408.13 81.7321H1436.16L1450.17 106.816ZM1480.75 105.425H1452.71L1438.69 80.347L1452.71 55.2577H1480.75L1494.77 80.3414L1480.75 105.425ZM1497.29 131.922L1483.27 106.833L1497.29 81.7491H1525.33L1539.34 106.833L1525.33 131.922H1497.29ZM1497.13 185.149L1483.12 160.065L1497.13 134.976H1525.16L1539.18 160.059L1525.16 185.149H1497.13ZM1496.97 238.381L1482.96 213.292L1496.97 188.203H1525L1539.01 213.292L1525 238.381H1496.97ZM1496.81 291.608L1482.79 266.519L1496.81 241.435H1524.84L1538.85 266.519L1524.83 291.608H1496.81ZM1496.64 344.835L1482.63 319.751L1496.64 294.662H1524.68L1538.7 319.746L1524.67 344.835H1496.64ZM1496.48 398.062L1482.46 372.978L1496.48 347.894H1524.51L1538.53 372.978L1524.51 398.062H1496.48ZM1496.31 451.294L1482.3 426.21L1496.31 401.121H1524.35L1538.37 426.205L1524.35 451.294H1496.31ZM1496.16 504.527L1482.14 479.437L1496.16 454.354H1524.19L1538.21 479.437L1524.18 504.527H1496.16ZM1495.99 557.753L1481.97 532.67L1495.99 507.58H1524.03L1538.04 532.664L1524.02 557.753H1495.99ZM1495.83 610.98L1481.81 585.896L1495.83 560.807H1523.87L1537.88 585.896L1523.87 610.98H1495.83ZM1495.67 664.207L1481.65 639.123L1495.67 614.04H1523.7L1537.72 639.118L1523.7 664.207H1495.67ZM1495.5 717.439L1481.48 692.356L1495.5 667.266H1523.54L1537.55 692.35L1523.54 717.439H1495.5ZM1481.32 745.583L1495.34 720.499H1523.38L1537.39 745.583L1523.37 770.666H1495.34L1481.32 745.583ZM1450.6 747.234H1478.63L1492.65 772.324L1478.63 797.407H1450.6L1436.58 772.324L1450.6 747.234ZM1392.15 745.571L1406.17 720.482H1434.21L1448.22 745.565L1434.21 770.655H1406.17L1392.15 745.571ZM1361.43 747.217H1389.46L1403.48 772.307L1389.46 797.39H1361.43L1347.41 772.307L1361.43 747.217ZM1302.99 745.554L1317.01 720.465H1345.04L1359.05 745.548L1345.04 770.638H1317.01L1302.99 745.554ZM1272.26 747.2H1300.3L1314.31 772.29L1300.3 797.373H1272.26L1258.24 772.29L1272.26 747.2ZM1213.82 745.537L1227.83 720.448H1255.88L1269.89 745.531L1255.87 770.621H1227.83L1213.82 745.537ZM1183.09 747.183H1211.13L1225.14 772.267L1211.13 797.356H1183.09L1169.08 772.273L1183.09 747.183ZM1124.65 745.52L1138.67 720.431H1166.7L1180.72 745.514L1166.7 770.604H1138.67L1124.65 745.52ZM1093.92 747.166H1121.96L1135.97 772.25L1121.96 797.339H1093.92L1079.91 772.256L1093.92 747.166ZM1035.48 745.497L1049.5 720.414H1077.53L1091.55 745.497L1077.53 770.587H1049.5L1035.48 745.497ZM1004.76 747.149H1032.79L1046.81 772.233L1032.79 797.322H1004.75L990.74 772.239L1004.76 747.149ZM946.311 745.48L960.328 720.397H988.362L1002.39 745.48L988.362 770.57H960.328L946.311 745.48ZM915.591 747.132H943.62L957.638 772.216L943.62 797.305H915.586L901.569 772.221L915.591 747.132ZM899.197 720.38L913.214 745.463L899.191 770.547H871.162L857.145 745.463L871.162 720.38H899.197ZM899.362 667.147L913.373 692.237L899.356 717.326H871.327L857.305 692.237L871.327 667.147H899.362ZM899.521 613.92L913.538 639.004L899.521 664.093H871.486L857.469 639.01L871.486 613.92H899.521ZM899.686 560.694L913.703 585.777L899.68 610.867H871.651L857.634 585.777L871.651 560.694H899.686ZM899.85 507.467L913.862 532.545L899.845 557.634H871.81L857.793 532.551L871.81 507.467H899.85ZM900.009 454.234L914.027 479.318L900.009 504.402H871.975L857.958 479.318L871.975 454.234H900.009ZM900.174 401.002L914.191 426.086L900.169 451.175H872.134L858.123 426.091L872.134 401.002H900.174ZM900.333 347.775L914.351 372.859L900.333 397.948H872.299L858.282 372.859L872.299 347.775H900.333ZM900.498 294.548L914.515 319.632L900.493 344.721H872.464L858.447 319.632L872.464 294.548H900.498ZM900.657 241.322L914.675 266.4L900.657 291.489H872.628L858.611 266.405L872.628 241.322H900.657ZM900.822 188.089L914.839 213.173L900.817 238.262H872.788L858.776 213.173L872.788 188.089H900.822ZM914.999 159.94L900.981 185.03H872.952L858.935 159.946L872.952 134.862H900.987L914.999 159.94ZM945.575 158.555H917.541L903.523 133.472L917.546 108.382H945.575L959.587 133.466L945.575 158.555ZM1004.17 159.957L990.152 185.047H962.118L948.101 159.963L962.118 134.879H990.158L1004.17 159.957ZM1034.75 158.567H1006.71L992.689 133.489L1006.71 108.399H1034.75L1048.76 133.483L1034.75 158.567ZM1093.34 159.974L1079.32 185.064H1051.29L1037.27 159.98L1051.29 134.891H1079.32L1093.34 159.974ZM1123.91 158.589H1095.88L1081.86 133.506L1095.88 108.416H1123.91L1137.93 133.5L1123.91 158.589ZM1182.51 159.991L1168.49 185.081H1140.45L1126.44 159.991L1140.45 134.908H1168.49L1182.51 159.991ZM1213.08 158.606H1185.04L1171.03 133.523L1185.05 108.433H1213.08L1227.1 133.517L1213.08 158.606ZM1271.68 160.008L1257.66 185.098H1229.63L1215.61 160.008L1229.63 134.925H1257.67L1271.68 160.008ZM1302.25 158.623H1274.21L1260.2 133.54L1274.21 108.45H1302.25L1316.27 133.534L1302.25 158.623ZM1360.84 160.031L1346.83 185.115H1318.79L1304.78 160.031L1318.79 134.942H1346.83L1360.84 160.031ZM1391.41 158.64H1363.38L1349.37 133.557L1363.39 108.467H1391.41L1405.43 133.557L1391.41 158.64ZM1450.01 160.042L1436 185.132H1407.96L1393.94 160.048L1407.96 134.959H1436L1450.01 160.042ZM1452.55 158.657L1438.53 133.574L1452.56 108.485H1480.58L1494.6 133.574L1480.58 158.657H1452.55ZM1452.39 211.884L1438.37 186.801L1452.39 161.711H1480.42L1494.44 186.801L1480.42 211.884H1452.39ZM1452.23 265.111L1438.21 240.033L1452.23 214.938H1480.25L1494.27 240.027L1480.25 265.111H1452.23ZM1452.06 318.343L1438.04 293.26L1452.06 268.171H1480.1L1494.11 293.254L1480.1 318.343H1452.06ZM1451.9 371.57L1437.88 346.492L1451.9 321.403H1479.93L1493.95 346.487L1479.93 371.57H1451.9ZM1451.74 424.803L1437.72 399.719L1451.74 374.63H1479.77L1493.78 399.719L1479.77 424.803H1451.74ZM1451.57 478.035L1437.56 452.952L1451.58 427.862H1479.61L1493.62 452.946L1479.61 478.035H1451.57ZM1451.41 531.262L1437.4 506.173L1451.41 481.089H1479.44L1493.46 506.173L1479.44 531.262H1451.41ZM1451.25 584.489L1437.23 559.405L1451.25 534.316H1479.28L1493.3 559.399L1479.28 584.489H1451.25ZM1451.08 637.716L1437.07 612.638L1451.09 587.548H1479.12L1493.14 612.632L1479.12 637.716H1451.08ZM1450.92 690.948L1436.91 665.864L1450.92 640.775H1478.95L1492.98 665.864L1478.95 690.948H1450.92ZM1450.77 694.008H1478.79L1492.81 719.091L1478.79 744.175H1450.75L1436.74 719.097L1450.77 694.008ZM1392.32 692.339L1406.34 667.255H1434.37L1448.39 692.333L1434.37 717.422H1406.34L1392.32 692.339ZM1361.59 693.991H1389.62L1403.64 719.074L1389.62 744.158H1361.59L1347.58 719.08L1361.59 693.991ZM1303.15 692.322L1317.17 667.238H1345.2L1359.22 692.316L1345.19 717.405H1317.17L1303.15 692.322ZM1272.42 693.973H1300.46L1314.48 719.057L1300.46 744.141H1272.42L1258.41 719.063L1272.42 693.973ZM1213.98 692.305L1227.99 667.221H1256.03L1270.05 692.305L1256.03 717.388H1227.99L1213.98 692.305ZM1183.26 693.956H1211.29L1225.3 719.04L1211.29 744.129H1183.25L1169.24 719.04L1183.26 693.956ZM1124.82 692.288L1138.83 667.204H1166.86L1180.88 692.288L1166.86 717.371H1138.83L1124.82 692.288ZM1094.09 693.939H1122.12L1136.14 719.023L1122.12 744.112H1094.09L1080.07 719.023L1094.09 693.939ZM1035.64 692.271L1049.66 667.187H1077.7L1091.71 692.271L1077.69 717.36H1049.66L1035.64 692.271ZM1004.92 693.922H1032.95L1046.97 719.006L1032.95 744.095H1004.92L990.899 719.006L1004.92 693.922ZM946.475 692.254L960.493 667.164H988.527L1002.54 692.254L988.522 717.343H960.493L946.475 692.254ZM943.785 693.905L957.797 718.989L943.785 744.073H915.751L901.734 718.989L915.751 693.905H943.785ZM943.944 640.673L957.962 665.762L943.944 690.846H915.915L901.893 665.762L915.915 640.673H943.944ZM944.109 587.446L958.126 612.535L944.109 637.619H916.075L902.057 612.535L916.075 587.446H944.109ZM944.274 534.219L958.291 559.303L944.274 584.387H916.234L902.222 559.309L916.239 534.219H944.274ZM944.433 480.987L958.45 506.07L944.433 531.16H916.399L902.381 506.076L916.399 480.987H944.433ZM944.598 427.76L958.615 452.844L944.598 477.927H916.558L902.546 452.849L916.563 427.76H944.598ZM944.762 374.528L958.78 399.611L944.762 424.701H916.723L902.711 399.617L916.728 374.528H944.762ZM944.922 321.295L958.944 346.384L944.922 371.474H916.887L902.87 346.384L916.893 321.295H944.922ZM945.081 268.074L959.104 293.158L945.081 318.241H917.052L903.035 293.158L917.057 268.074H945.081ZM945.246 214.842L959.263 239.931L945.246 265.015H917.211L903.199 239.931L917.217 214.842H945.246ZM945.41 211.782H917.376L903.364 186.704L917.381 161.615H945.41L959.428 186.698L945.41 211.782ZM1004.01 213.184L989.988 238.279H961.953L947.941 213.19L961.953 188.106H989.993L1004.01 213.184ZM1034.58 211.799H1006.54L992.53 186.721L1006.55 161.632H1034.58L1048.6 186.715L1034.58 211.799ZM1093.18 213.201L1079.15 238.29H1051.13L1037.11 213.207L1051.13 188.123H1079.16L1093.18 213.201ZM1123.75 211.816H1095.71L1081.7 186.732L1095.72 161.649H1123.75L1137.76 186.732L1123.75 211.816ZM1182.35 213.218L1168.33 238.307H1140.3L1126.28 213.224L1140.3 188.14H1168.33L1182.35 213.218ZM1212.92 211.833H1184.88L1170.87 186.75L1184.88 161.66H1212.92L1226.93 186.75L1212.92 211.833ZM1271.51 213.235L1257.49 238.324H1229.47L1215.44 213.241L1229.47 188.157H1257.5L1271.51 213.235ZM1302.08 211.85H1274.05L1260.03 186.767L1274.05 161.677H1302.08L1316.1 186.767L1302.08 211.85ZM1360.68 213.258L1346.66 238.342H1318.63L1304.61 213.258L1318.63 188.174H1346.67L1360.68 213.258ZM1391.25 211.867H1363.22L1349.2 186.784L1363.22 161.694H1391.25L1405.27 186.784L1391.25 211.867ZM1407.8 238.364L1393.79 213.275L1407.8 188.186H1435.84L1449.85 213.275L1435.83 238.364H1407.8ZM1407.64 291.591L1393.61 266.502L1407.64 241.418H1435.67L1449.69 266.502L1435.67 291.591H1407.64ZM1407.47 344.818L1393.46 319.734L1407.47 294.651H1435.51L1449.52 319.729L1435.5 344.818H1407.47ZM1407.31 398.05L1393.3 372.961L1407.31 347.877H1435.35L1449.36 372.961L1435.34 398.05H1407.31ZM1407.15 451.277L1393.13 426.193L1407.15 401.11H1435.18L1449.2 426.188L1435.18 451.277H1407.15ZM1406.98 504.51L1392.97 479.426L1406.98 454.337H1435.02L1449.04 479.42L1435.01 504.51H1406.98ZM1406.83 557.736L1392.81 532.647L1406.83 507.563H1434.85L1448.87 532.647L1434.85 557.736H1406.83ZM1406.66 610.963L1392.64 585.879L1406.66 560.796H1434.69L1448.71 585.874L1434.69 610.963H1406.66ZM1392.48 639.106L1406.5 614.023H1434.53L1448.55 639.106L1434.53 664.196H1406.5L1392.48 639.106ZM1361.76 640.758H1389.79L1403.81 665.847L1389.79 690.931H1361.75L1347.74 665.847L1361.76 640.758ZM1303.31 639.089L1317.33 614.006H1345.36L1359.38 639.089L1345.36 664.179H1317.33L1303.31 639.089ZM1272.59 640.741H1300.62L1314.64 665.83L1300.62 690.914H1272.58L1258.57 665.83L1272.59 640.741ZM1214.14 639.072L1228.16 613.989H1256.19L1270.21 639.072L1256.19 664.161H1228.16L1214.14 639.072ZM1183.42 640.724H1211.45L1225.47 665.813L1211.45 690.897H1183.42L1169.4 665.819L1183.42 640.724ZM1124.98 639.061L1138.99 613.972H1167.03L1181.04 639.055L1167.02 664.144H1138.99L1124.98 639.061ZM1094.25 640.713H1122.29L1136.3 665.796L1122.29 690.88H1094.25L1080.23 665.796L1094.25 640.713ZM1035.81 639.044L1049.82 613.96H1077.86L1091.87 639.038L1077.86 664.127H1049.82L1035.81 639.044ZM1005.08 640.69H1033.11L1047.13 665.779L1033.11 690.863H1005.08L991.064 665.779L1005.08 640.69ZM988.686 613.937L1002.7 639.021L988.686 664.11H960.657L946.64 639.027L960.657 613.937H988.686ZM988.851 560.711L1002.87 585.794L988.846 610.884H960.822L946.805 585.794L960.822 560.711H988.851ZM989.016 507.484L1003.03 532.562L989.01 557.651H960.981L946.964 532.568L960.981 507.484H989.016ZM989.18 454.251L1003.19 479.335L989.175 504.419H961.146L947.129 479.335L961.146 454.251H989.18ZM989.34 401.019L1003.36 426.103L989.34 451.192H961.311L947.288 426.108L961.311 401.019H989.34ZM989.504 347.792L1003.52 372.876L989.499 397.965H961.47L947.453 372.876L961.47 347.792H989.504ZM989.669 294.565L1003.68 319.643L989.664 344.738H961.629L947.612 319.649L961.629 294.565H989.669ZM1003.85 266.417L989.828 291.506H961.794L947.777 266.422L961.794 241.339H989.834L1003.85 266.417ZM1034.42 265.032H1006.38L992.365 239.948L1006.38 214.859H1034.42L1048.43 239.942L1034.42 265.032ZM1093.01 266.434L1078.99 291.523H1050.96L1036.95 266.439L1050.96 241.35H1079L1093.01 266.434ZM1123.58 265.049H1095.55L1081.54 239.965L1095.56 214.876H1123.58L1137.6 239.959L1123.58 265.049ZM1182.18 266.451L1168.16 291.54H1140.13L1126.11 266.456L1140.13 241.367H1168.16L1182.18 266.451ZM1212.75 265.06H1184.72L1170.7 239.982L1184.72 214.893H1212.75L1226.77 239.976L1212.75 265.06ZM1271.35 266.468L1257.33 291.557H1229.3L1215.28 266.473L1229.3 241.384H1257.34L1271.35 266.468ZM1301.92 265.077H1273.89L1259.87 239.999L1273.89 214.91H1301.92L1315.94 239.993L1301.92 265.077ZM1360.52 266.485L1346.5 291.574H1318.47L1304.45 266.49L1318.47 241.401H1346.5L1360.52 266.485ZM1363.05 265.094L1349.04 240.016L1363.05 214.927H1391.09L1405.11 240.01L1391.09 265.094H1363.05ZM1362.89 318.326L1348.88 293.243L1362.9 268.154H1390.92L1404.95 293.237L1390.92 318.326H1362.89ZM1362.73 371.553L1348.71 346.475L1362.73 321.386H1390.77L1404.78 346.47L1390.77 371.553H1362.73ZM1362.57 424.786L1348.55 399.702L1362.57 374.613H1390.61L1404.62 399.702L1390.61 424.786H1362.57ZM1362.4 478.018L1348.38 452.929L1362.41 427.845H1390.44L1404.46 452.929L1390.44 478.018H1362.4ZM1362.24 531.245L1348.23 506.156L1362.24 481.072H1390.28L1404.29 506.156L1390.28 531.245H1362.24ZM1362.08 584.472L1348.06 559.388L1362.08 534.299H1390.11L1404.13 559.382L1390.11 584.472H1362.08ZM1361.92 587.531H1389.95L1403.97 612.615L1389.95 637.699H1361.92L1347.9 612.621L1361.92 587.531ZM1303.47 585.862L1317.49 560.779H1345.52L1359.54 585.857L1345.52 610.946H1317.49L1303.47 585.862ZM1272.75 587.514H1300.78L1314.8 612.598L1300.78 637.682H1272.75L1258.74 612.604L1272.75 587.514ZM1214.31 585.845L1228.32 560.762H1256.36L1270.38 585.84L1256.36 610.929H1228.32L1214.31 585.845ZM1183.59 587.497H1211.62L1225.63 612.581L1211.62 637.664H1183.58L1169.56 612.587L1183.59 587.497ZM1125.14 585.828L1139.16 560.745H1167.19L1181.2 585.823L1167.19 610.912H1139.16L1125.14 585.828ZM1094.41 587.48H1122.45L1136.46 612.57L1122.45 637.653H1094.41L1080.39 612.57L1094.41 587.48ZM1035.97 585.811L1049.99 560.728H1078.02L1092.04 585.811L1078.02 610.901H1049.99L1035.97 585.811ZM1033.27 587.463L1047.29 612.552L1033.27 637.636H1005.24L991.228 612.552L1005.25 587.463H1033.27ZM1033.44 534.236L1047.46 559.32L1033.44 584.404H1005.4L991.393 559.32L1005.41 534.236H1033.44ZM1033.6 481.004L1047.62 506.088L1033.6 531.177H1005.57L991.552 506.093L1005.58 481.004H1033.6ZM1033.76 427.777L1047.78 452.861L1033.76 477.944H1005.73L991.717 452.861L1005.73 427.777H1033.76ZM1033.93 374.545L1047.95 399.628L1033.93 424.718H1005.89L991.876 399.634L1005.9 374.545H1033.93ZM1034.09 321.318L1048.11 346.402L1034.09 371.491H1006.06L992.035 346.402L1006.06 321.318H1034.09ZM1034.26 318.258H1006.22L992.2 293.18L1006.22 268.091H1034.26L1048.27 293.175L1034.26 318.258ZM1092.85 319.666L1078.83 344.755H1050.8L1036.78 319.666L1050.8 294.582H1078.83L1092.85 319.666ZM1123.42 318.275H1095.39L1081.37 293.197L1095.39 268.108H1123.42L1137.44 293.192L1123.42 318.275ZM1182.02 319.677L1168 344.772H1139.97L1125.95 319.683L1139.97 294.599H1168.01L1182.02 319.677ZM1212.59 318.292H1184.55L1170.54 293.214L1184.56 268.119H1212.59L1226.61 293.209L1212.59 318.292ZM1271.19 319.694L1257.17 344.784H1229.14L1215.12 319.7L1229.14 294.617H1257.17L1271.19 319.694ZM1301.76 318.309H1273.72L1259.71 293.226L1273.73 268.136H1301.76L1315.78 293.22L1301.76 318.309ZM1318.3 344.801L1304.29 319.717L1318.3 294.634H1346.34L1360.35 319.711L1346.34 344.801H1318.3ZM1318.14 398.033L1304.13 372.944L1318.14 347.86H1346.18L1360.19 372.944L1346.18 398.033H1318.14ZM1317.98 451.26L1303.96 426.176L1317.98 401.093H1346.01L1360.04 426.171L1346.01 451.26H1317.98ZM1317.81 504.492L1303.8 479.403L1317.81 454.32H1345.85L1359.86 479.403L1345.85 504.492H1317.81ZM1303.64 532.63L1317.65 507.546H1345.69L1359.71 532.63L1345.69 557.719H1317.65L1303.64 532.63ZM1272.91 534.282H1300.95L1314.96 559.365L1300.95 584.455H1272.91L1258.89 559.371L1272.91 534.282ZM1214.47 532.613L1228.49 507.529H1256.52L1270.54 532.613L1256.52 557.702H1228.49L1214.47 532.613ZM1183.75 534.265H1211.78L1225.79 559.354L1211.78 584.438H1183.74L1169.72 559.354L1183.75 534.265ZM1125.3 532.602L1139.32 507.512H1167.35L1181.37 532.596L1167.35 557.685H1139.32L1125.3 532.602ZM1094.58 534.253H1122.61L1136.63 559.337L1122.61 584.421H1094.57L1080.56 559.337L1094.58 534.253ZM1078.19 507.501L1092.2 532.579L1078.18 557.668H1050.15L1036.13 532.585L1050.15 507.501H1078.19ZM1078.35 454.268L1092.36 479.352L1078.35 504.436H1050.31L1036.29 479.352L1050.31 454.268H1078.35ZM1078.51 401.036L1092.53 426.125L1078.51 451.209H1050.48L1036.46 426.125L1050.48 401.036H1078.51ZM1092.69 372.893L1078.67 397.982H1050.64L1036.62 372.899L1050.64 347.809H1078.67L1092.69 372.893ZM1123.26 371.508H1095.22L1081.21 346.424L1095.23 321.335H1123.26L1137.28 346.419L1123.26 371.508ZM1181.86 372.91L1167.84 397.999H1139.81L1125.79 372.91L1139.81 347.826H1167.84L1181.86 372.91ZM1212.43 371.519H1184.39L1170.38 346.441L1184.39 321.352H1212.43L1226.45 346.436L1212.43 371.519ZM1271.02 372.927L1257.01 398.016H1228.98L1214.96 372.927L1228.98 347.843H1257.01L1271.02 372.927ZM1273.56 371.536L1259.55 346.458L1273.57 321.369H1301.59L1315.61 346.453L1301.59 371.536H1273.56ZM1273.4 424.769L1259.38 399.685L1273.41 374.596H1301.44L1315.45 399.685L1301.44 424.769H1273.4ZM1273.24 478.001L1259.22 452.912L1273.24 427.823H1301.26L1315.29 452.912L1301.26 478.001H1273.24ZM1273.08 481.055H1301.11L1315.13 506.139L1301.11 531.228H1273.07L1259.06 506.144L1273.08 481.055ZM1214.64 479.386L1228.65 454.297H1256.68L1270.7 479.386L1256.68 504.475H1228.65L1214.64 479.386ZM1183.91 481.038H1211.94L1225.95 506.122L1211.94 531.205H1183.91L1169.89 506.127L1183.91 481.038ZM1125.46 479.369L1139.48 454.286H1167.52L1181.53 479.369L1167.51 504.458H1139.48L1125.46 479.369ZM1122.77 481.021L1136.79 506.105L1122.77 531.194H1094.73L1080.72 506.11L1094.74 481.021H1122.77ZM1122.93 427.788L1136.95 452.878L1122.93 477.961H1094.9L1080.88 452.878L1094.9 427.788H1122.93ZM1123.09 424.735H1095.06L1081.05 399.651L1095.06 374.562H1123.09L1137.12 399.651L1123.09 424.735ZM1181.69 426.142L1167.68 451.232H1139.64L1125.62 426.142L1139.64 401.053H1167.68L1181.69 426.142ZM1212.26 424.752H1184.23L1170.21 399.668L1184.23 374.579H1212.26L1226.28 399.668L1212.26 424.752ZM1226.12 452.895L1212.1 477.984H1184.07L1170.05 452.895L1184.07 427.805H1212.1L1226.12 452.895ZM1214.8 426.159L1228.81 401.07H1256.84L1270.86 426.159L1256.84 451.243H1228.81L1214.8 426.159ZM814.517 80.2222L828.534 55.1329H856.569L870.586 80.2222L856.569 105.306H828.529L814.517 80.2222ZM826.3 0.197494L826.322 0.237227L812.305 25.3265H799.715V28.3861H812.145L826.163 53.464L812.14 78.5533H799.715V81.6128H811.981L825.998 106.691L811.981 131.78H799.715V134.845H811.821L825.833 159.923L811.816 185.013H799.715V188.072H811.657L825.668 213.156L811.651 238.245H799.715V241.299H811.492L825.509 266.383L811.486 291.472H799.715V294.526H811.327L825.344 319.615L811.327 344.704H799.715V347.758H811.168L825.18 372.842L811.163 397.931H799.715V400.985H811.003L825.02 426.069L810.998 451.158H799.715V454.217H810.839L824.856 479.301L810.839 504.39H799.715V507.45H810.679L824.697 532.528L810.674 557.617H799.715V560.677H810.515L824.532 585.76L810.515 610.85H799.715V613.903H810.35L824.373 638.987L810.35 664.076H799.715V667.13H810.191L824.208 692.22L810.191 717.303H799.715V720.363H810.026L824.043 745.446L810.026 770.536H799.715V773.595H809.867L823.884 798.673L809.861 823.762H799.715V826.822H809.702L823.719 851.906L823.626 852.064H856.898L856.821 851.923L870.839 826.839H898.873L912.885 851.923L912.808 852.064H946.058L945.987 851.94L960.004 826.856H988.038L1002.06 851.934L1001.98 852.064H1035.22L1035.16 851.957L1049.17 826.873H1077.21L1091.22 851.951L1091.16 852.064H1124.38L1124.32 851.974L1138.34 826.89H1166.37L1180.39 851.968L1180.34 852.064H1213.53L1213.49 851.991L1227.51 826.907H1255.55L1269.56 851.991L1269.51 852.064H1302.69L1302.67 852.008L1316.68 826.918H1344.71L1358.73 852.008L1358.69 852.064H1391.85L1391.83 852.025L1405.85 826.935H1433.88L1447.9 852.025L1447.87 852.064H1481.01L1481 852.042L1495.02 826.958H1523.05L1537.06 852.042L1537.05 852.064H1570.17L1570.17 852.059L1584.18 826.975H1599.37V823.916H1584.34L1570.33 798.832L1584.34 773.743H1599.37V770.683H1584.51L1570.49 745.6L1584.51 720.516H1599.37V717.456H1584.67L1570.66 692.367L1584.67 667.283H1599.37V664.224H1584.84L1570.82 639.14L1584.84 614.057H1599.37V611.003H1585L1570.98 585.913L1585 560.824H1599.37V557.77H1585.16L1571.14 532.687L1585.16 507.597H1599.37V504.538H1585.33L1571.3 479.454L1585.33 454.371H1599.37V451.311H1585.49L1571.47 426.227L1585.49 401.138H1599.37V398.079H1585.65L1571.63 372.995L1585.65 347.911H1599.37V344.852H1585.81L1571.79 319.763L1585.81 294.679H1599.37V291.625H1585.97L1571.96 266.536L1585.97 241.452H1599.37V238.398H1586.14L1572.12 213.309L1586.14 188.225H1599.37V185.166H1586.3L1572.29 160.082L1586.3 134.999H1599.37V131.933H1586.46L1572.45 106.85L1586.46 81.7661H1599.37V78.7066H1586.63L1572.6 53.623L1586.63 28.5336H1599.37V25.4741H1586.79L1572.77 0.390488L1572.88 0.197494H1539.57L1539.67 0.373459L1525.65 25.4628H1497.62L1483.6 0.373459L1483.7 0.197494H1450.41L1450.5 0.35643L1436.48 25.4457H1408.45L1394.43 0.35643L1394.53 0.197494H1361.25L1361.33 0.339402L1347.31 25.4287H1319.28L1305.27 0.345078L1305.34 0.197494H1272.09L1272.17 0.322372L1258.15 25.4117H1230.11L1216.1 0.328048L1216.17 0.197494H1182.93L1182.99 0.305343L1168.98 25.3946H1140.95L1126.93 0.311019L1126.99 0.197494H1093.77L1093.83 0.288315L1079.81 25.3776H1051.78L1037.76 0.293991L1037.81 0.197494H1004.61L1004.66 0.271286L990.641 25.3606H962.607L948.589 0.276962L948.633 0.197494H915.454L915.487 0.254257L901.47 25.3436H873.441L859.424 0.259933L859.457 0.197494H826.3Z" fill="#FABA2A"/>
</g>
</g>
<defs>
<clipPath id="clip0_91_1839">
<rect width="1440" height="811" fill="white"/>
</clipPath>
</defs>
</svg>
